<svg width="1620" height="1378" xmlns="http://www.w3.org/2000/svg" xmlns:xlink="http://www.w3.org/1999/xlink" xml:space="preserve" overflow="hidden"><g transform="translate(-465 -873)"><rect x="465" y="873" width="1620" height="1346" fill="#FFFFFF"/><text fill="#FF5050" font-family="Derailed,Derailed_MSFontService,sans-serif" font-weight="700" font-size="83" transform="matrix(1 0 0 1 772.743 2180)">pre</text><text fill="#FF5050" font-family="Derailed,Derailed_MSFontService,sans-serif" font-weight="700" font-size="83" transform="matrix(1 0 0 1 906.232 2180)">-</text><text fill="#FF5050" font-family="Derailed,Derailed_MSFontService,sans-serif" font-weight="700" font-size="83" transform="matrix(1 0 0 1 960.659 2180)">and post</text><text fill="#FF5050" font-family="Derailed,Derailed_MSFontService,sans-serif" font-weight="700" font-size="83" transform="matrix(1 0 0 1 1306.13 2180)">-</text><text fill="#FF5050" font-family="Derailed,Derailed_MSFontService,sans-serif" font-weight="700" font-size="83" transform="matrix(1 0 0 1 1360.56 2180)">RS neurons</text><g><g><g><g><path d="M0 0 1588 0 1588 1191 0 1191Z" fill="#FFFFFF" transform="matrix(1 0 0 1.00084 497 894)"/></g><path d="M0 0 1588 0 1588 1191 0 1191Z" fill="#FFFFFF" transform="matrix(1 0 0 1.00084 497 894)"/><path d="M207.007 1057.72 1437.71 1057.72 1437.71 209.843 207.007 209.843Z" fill="#FFFFFF" transform="matrix(1 0 0 1.00084 497 894)"/><path d="M207.007 1057.72 1437.71 1057.72" stroke="#262626" stroke-width="5.67143" stroke-linecap="square" stroke-linejoin="round" stroke-miterlimit="10" fill="none" transform="matrix(1 0 0 1.00084 497 894)"/><path d="M207.007 1057.72 207.007 1045.41" stroke="#262626" stroke-width="5.67143" stroke-linecap="square" stroke-linejoin="round" stroke-miterlimit="10" fill="none" transform="matrix(1 0 0 1.00084 497 894)"/><path d="M360.845 1057.72 360.845 1045.41" stroke="#262626" stroke-width="5.67143" stroke-linecap="square" stroke-linejoin="round" stroke-miterlimit="10" fill="none" transform="matrix(1 0 0 1.00084 497 894)"/><path d="M514.682 1057.72 514.682 1045.41" stroke="#262626" stroke-width="5.67143" stroke-linecap="square" stroke-linejoin="round" stroke-miterlimit="10" fill="none" transform="matrix(1 0 0 1.00084 497 894)"/><path d="M668.52 1057.72 668.52 1045.41" stroke="#262626" stroke-width="5.67143" stroke-linecap="square" stroke-linejoin="round" stroke-miterlimit="10" fill="none" transform="matrix(1 0 0 1.00084 497 894)"/><path d="M822.357 1057.72 822.357 1045.41" stroke="#262626" stroke-width="5.67143" stroke-linecap="square" stroke-linejoin="round" stroke-miterlimit="10" fill="none" transform="matrix(1 0 0 1.00084 497 894)"/><path d="M976.195 1057.72 976.195 1045.41" stroke="#262626" stroke-width="5.67143" stroke-linecap="square" stroke-linejoin="round" stroke-miterlimit="10" fill="none" transform="matrix(1 0 0 1.00084 497 894)"/><path d="M1130.03 1057.72 1130.03 1045.41" stroke="#262626" stroke-width="5.67143" stroke-linecap="square" stroke-linejoin="round" stroke-miterlimit="10" fill="none" transform="matrix(1 0 0 1.00084 497 894)"/><path d="M1283.87 1057.72 1283.87 1045.41" stroke="#262626" stroke-width="5.67143" stroke-linecap="square" stroke-linejoin="round" stroke-miterlimit="10" fill="none" transform="matrix(1 0 0 1.00084 497 894)"/><path d="M1437.71 1057.72 1437.71 1045.41" stroke="#262626" stroke-width="5.67143" stroke-linecap="square" stroke-linejoin="round" stroke-miterlimit="10" fill="none" transform="matrix(1 0 0 1.00084 497 894)"/><text fill="#262626" font-family="Arial,Arial_MSFontService,sans-serif" font-weight="400" font-size="16" transform="matrix(2.83571 0 0 2.83809 691.246 2012)">0</text><text fill="#262626" font-family="Arial,Arial_MSFontService,sans-serif" font-weight="400" font-size="16" transform="matrix(2.83571 0 0 2.83809 819.562 2012)">500</text><text fill="#262626" font-family="Arial,Arial_MSFontService,sans-serif" font-weight="400" font-size="16" transform="matrix(2.83571 0 0 2.83809 960.639 2012)">1000</text><text fill="#262626" font-family="Arial,Arial_MSFontService,sans-serif" font-weight="400" font-size="16" transform="matrix(2.83571 0 0 2.83809 1114.48 2012)">1500</text><text fill="#262626" font-family="Arial,Arial_MSFontService,sans-serif" font-weight="400" font-size="16" transform="matrix(2.83571 0 0 2.83809 1268.31 2012)">2000</text><text fill="#262626" font-family="Arial,Arial_MSFontService,sans-serif" font-weight="400" font-size="16" transform="matrix(2.83571 0 0 2.83809 1422.15 2012)">2500</text><text fill="#262626" font-family="Arial,Arial_MSFontService,sans-serif" font-weight="400" font-size="16" transform="matrix(2.83571 0 0 2.83809 1575.99 2012)">3000</text><text fill="#262626" font-family="Arial,Arial_MSFontService,sans-serif" font-weight="400" font-size="16" transform="matrix(2.83571 0 0 2.83809 1729.83 2012)">3500</text><text fill="#262626" font-family="Arial,Arial_MSFontService,sans-serif" font-weight="400" font-size="16" transform="matrix(2.83571 0 0 2.83809 1883.66 2012)">4000</text><text fill="#262626" font-family="Arial,Arial_MSFontService,sans-serif" font-weight="700" font-size="18" transform="matrix(2.83571 0 0 2.83809 1222.94 2075)">Time </text><text fill="#262626" font-family="Arial,Arial_MSFontService,sans-serif" font-weight="700" font-size="18" transform="matrix(2.83571 0 0 2.83809 1361.89 2075)">(</text><text fill="#262626" font-family="Arial,Arial_MSFontService,sans-serif" font-weight="700" font-size="18" transform="matrix(2.83571 0 0 2.83809 1378.91 2075)">s</text><text fill="#262626" font-family="Arial,Arial_MSFontService,sans-serif" font-weight="700" font-size="18" transform="matrix(2.83571 0 0 2.83809 1407.26 2075)">)</text><path d="M207.007 1057.72 207.007 209.843" stroke="#262626" stroke-width="5.67143" stroke-linecap="square" stroke-linejoin="round" stroke-miterlimit="10" fill="none" transform="matrix(1 0 0 1.00084 497 894)"/><path d="M207.007 1057.72 219.314 1057.72" stroke="#262626" stroke-width="5.67143" stroke-linecap="square" stroke-linejoin="round" stroke-miterlimit="10" fill="none" transform="matrix(1 0 0 1.00084 497 894)"/><path d="M207.007 951.736 219.314 951.736" stroke="#262626" stroke-width="5.67143" stroke-linecap="square" stroke-linejoin="round" stroke-miterlimit="10" fill="none" transform="matrix(1 0 0 1.00084 497 894)"/><path d="M207.007 845.752 219.314 845.752" stroke="#262626" stroke-width="5.67143" stroke-linecap="square" stroke-linejoin="round" stroke-miterlimit="10" fill="none" transform="matrix(1 0 0 1.00084 497 894)"/><path d="M207.007 739.767 219.314 739.767" stroke="#262626" stroke-width="5.67143" stroke-linecap="square" stroke-linejoin="round" stroke-miterlimit="10" fill="none" transform="matrix(1 0 0 1.00084 497 894)"/><path d="M207.007 633.782 219.314 633.782" stroke="#262626" stroke-width="5.67143" stroke-linecap="square" stroke-linejoin="round" stroke-miterlimit="10" fill="none" transform="matrix(1 0 0 1.00084 497 894)"/><path d="M207.007 527.797 219.314 527.797" stroke="#262626" stroke-width="5.67143" stroke-linecap="square" stroke-linejoin="round" stroke-miterlimit="10" fill="none" transform="matrix(1 0 0 1.00084 497 894)"/><path d="M207.007 421.812 219.314 421.812" stroke="#262626" stroke-width="5.67143" stroke-linecap="square" stroke-linejoin="round" stroke-miterlimit="10" fill="none" transform="matrix(1 0 0 1.00084 497 894)"/><path d="M207.007 315.828 219.314 315.828" stroke="#262626" stroke-width="5.67143" stroke-linecap="square" stroke-linejoin="round" stroke-miterlimit="10" fill="none" transform="matrix(1 0 0 1.00084 497 894)"/><path d="M207.007 209.843 219.314 209.843" stroke="#262626" stroke-width="5.67143" stroke-linecap="square" stroke-linejoin="round" stroke-miterlimit="10" fill="none" transform="matrix(1 0 0 1.00084 497 894)"/><text fill="#262626" font-family="Arial,Arial_MSFontService,sans-serif" font-weight="400" font-size="16" transform="matrix(2.83571 0 0 2.83809 661.849 1968)">0</text><text fill="#262626" font-family="Arial,Arial_MSFontService,sans-serif" font-weight="400" font-size="16" transform="matrix(2.83571 0 0 2.83809 622.149 1862)">0</text><text fill="#262626" font-family="Arial,Arial_MSFontService,sans-serif" font-weight="400" font-size="16" transform="matrix(2.83571 0 0 2.83809 647.671 1862)">.</text><text fill="#262626" font-family="Arial,Arial_MSFontService,sans-serif" font-weight="400" font-size="16" transform="matrix(2.83571 0 0 2.83809 659.014 1862)">5</text><text fill="#262626" font-family="Arial,Arial_MSFontService,sans-serif" font-weight="400" font-size="16" transform="matrix(2.83571 0 0 2.83809 661.849 1756)">1</text><text fill="#262626" font-family="Arial,Arial_MSFontService,sans-serif" font-weight="400" font-size="16" transform="matrix(2.83571 0 0 2.83809 622.149 1650)">1</text><text fill="#262626" font-family="Arial,Arial_MSFontService,sans-serif" font-weight="400" font-size="16" transform="matrix(2.83571 0 0 2.83809 647.671 1650)">.</text><text fill="#262626" font-family="Arial,Arial_MSFontService,sans-serif" font-weight="400" font-size="16" transform="matrix(2.83571 0 0 2.83809 659.014 1650)">5</text><text fill="#262626" font-family="Arial,Arial_MSFontService,sans-serif" font-weight="400" font-size="16" transform="matrix(2.83571 0 0 2.83809 661.849 1544)">2</text><text fill="#262626" font-family="Arial,Arial_MSFontService,sans-serif" font-weight="400" font-size="16" transform="matrix(2.83571 0 0 2.83809 622.149 1438)">2</text><text fill="#262626" font-family="Arial,Arial_MSFontService,sans-serif" font-weight="400" font-size="16" transform="matrix(2.83571 0 0 2.83809 647.671 1438)">.</text><text fill="#262626" font-family="Arial,Arial_MSFontService,sans-serif" font-weight="400" font-size="16" transform="matrix(2.83571 0 0 2.83809 659.014 1438)">5</text><text fill="#262626" font-family="Arial,Arial_MSFontService,sans-serif" font-weight="400" font-size="16" transform="matrix(2.83571 0 0 2.83809 661.849 1332)">3</text><text fill="#262626" font-family="Arial,Arial_MSFontService,sans-serif" font-weight="400" font-size="16" transform="matrix(2.83571 0 0 2.83809 622.149 1226)">3</text><text fill="#262626" font-family="Arial,Arial_MSFontService,sans-serif" font-weight="400" font-size="16" transform="matrix(2.83571 0 0 2.83809 647.671 1226)">.</text><text fill="#262626" font-family="Arial,Arial_MSFontService,sans-serif" font-weight="400" font-size="16" transform="matrix(2.83571 0 0 2.83809 659.014 1226)">5</text><text fill="#262626" font-family="Arial,Arial_MSFontService,sans-serif" font-weight="400" font-size="16" transform="matrix(2.83571 0 0 2.83809 661.849 1120)">4</text><text fill="#262626" font-family="Arial,Arial_MSFontService,sans-serif" font-weight="700" font-size="18" transform="matrix(1.73637e-16 -2.83809 2.83571 1.73783e-16 599.464 1740)">Synaptic strength</text><path d="M207.007 1057.72 207.952 1057.46 207.952 1057.46 207.953 1057.46 209.804 1049.76 210.315 1051.64 210.316 1051.64 212.678 1055.49 212.679 1055.49 212.679 1055.49 214.336 1056.58 215.04 1051.51 215.042 1051.51 215.042 1051.51 216.173 1049.57 217.405 1049.59 217.405 1049.59 218.317 1049.26 219.766 1050.73 219.768 1050.73 219.768 1050.73 220.12 1051.26 222.129 1045.35 222.131 1045.35 222.131 1045.35 222.619 1044.49 224.492 1049.54 224.494 1049.54 224.494 1049.54 226.855 1049.91 226.857 1049.91 226.857 1049.91 227.194 1049.92 229.218 1036.43 229.22 1036.43 229.22 1036.43 231.581 1035.41 231.583 1035.41 231.584 1035.41 233.944 1034.3 233.946 1034.3 233.946 1034.3 235.15 1034.47 236.307 1033.84 236.309 1033.84 236.31 1033.84 238.67 1032.51 238.672 1032.51 238.673 1032.51 239.242 1032.49 240.251 1032.95 241.036 1032.78 241.036 1032.78 242.153 1032.78 243.396 1032.76 243.399 1032.76 243.399 1032.76 244.765 1032.51 245.35 1034.7 245.762 1034.46 245.762 1034.46 245.965 1034.41 248.125 1035.05 248.125 1035.05 250.488 1037.76 250.488 1037.76 250.488 1037.76 251.411 1037.85 252.851 1029.58 252.851 1029.58 252.851 1029.58 255.011 1029.5 255.214 1029.52 255.215 1029.52 255.367 1029.53 257.577 1027.81 257.577 1027.81 257.578 1027.81 259.112 1028.04 259.939 1027.14 259.941 1027.14 259.941 1027.14 261.296 1026.55 262.302 1027.54 262.303 1027.54 262.304 1027.54 264.665 1029.03 264.666 1029.03 264.667 1029.03 265.536 1028.28 267.028 1034.45 267.03 1034.45 267.03 1034.45 267.844 1034.9 269.393 1034.81 269.393 1034.81 270.419 1034.81 271.754 1034.84 271.756 1034.84 271.756 1034.84 274.117 1042.56 274.119 1042.56 274.119 1042.56 275.197 1047.35 276.48 1034.47 276.482 1034.47 276.482 1034.47 278.843 1018.44 278.845 1018.44 278.845 1018.44 281.206 1018.2 281.208 1018.2 281.208 1018.2 283.566 1017.92 283.571 1017.92 283.571 1017.92 284.964 1018.1 285.803 1002.36 285.934 1003.54 285.934 1003.54 287.374 1005.9 288.299 1005.65 288.299 1005.65 288.528 1005.65 290.658 1007.6 290.661 1007.6 290.661 1007.6 293.02 1012.45 293.023 1012.45 293.023 1012.46 294.316 1015.26 295.388 994.595 295.388 994.595 295.893 994.508 297.75 995.716 297.75 995.716 299.766 997.423 300.112 997.253 300.112 997.253 302.443 990.969 302.477 991.15 302.477 991.15 304.417 1008.29 304.839 1007.05 304.839 1007.05 306.368 1006.05 307.201 1010.8 307.201 1010.8 307.201 1010.8 307.845 1010.95 309.564 1010.17 309.566 1010.17 309.566 1010.17 311.929 1009.65 311.929 1009.65 311.929 1009.65 312.28 1009.64 314.254 1015.3 314.291 1015.12 314.291 1015.12 316.653 1008.23 316.656 1008.23 316.656 1008.23 318.53 1008.38 319.015 1006.97 319.018 1006.97 319.018 1006.97 320.351 1001.81 321.38 1002.08 321.38 1002.08 321.61 1001.95 322.324 1004.15 323.745 1003.26 323.745 1003.26 325.56 1009.18 326.104 994.774 326.107 994.774 326.107 994.774 328.466 993.317 328.469 993.317 328.469 993.317 328.832 993.424 329.601 981.438 330.834 982.368 330.834 982.368 330.902 982.357 333.194 988.059 333.196 988.059 333.196 988.059 335.556 990.909 335.559 990.909 335.559 990.909 337.439 990.906 337.921 991.343 337.924 991.343 337.924 991.343 340.283 991.643 340.286 991.643 340.286 991.643 342.648 1005.4 342.648 1005.4 343.039 1005.55 344.794 1004.1 345.013 1004.11 345.013 1004.11 346.025 1004.12 347.375 1003.43 347.375 1003.43 347.375 1003.43 349.34 1007.26 349.737 984.676 349.737 984.676 349.737 984.676 352.099 980.95 352.102 980.95 352.102 980.95 354.464 978.934 354.464 978.934 354.464 978.934 354.558 978.903 356.826 985.595 356.826 985.595 356.826 985.595 357.048 986.077 359.189 971.635 359.191 971.635 359.191 971.635 360.334 971.618 361.551 974.612 361.554 974.612 361.554 974.612 363.916 976.189 363.916 976.189 363.916 976.189 365.362 980.233 366.281 980.108 366.281 980.108 367.009 980.133 368.64 979.334 368.643 979.334 368.643 979.334 371.005 957.794 371.005 957.794 371.005 957.794 373.367 946.55 373.37 946.55 373.37 946.55 375.729 946.21 375.732 946.21 375.732 946.21 375.956 946.008 378.094 947.004 378.094 947.004 378.094 947.004 378.199 947.004 378.948 946.924 380.459 946.972 380.459 946.972 381.939 946.59 382.819 947.063 382.821 947.063 382.821 947.063 382.986 947.128 385.181 939.061 385.184 939.061 385.184 939.058 386.27 939.078 387.546 926.011 387.549 926.011 387.549 926.008 388.413 925.642 388.791 926.178 389.911 926.039 389.911 926.039 390.605 926.365 392.273 911.206 392.273 911.206 394.638 910.86 394.638 910.86 394.638 910.86 397 910.017 397 910.017 397 910.017 397.632 909.867 399.362 909.873 399.362 909.873 400.65 909.788 401.31 909.904 401.727 909.887 401.727 909.887 404.089 908.659 404.089 908.659 404.089 908.659 404.98 908.656 406.451 908.662 406.451 908.662 406.451 908.662 407.243 908.662 408 908.205 408.816 908.367 408.816 908.367 409.874 908.384 411.176 907.998 411.178 907.998 411.178 907.998 411.683 907.258 413.146 914.946 413.541 914.484 413.541 914.484 414.814 914.311 415.906 914.365 415.906 914.365 417.743 914.912 418.268 914.787 418.268 914.787 418.449 914.773 420.63 916.27 420.63 916.27 420.63 916.27 422.476 915.544 422.952 918.627 422.995 918.434 422.995 918.434 425.354 913.545 425.357 913.545 425.357 913.545 427.719 866.898 427.719 866.898 427.719 866.898 429.543 843.662 430.084 848.403 430.084 848.403 432.444 850.082 432.446 850.082 432.446 850.082 434.806 852.521 434.809 852.521 434.809 852.521 437.08 852.637 437.174 852.617 437.174 852.617 438.881 853.873 439.536 851.673 439.536 851.673 440.52 735.661 441.898 736.412 441.898 736.412 442.655 737.688 444.263 732.678 444.263 732.678 444.263 732.678 446.48 725.316 446.625 725.773 446.625 725.773 448.987 727.139 448.987 727.139 448.987 727.139 450.394 727.298 451.349 726.947 451.352 726.947 451.352 726.947 453.714 726.921 453.714 726.921 453.714 726.921 456.076 726.918 456.076 726.918 456.076 726.918 456.553 726.918 457.662 727.42 458.441 727.035 458.441 727.035 460.801 715.079 460.803 715.079 460.803 715.079 460.965 715.079 462.749 715.658 463.166 715.337 463.166 715.337 463.713 715.246 465.528 739.339 465.531 739.339 465.531 739.339 467.89 740.737 467.893 740.737 467.893 740.737 470.255 741.536 470.255 741.536 470.255 741.536 472.521 743.584 472.62 743.547 472.62 743.547 473.346 743.47 474.979 744.571 474.982 744.571 474.982 744.571 476.269 745.234 477.341 722.302 477.344 722.302 477.344 722.302 479.706 699.032 479.709 699.032 479.709 699.032 480.909 697.94 482.069 700.625 482.071 700.625 482.071 700.625 484.431 703.078 484.433 703.078 484.433 703.084 485.797 703.688 486.799 695.371 486.799 695.371 489.161 694.438 489.161 694.438 489.77 693.559 491.523 752.726 491.523 752.726 491.523 752.726 493.888 755.42 493.888 755.42 493.888 755.42 495.966 757.371 496.25 757.337 496.25 757.337 498.612 757.11 498.612 757.11 498.612 757.11 498.757 757.11 500.974 766.057 500.977 766.057 500.977 766.057 501.323 766.204 503.339 761.066 503.339 761.066 503.339 761.066 505.372 751.824 505.701 751.892 505.701 751.892 507.443 751.926 508.066 751.901 508.066 751.901 510.426 756.957 510.428 756.957 510.428 756.957 512.507 761.795 512.791 760.774 512.791 760.774 514.676 756.781 515.156 757.484 515.156 757.484 516.534 755.936 517.515 761.055 517.518 761.055 517.518 761.055 519.88 762.126 519.88 762.126 519.88 762.126 522.242 764.945 522.245 764.945 522.245 764.945 524.604 765.39 524.607 765.39 524.607 765.39 525.1 765.393 526.966 765.314 526.969 765.314 526.969 765.314 528.322 765.311 529.331 765.555 529.334 765.555 529.334 765.566 531.586 767.251 531.696 766.182 531.696 766.156 532.785 752.825 534.058 752.854 534.058 752.854 534.912 752.868 536.424 751.249 536.424 751.249 537.03 751.43 538.61 746.371 538.786 746.391 538.786 746.391 541.148 752.581 541.148 752.581 541.148 752.581 542.007 752.593 543.51 742.968 543.513 742.968 543.513 742.968 544.233 742.92 545.875 743.68 545.875 743.68 545.875 743.68 548.237 743.819 548.237 743.819 548.237 743.819 549.978 742.883 550.599 744.267 550.602 744.267 550.602 744.267 551.237 744.451 552.335 743.433 552.964 743.462 552.964 743.462 553.401 743.465 555.326 738.375 555.326 738.375 555.326 738.375 556.475 738.292 557.688 744.403 557.691 744.403 557.691 744.403 558.587 744.571 560.051 744.307 560.053 744.307 560.053 744.307 561.417 744.148 561.829 746.173 562.416 745.849 562.416 745.849 564.165 744.729 564.778 747.412 564.781 747.412 564.781 747.412 566.162 747.69 567.109 724.704 567.143 724.911 567.143 724.911 569.505 733.891 569.505 733.891 569.505 733.891 571.867 739.072 571.87 739.072 571.87 739.072 572.309 739.103 574.229 718.76 574.232 718.76 574.232 718.76 576.591 713.965 576.594 713.965 576.594 713.965 578.956 712.76 578.959 712.76 578.959 712.76 580.542 712.382 581.321 712.666 581.321 712.672 582.538 714.912 583.683 714.087 583.683 714.087 585.802 714.058 586.049 714.084 586.049 714.084 586.309 714.095 588.411 712.85 588.411 712.85 588.411 712.85 589.5 712.683 590.773 713.015 590.773 713.015 590.773 713.015 591.459 712.836 593.135 716.032 593.138 716.032 593.138 716.032 595.5 716.318 595.5 716.318 595.5 716.318 595.871 716.341 597.862 703.036 597.862 703.036 597.862 703.036 600.224 702.996 600.227 702.996 600.227 702.996 600.428 702.993 602.303 704.519 602.589 704.51 602.589 704.51 603.222 704.505 604.951 704.862 604.951 704.862 604.951 704.862 605.306 704.865 607.313 703.549 607.316 703.549 607.316 703.549 607.747 703.594 609.676 703.541 609.678 703.541 609.678 703.541 610.529 703.541 612.041 704.683 612.041 704.683 612.041 704.683 613.345 706.277 614.403 703.161 614.406 703.161 614.406 703.161 616.765 693.859 616.768 693.859 616.768 693.859 618.503 686.22 619.13 686.787 619.13 686.787 621.305 687.102 621.495 687.057 621.495 687.057 621.546 687.048 623.854 687.383 623.857 687.383 623.857 687.383 626.216 687.805 626.219 687.805 626.219 687.805 626.497 687.808 627.79 666.449 628.584 670.726 628.584 670.731 630.754 671.08 630.946 671.009 630.946 671.009 633.308 664.938 633.308 664.938 634.939 666.937 635.673 662.964 635.673 662.964 635.673 662.964 638.036 657.205 638.036 657.205 638.036 657.205 639.176 657.216 640.398 656.201 640.398 656.201 640.398 656.201 642.76 655.643 642.763 655.643 642.763 655.643 645.125 653.935 645.125 653.935 645.125 653.935 647.487 649.807 647.487 649.807 647.487 649.807 648.777 649.458 649.849 654.914 649.852 654.914 649.852 654.914 651.505 655.175 652.211 654.894 652.214 654.894 652.214 654.894 654.576 654.837 654.576 654.837 654.576 654.837 656.587 654.61 656.938 655.155 656.941 655.155 656.941 655.155 659.301 656.031 659.303 656.031 659.303 656.031 659.839 656.057 661.209 655.892 661.666 655.898 661.666 655.898 664.028 659.156 664.031 659.156 664.031 659.156 665.12 660.923 665.894 641.246 666.393 641.416 666.393 641.416 668.755 642.885 668.755 642.885 668.755 642.885 670.632 647.771 671.12 645.891 671.12 645.891 673.479 638.416 673.482 638.416 673.482 638.416 673.987 638.413 674.574 638.455 675.844 638.438 675.844 638.438 676.655 638.438 678.209 638.45 678.209 638.45 678.521 638.359 680.571 642.249 680.571 642.249 682.168 640.137 682.933 644.481 682.933 644.481 685.298 647.657 685.298 647.657 685.298 647.657 687.493 648.865 687.661 648.752 687.661 648.752 687.749 648.715 690.023 654.508 690.023 654.508 690.023 654.508 691.823 655.555 692.388 655.504 692.388 655.504 693.165 655.495 694.75 657.71 694.75 657.71 694.75 657.71 697.112 657.747 697.112 657.747 697.112 657.747 697.211 657.747 699.474 636.433 699.477 636.433 699.477 636.433 701.595 635.659 701.839 635.98 701.839 635.98 703.753 638.756 704.201 638.435 704.201 638.435 706.402 638.336 706.563 638.901 706.566 638.901 706.566 638.901 708.926 640.04 708.928 640.04 708.928 640.04 711.291 640.324 711.291 640.324 711.291 640.324 711.35 640.324 713.653 633.283 713.656 633.283 713.656 633.283 716.015 633.26 716.018 633.26 716.018 633.26 718.113 632.775 718.377 633.992 718.38 633.992 718.38 633.992 718.624 634.482 720.132 548.569 720.745 548.889 720.745 548.889 720.765 548.886 723.104 573.929 723.107 573.929 723.107 573.929 723.873 573.946 725.421 573.866 725.469 573.886 725.469 573.886 726.255 573.983 727.834 565.115 727.834 565.115 730.196 551.714 730.196 551.714 731.682 552.173 732.558 523.257 732.558 523.257 732.558 523.257 733.917 522.472 734.923 522.673 734.923 522.673 737.286 522.71 737.286 522.71 737.286 522.71 739.648 522.741 739.648 522.741 739.648 522.741 742.01 524.604 742.013 524.604 742.013 524.604 744.375 540.059 744.375 540.059 744.375 540.059 746.737 542.024 746.737 542.024 746.737 542.024 749.099 546.7 749.102 546.7 749.102 546.7 751.461 549.666 751.464 549.666 751.464 549.666 752.936 553.486 753.826 544.485 753.826 544.485 753.826 544.485 755.451 542.554 756.191 543.978 756.191 543.978 756.242 543.981 758.551 543.402 758.553 543.402 758.553 543.402 759.906 543.399 760.916 543.83 760.916 543.83 760.916 543.83 761.837 543.93 763.278 543.609 763.281 543.609 763.281 543.609 765.373 543.606 765.64 543.677 765.643 543.677 765.643 543.677 768.002 543.805 768.005 543.805 768.005 543.805 768.646 543.811 770.367 533.778 770.37 533.778 770.37 533.778 771.808 533.758 772.729 535.284 772.732 535.284 772.732 535.284 774.485 535.462 774.944 534.943 775.094 534.989 775.094 534.989 777.459 536.84 777.459 536.84 779.821 536.883 779.821 536.883 779.821 536.883 780.011 536.883 782.183 536.857 782.183 536.857 782.183 536.857 783.857 536.84 784.546 537.407 784.548 537.407 784.548 537.407 785.569 537.476 786.911 537.373 786.911 537.373 786.911 537.373 788.589 533.903 789.273 539.072 789.273 539.072 789.273 539.072 790.197 539.103 791.283 538.978 791.638 538.978 791.638 538.978 791.788 538.978 794 538.993 794 538.993 794 538.993 796.362 538.995 796.362 538.995 796.362 538.995 796.918 538.995 798.724 525.001 798.727 525.001 798.727 525.001 801.086 520.68 801.089 520.68 801.089 520.68 803.451 504.539 803.451 504.539 803.451 504.539 804.756 504.4 805.813 511.072 805.816 511.072 805.816 511.072 806.865 511.841 808.178 511.741 808.178 511.741 810.149 512.357 810.538 511.585 810.541 511.585 810.541 511.585 810.64 511.574 811.53 514.651 812.906 514.26 812.906 514.26 814.84 514.257 815.098 517.061 815.268 516.503 815.268 516.503 817.397 505.775 817.63 508.126 817.63 508.146 819.992 510.145 819.995 510.145 819.995 510.145 822.354 510.695 822.357 510.695 822.357 510.695 823.477 510.692 823.741 510.834 824.719 510.809 824.719 510.809 825.428 510.797 827.084 511.01 827.084 511.01 828.187 511.013 829.446 510.95 829.446 510.95 829.446 510.95 829.551 510.95 831.808 511.188 831.808 511.188 831.808 511.188 832.622 511.537 834.171 508.353 834.173 508.353 834.173 508.353 836.536 482.831 836.536 482.831 836.536 482.831 838.044 482.803 838.898 484.831 838.898 484.831 838.898 484.831 840.165 485.783 841.26 459.539 841.263 459.539 841.263 459.539 841.529 459.437 843.625 460.231 843.625 460.231 843.625 460.231 845.224 462.973 845.987 462.942 845.987 462.942 847.717 461.986 848.349 486.2 848.352 486.2 848.352 486.2 848.684 485.392 850.711 496.23 850.714 496.23 850.714 496.23 852.43 496.105 853.076 497.648 853.076 497.648 853.076 497.648 853.666 497.835 855.438 488.974 855.441 488.974 855.441 488.974 856.408 488.829 857.801 490.011 857.803 490.011 857.803 490.011 860.163 490.048 860.166 490.048 860.166 490.048 860.71 490.054 862.528 489.813 862.531 489.813 862.531 489.813 863.055 489.807 864.89 490.349 864.893 490.349 864.893 490.349 865.539 490.377 866.554 489.631 867.255 489.708 867.255 489.708 869.617 489.719 869.62 489.719 869.62 489.719 871.982 489.898 871.982 489.898 874.344 494.514 874.344 494.514 876.386 494.79 876.709 494.248 876.709 494.248 876.709 494.248 877.367 493.754 879.071 498.785 879.071 498.785 879.071 498.785 880.342 498.612 881.433 499.199 881.433 499.199 881.433 499.199 882.04 499.208 883.798 499.202 883.798 499.202 885.168 498.967 886.161 499.395 886.161 499.395 886.161 499.395 887.292 499.403 888.523 499.4 888.523 499.4 888.803 499.398 890.431 500.209 890.888 500.186 890.888 500.186 891.537 500.18 893.25 505.477 893.25 505.477 893.25 505.477 895.612 508.407 895.612 508.407 895.612 508.407 895.672 508.412 897.974 495.66 897.977 495.66 897.977 495.66 900.336 494.67 900.339 494.67 900.339 494.67 902.389 473.876 902.701 474.063 902.701 474.063 902.942 474.12 905.063 471.273 905.066 471.273 905.066 471.273 907.426 422.743 907.428 422.743 907.428 422.743 909.788 356.109 909.791 356.109 909.791 356.109 911.191 355.922 912.156 355.947 912.156 355.947 912.541 355.947 914.515 356.682 914.518 356.682 914.518 356.682 916.548 358.068 916.877 355.91 916.88 355.91 916.88 355.891 919.245 329.74 919.245 329.74 919.438 329.74 921.142 330.267 921.607 329.856 921.607 329.856 922.863 329.901 923.969 306.314 923.969 306.314 923.969 306.314 926.334 305.758 926.334 305.758 926.334 305.758 928.501 305.16 928.696 305.88 928.696 305.88 928.696 305.88 930.88 306.677 931.058 306.66 931.058 306.66 933.421 303.427 933.423 303.427 933.423 303.427 934.215 209.843 935.786 209.852 935.786 209.852 937.391 209.843 938.148 210.636 938.148 210.636 938.148 210.636 939.863 211.25 940.513 211.245 940.513 211.245 941.508 211.244 942.821 212.705 942.875 212.659 942.875 212.659 945.237 211.149 945.237 211.149 945.237 211.149 945.509 209.843 947.602 209.843 947.602 209.843 949.961 212.992 949.964 212.992 949.964 212.992 951.995 212.813 952.326 215.8 952.326 215.8 952.326 215.8 954.688 218.559 954.691 218.559 954.691 218.559 956.682 219.662 957.053 219.418 957.053 219.418 958.412 209.843 959.416 209.881 959.416 209.881 961.267 212.093 961.781 211.909 961.781 211.909 963.162 212.218 963.678 209.843 964.143 209.843 964.143 209.843 966.502 210.707 966.505 210.707 966.505 210.707 967.96 210.574 968.87 215.727 968.87 215.727 970.688 217.286 971.232 217.283 971.232 217.283 973.594 217.33 973.594 217.33 973.594 217.33 973.71 217.33 975.956 216.76 975.959 216.76 975.959 216.76 978.321 216.741 978.321 216.741 978.321 216.741 978.452 216.741 980.683 212.599 980.683 212.599 980.683 212.599 981.304 212.569 983.046 213.381 983.048 213.381 983.048 213.381 985.411 213.419 985.411 213.419 985.411 213.419 986.573 213.432 987.041 209.843 987.773 209.843 987.773 209.843 990.135 209.858 990.138 209.858 990.138 209.858 991.073 209.863 991.658 209.843 992.5 209.843 992.5 209.843 994.862 209.843 994.862 209.843 997.227 209.843 997.227 209.843 998.903 230.217 999.589 227.885 999.589 227.885 1001.95 223.913 1001.95 223.913 1001.95 223.913 1003.68 209.843 1004.32 212.653 1004.32 212.653 1005.95 215.424 1006.68 212.154 1006.68 212.154 1006.68 212.154 1006.86 209.843 1009.04 209.843 1009.04 209.843 1011.41 209.843 1011.41 209.843 1013.76 210.38 1013.77 210.38 1013.77 210.389 1016.13 213.769 1016.13 213.769 1017.1 213.33 1017.85 229.632 1018.49 228.543 1018.49 228.543 1019.53 209.843 1020.86 209.855 1020.86 209.855 1021.38 211.45 1022.57 209.843 1023.22 209.843 1023.22 209.843 1024.25 210.097 1025.58 209.843 1025.58 209.843 1026.8 215.741 1027.95 214.172 1027.95 214.172 1030.31 212.7 1030.31 212.7 1030.31 212.7 1031.59 212.485 1032.67 214.244 1032.67 214.244 1032.67 214.244 1034.43 214.324 1035.04 214.324 1035.04 214.324 1036.98 215.101 1037.4 212.693 1037.4 212.693 1037.4 212.693 1037.53 209.843 1039.76 209.843 1039.76 209.843 1042.12 210.289 1042.12 210.289 1042.12 210.289 1043 210.294 1043.1 209.843 1044.49 209.843 1044.49 209.843 1046.85 212.541 1046.85 212.541 1046.85 212.541 1049.21 213.079 1049.21 213.079 1049.21 213.079 1051.57 213.388 1051.58 213.388 1051.58 213.388 1051.87 213.389 1053.94 212.819 1053.94 212.819 1053.94 212.819 1054.86 209.843 1056.3 209.843 1056.3 209.843 1058.66 214.258 1058.67 214.258 1058.67 214.258 1059.43 214.258 1061.03 215.259 1061.03 215.259 1061.03 215.263 1061.15 215.38 1061.73 209.843 1063.39 210.061 1063.39 210.061 1065.75 211.115 1065.75 211.115 1066.83 211.118 1067.99 209.843 1068.12 209.843 1068.12 209.843 1070.48 209.843 1070.48 209.843 1072.84 209.843 1072.84 209.843 1075.21 209.865 1075.21 209.865 1075.21 209.865 1076.8 209.902 1077.57 209.844 1077.57 209.844 1077.57 209.844 1077.66 209.843 1079.93 209.843 1079.93 209.843 1081.96 210.558 1082.3 210.554 1082.3 210.554 1082.48 210.565 1082.81 209.843 1084.66 209.843 1084.66 209.843 1086.03 210.298 1087.02 209.843 1087.02 209.843 1089.38 210.267 1089.39 210.267 1089.39 210.267 1090.87 210.291 1091.15 209.843 1091.75 209.843 1091.75 209.843 1094.11 212.893 1094.11 212.893 1094.11 212.893 1096.47 214.92 1096.48 214.92 1096.48 214.92 1097.23 214.989 1098.62 214.919 1098.84 214.919 1098.84 214.919 1099.42 214.919 1101.18 209.843 1101.2 209.843 1101.2 209.843 1103.56 209.971 1103.57 209.971 1103.57 209.971 1104.75 209.971 1104.78 209.843 1105.93 209.843 1105.93 209.843 1108.29 212.288 1108.29 212.288 1108.29 212.29 1109.51 212.501 1110.66 212.499 1110.66 212.499 1111.84 212.535 1112.19 209.843 1113.02 209.843 1113.02 209.843 1115.38 209.843 1115.38 209.843 1117.26 212.427 1117.74 212.417 1117.74 212.417 1118.8 214.885 1120.11 214.819 1120.11 214.819 1121.95 216.774 1122.37 209.843 1122.47 209.843 1122.47 209.843 1124.83 258.86 1124.83 258.86 1124.83 258.86 1125.19 259.159 1127.2 229.012 1127.2 229.012 1127.2 229.012 1129.56 217.84 1129.56 217.84 1129.56 217.84 1131.92 217.451 1131.92 217.451 1131.92 217.451 1132.82 216.641 1133.62 220.594 1134.29 220.335 1134.29 220.335 1136.65 220.295 1136.65 220.295 1136.65 220.295 1137.68 219.413 1138.64 221.229 1139.01 221.018 1139.01 221.018 1140.08 220.939 1141.37 223.284 1141.37 223.284 1141.37 223.284 1143.74 227.511 1143.74 227.511 1143.74 227.511 1144.85 227.911 1146.1 214.549 1146.1 214.549 1146.1 214.549 1147.28 214.449 1147.93 216.517 1148.46 215.928 1148.46 215.928 1149.97 214.996 1150.83 215.669 1150.83 215.669 1152.55 216.193 1153.19 216.133 1153.19 216.133 1154.32 209.843 1155.55 211.816 1155.55 211.824 1157.8 212.646 1157.92 212.646 1157.92 212.646 1157.96 212.645 1160.28 215.388 1160.28 215.388 1161.2 215.785 1161.82 209.843 1162.64 209.843 1162.64 209.843 1165 209.843 1165 209.843 1167.07 212.508 1167.37 212.27 1167.37 212.27 1168.06 212.143 1169.73 212.179 1169.73 212.179 1170.49 212.179 1172.09 216.638 1172.09 216.638 1172.09 216.638 1174.15 219.03 1174.46 219.026 1174.46 219.026 1174.54 219.025 1175.11 222.414 1176.82 221.77 1176.82 221.77 1177.22 221.769 1179.18 227.373 1179.18 227.373 1179.18 227.373 1181.55 227.628 1181.55 227.628 1181.55 227.628 1183.91 232.716 1183.91 232.716 1183.91 232.716 1184.93 233.023 1186.27 231.08 1186.27 231.08 1186.27 231.08 1187.51 230.952 1188.63 232.363 1188.64 232.363 1188.64 232.363 1191 234.08 1191 234.08 1191 234.08 1192.52 243.883 1193.36 237.039 1193.36 237.039 1195.72 221.001 1195.73 221.001 1195.73 221.001 1196.51 209.843 1198.09 210.179 1198.09 210.179 1200.45 214.191 1200.45 214.191 1200.45 214.191 1200.88 209.843 1202.81 215.398 1202.82 215.398 1202.82 215.403 1205.18 217.966 1205.18 217.966 1205.18 217.966 1207.54 221.816 1207.54 221.816 1209.91 223.789 1209.91 223.789 1212.27 225.138 1212.27 225.138 1212.27 225.138 1213.18 225.149 1214.39 225.034 1214.63 225.035 1214.63 225.035 1214.69 225.035 1216.79 209.843 1216.99 209.843 1216.99 209.843 1219.36 225.066 1219.36 225.066 1219.36 225.066 1221.1 227.702 1221.72 225.626 1221.72 225.626 1222.01 209.843 1224.08 214.263 1224.08 214.263 1226.45 220.213 1226.45 220.213 1226.45 220.213 1227.95 220.23 1228.81 220.176 1228.81 220.176 1228.81 220.176 1230.56 219.715 1231.17 221.599 1231.17 221.599 1231.17 221.599 1232.85 222.491 1233.54 222.407 1233.54 222.407 1235.9 225.027 1235.9 225.027 1235.9 225.027 1238.24 225.349 1238.26 225.346 1238.26 225.346 1238.76 225.155 1240.62 230.763 1240.62 230.763 1240.62 230.763 1242.04 230.79 1242.98 230.612 1242.99 230.612 1242.99 230.612 1245.35 224.327 1245.35 224.327 1245.35 224.327 1246.14 224.255 1247.71 224.258 1247.71 224.258 1247.85 224.258 1250.07 213.076 1250.08 213.076 1250.08 213.076 1250.47 213.074 1252.44 213.077 1252.44 213.077 1252.44 213.077 1252.88 213.077 1254.05 209.843 1254.8 209.843 1254.8 209.843 1257.17 209.843 1257.17 209.843 1259.21 209.847 1259.53 209.843 1259.53 209.843 1261.89 210.509 1261.89 210.509 1261.89 210.509 1263.25 210.499 1263.27 210.514 1264.25 210.501 1264.25 210.501 1265.56 210.607 1265.66 209.843 1266.62 209.843 1266.62 209.843 1268.23 209.843 1268.98 209.843 1268.98 209.843 1271.34 211.903 1271.34 211.903 1271.34 211.903 1273.71 211.907 1273.71 211.907 1273.71 211.907 1274.38 211.907 1276.07 211.873 1276.07 211.873 1276.07 211.873 1278.43 210.201 1278.43 210.201 1278.43 210.201 1279.39 209.843 1280.8 209.864 1280.8 209.864 1282.91 209.884 1283.08 209.843 1283.16 209.843 1283.16 209.843 1285.52 212.22 1285.52 212.22 1285.52 212.22 1287.85 213.174 1287.89 212.829 1287.89 212.829 1288.51 209.843 1290.25 209.843 1290.25 209.843 1292.61 210.718 1292.61 210.718 1292.61 210.718 1294.97 211.022 1294.98 211.022 1294.98 211.022 1296.96 211.093 1297.34 210.242 1297.34 210.242 1297.34 210.242 1299.7 209.889 1299.7 209.889 1299.7 209.889 1300.82 209.89 1302.06 209.868 1302.07 209.868 1302.07 209.868 1302.64 209.843 1304.43 226.057 1304.43 226.057 1305.99 226.346 1306.79 211.94 1306.79 211.94 1308.32 216.216 1308.93 209.843 1309.16 209.843 1309.16 209.843 1310.09 211.551 1311.52 210.219 1311.52 210.219 1311.75 211.09 1312.13 209.843 1313.88 209.843 1313.88 209.843 1314.94 209.843" stroke="#6699FF" stroke-width="9.45229" stroke-linejoin="round" stroke-miterlimit="10" fill="none" fill-rule="evenodd" transform="matrix(1 0 0 1.00084 497 894)"/><path d="M207.007 1057.72 207.952 1057.49 207.952 1057.49 207.953 1057.49 209.318 1051.01 210.315 1056.54 210.316 1056.54 210.37 1057.72 212.679 1057.72 212.679 1057.72 215.04 1053.37 215.042 1053.37 215.042 1053.37 217.403 1050.77 217.405 1050.77 217.405 1050.77 218.317 1050.34 219.766 1053.67 219.768 1053.67 219.768 1053.67 220.12 1054.99 222.129 1043.91 222.131 1043.91 222.131 1043.91 222.619 1043 224.492 1055.77 224.494 1055.77 224.494 1055.77 224.692 1057.72 226.857 1057.72 226.857 1057.72 229.218 1043.12 229.22 1043.12 229.22 1043.12 231.581 1042.07 231.583 1042.07 231.584 1042.07 233.944 1040.56 233.946 1040.56 233.946 1040.56 235.873 1039.62 236.307 1041.14 236.309 1041.14 236.31 1041.14 236.418 1041.26 238.67 1040.01 238.672 1040.01 238.673 1040.01 239.242 1039.98 240.251 1040.45 241.036 1040.3 241.036 1040.3 243.396 1040.25 243.399 1040.25 243.399 1040.25 244.762 1040 245.35 1042.57 245.762 1042.44 245.762 1042.44 245.968 1042.41 248.125 1045.45 248.125 1045.45 248.325 1057.72 250.488 1057.72 250.488 1057.72 252.851 1057.43 252.851 1057.43 252.851 1057.43 253.217 1057.39 253.263 1057.72 255.214 1057.72 255.215 1057.72 257.266 1057.24 257.577 1057.25 257.578 1057.25 258.509 1034.77 259.941 1045.57 259.941 1045.57 262.302 1023.58 262.303 1023.58 262.304 1023.58 262.318 1023.57 264.665 1032.99 264.666 1032.99 264.667 1032.99 267.028 1039.31 267.03 1039.31 267.03 1039.31 269.139 1056.29 269.393 1055.86 269.393 1055.86 271.754 1053.9 271.756 1053.9 271.756 1053.9 272.797 1053.56 273.197 1057.72 274.119 1057.72 274.119 1057.72 274.763 1057.64 276.482 1057.72 276.482 1057.72 278.791 1057.61 278.845 1057.72 278.845 1057.72 281.208 1057.72 281.208 1057.72 283.571 1057.72 283.571 1057.72 285.934 1057.72 285.934 1057.72 287.212 1055.21 288.299 1057.72 288.299 1057.72 290.661 1057.72 290.661 1057.72 292.195 1055.65 293.023 1057.72 293.023 1057.72 294.166 1057.72 295.388 1057.72 295.388 1057.72 296.981 1045.85 297.75 1046.56 297.75 1046.56 298.615 1046.64 300.112 1012.22 300.112 1012.22 300.112 1012.22 302.239 1001.7 302.477 1003.69 302.477 1003.69 303.237 1005.22 304.59 998.285 304.839 998.395 304.839 998.395 306.059 997.065 307.201 1012.72 307.201 1012.72 307.201 1012.72 309.081 1012.74 309.564 1011.8 309.566 1011.8 309.566 1011.8 311.929 1011.45 311.929 1011.45 311.929 1011.45 314.291 1002.31 314.291 1002.31 314.291 1002.31 314.418 1002.21 315.153 1008.83 316.656 1008.37 316.656 1008.37 319.015 1008.3 319.018 1008.3 319.018 1008.3 319.438 1007.41 321.38 1009.6 321.38 1009.6 321.38 1009.6 323.742 1013.09 323.745 1013.09 323.745 1013.09 323.895 1013.1 326.104 1012.74 326.107 1012.74 326.107 1012.74 327.312 1012.69 328.466 1013.08 328.469 1013.08 328.469 1013.08 329.706 1013.26 330.831 1012.72 330.834 1012.72 330.834 1012.72 332.034 1009.62 333.194 1034.04 333.196 1034.04 333.196 1034.04 335.556 1034.43 335.559 1034.43 335.559 1034.43 336.12 1034.44 337.921 1014.01 337.924 1014.01 337.924 1014.01 340.283 1013.61 340.286 1013.61 340.286 1013.61 342.231 1013.54 342.648 1016.2 342.648 1016.2 345.013 1024.48 345.013 1024.48 347.375 1024.57 347.375 1024.57 347.375 1024.57 348.892 1023.73 349.737 1025.45 349.737 1025.45 349.737 1025.45 350.358 1025.63 352.099 1023.37 352.102 1023.37 352.102 1023.37 353.157 1018.81 354.464 1018.85 354.464 1018.85 356.826 1018.54 356.826 1018.54 356.826 1018.54 358.559 1018.45 359.067 1019.15 359.191 1018.55 359.191 1018.55 361.531 1000.1 361.554 1000.5 361.554 1000.5 363.916 1006.01 363.916 1006.01 363.916 1006.01 364.055 1006.01 365.368 1003.77 366.281 1004.79 366.281 1004.79 368.609 1007.9 368.643 1007.89 368.643 1007.89 370.18 1006.95 371.005 1007.15 371.005 1007.15 371.286 1007.14 373.347 1007.73 373.37 1007.52 373.37 1007.52 374.932 979.084 375.732 979.753 375.732 979.753 378.094 1000.6 378.094 1000.6 378.094 1000.6 380.057 1000.78 380.388 1000.53 380.459 1000.54 380.459 1000.54 382.819 1001.4 382.821 1001.4 382.821 1001.4 384.313 1001.57 385.184 1001.55 385.184 1001.55 385.575 1001.55 387.546 1001.77 387.549 1001.77 387.549 1001.77 388.603 1002.04 389.911 1001.93 389.911 1001.93 390.56 1001.95 392.273 995.415 392.273 995.415 394.638 995.231 394.638 995.231 394.638 995.231 395.367 995.151 397 1003.84 397 1003.84 397 1003.84 399.362 1004.81 399.362 1004.81 399.362 1004.81 399.969 1005.76 401.724 1004 401.727 1004 401.727 1004 402.932 1003.98 404.089 1010.66 404.089 1010.66 404.089 1010.66 406.451 1012.89 406.451 1012.89 406.451 1012.89 406.789 1013.7 408.814 1012.29 408.816 1012.29 408.816 1012.29 409.956 1012.27 410.626 1015.86 411.178 1015.84 411.178 1015.84 411.828 1015.87 413.541 1013.97 413.541 1013.97 413.541 1013.97 414.803 1011.56 415.906 1011.59 415.906 1011.59 417.048 1011.45 418.265 1014.62 418.268 1014.62 418.268 1014.62 420.154 1016.41 420.63 1015.33 420.63 1015.33 422.414 1008.87 422.995 1014.9 422.995 1014.9 425.354 1016.13 425.357 1016.13 425.357 1016.13 426.738 1016.13 427.719 1006.3 427.719 1006.3 427.719 1006.3 429.114 1006.1 430.081 1010.26 430.084 1010.26 430.084 1010.26 432.444 1010.83 432.446 1010.83 432.446 1010.83 434.806 1019.65 434.809 1019.65 434.809 1019.68 435.889 1021.71 437.171 1000.18 437.174 1000.18 437.174 1000.18 437.253 1000.11 438.481 1002.59 439.536 1002.5 439.536 1002.5 441.898 1001.4 441.898 1001.4 444.263 981.117 444.263 981.117 444.263 981.117 445.233 981.109 446.625 985.362 446.625 985.362 446.625 985.362 447.85 983.406 447.929 1057.72 448.987 1049.56 448.987 1049.56 450.62 1049.04 451.349 1050.92 451.352 1050.92 451.352 1050.92 453.553 1057.72 453.714 1057.72 453.714 1057.72 456.076 1051.55 456.076 1051.55 456.076 1051.55 458.439 1050.08 458.441 1050.08 458.441 1050.08 458.94 1046.49 459.805 1057.72 460.803 1057.28 460.803 1057.28 462.944 1056.9 462.981 1057.72 463.166 1057.72 463.166 1057.72 465.528 1054.2 465.531 1054.2 465.531 1054.2 467.89 1024.8 467.893 1024.8 467.893 1024.8 470.255 1021.98 470.255 1021.98 470.255 1021.98 471.647 1021.87 472.617 1026.13 472.62 1026.13 472.62 1026.13 473.55 1026.91 474.982 1026.69 474.982 1026.69 477.341 1026.28 477.344 1026.28 477.344 1026.28 478.408 1026.19 479.709 1026.27 479.709 1026.27 481.158 1026.35 482.071 1026.29 482.071 1026.29 482.301 1026.28 484.056 1026.65 484.433 1026.65 484.433 1026.65 484.589 1026.64 486.733 1027.11 486.799 1026.86 486.799 1026.86 488.908 1020.07 489.161 1021.3 489.161 1021.3 490.961 1024.67 491.523 1024.14 491.523 1024.14 493.888 1017.54 493.888 1017.54 493.888 1017.54 495.025 1017.51 496.25 1028.91 496.25 1028.91 496.25 1028.91 498.612 1029.21 498.612 1029.21 498.612 1029.21 499.59 1029.09 500.974 1029.95 500.977 1029.95 500.977 1029.95 501.513 1029.96 503.339 1029.5 503.339 1029.5 503.339 1029.5 503.359 1029.5 504.91 1035.96 505.701 1032.52 505.701 1032.52 505.789 1028.64 505.82 1057.72 508.066 1057.72 508.066 1057.72 510.428 1057.72 510.428 1057.72 512.791 1057.72 512.791 1057.72 515.153 1057.47 515.156 1057.47 515.156 1057.47 515.745 1057.47 515.958 1057.72 517.518 1057.72 517.518 1057.72 519.88 1057.52 519.88 1057.52 519.88 1057.52 520.926 1057.46 520.938 1057.72 522.245 1057.64 522.245 1057.64 522.755 1057.6 522.911 1057.72 524.607 1057.72 524.607 1057.72 526.969 1057.72 526.969 1057.72 529.331 1055.67 529.334 1055.67 529.334 1055.67 531.693 1020.03 531.696 1020.03 531.696 1020.02 533.537 1014.4 534.058 1016.42 534.058 1016.42 534.835 1016.84 535.278 1016.16 536.424 1016.16 536.424 1016.16 538.786 998.086 538.786 998.086 538.786 998.086 540.427 997.494 541.148 997.564 541.148 997.564 543.51 1005.1 543.513 1005.1 543.513 1005.1 545.875 1007.72 545.875 1007.72 545.875 1007.72 546.496 1007.81 548.237 1006.6 548.237 1006.6 548.237 1006.6 548.543 1006.37 550.599 1010.06 550.602 1010.06 550.602 1010.06 552.454 1010.15 552.964 1007.87 552.964 1007.87 552.964 1007.87 553.5 1002.77 555.326 1003.91 555.326 1003.91 555.434 1004.44 557.688 998.18 557.691 998.18 557.691 998.18 558.434 1005.99 560.051 996.756 560.053 996.756 560.053 996.756 560.572 996.745 562.416 997.598 562.416 997.598 562.416 997.598 563.59 997.44 564.778 1001.7 564.781 1001.7 564.781 1001.7 567.026 1001.95 567.143 1001.71 567.143 1001.71 569.505 998.753 569.505 998.753 569.505 998.753 571.867 992.752 571.87 992.752 571.87 992.752 574.031 961.457 574.232 961.735 574.232 961.735 576.591 963.386 576.594 963.386 576.594 963.386 578.029 963.329 578.956 963.454 578.959 963.454 578.959 963.454 579.694 963.357 581.094 964.126 581.321 963.97 581.321 963.97 582.223 963.508 583.683 967.2 583.683 967.2 586.049 976.943 586.049 976.943 586.494 976.892 588.09 976.96 588.411 976.909 588.411 976.909 590.767 976.867 590.773 976.92 590.773 976.92 590.773 976.92 593.135 982.844 593.138 982.844 593.138 982.844 594.7 983.196 595.5 981.333 595.5 981.333 595.5 981.333 596.597 955.443 597.862 960.896 597.862 960.896 599.558 960.882 600.224 962.807 600.227 962.807 600.227 962.807 600.474 962.821 601.22 962.552 602.589 962.62 602.589 962.62 603.372 962.614 604.951 963.635 604.951 963.635 604.951 963.635 606.114 963.641 607.313 962.665 607.316 962.665 607.316 962.665 608.071 962.558 609.676 963.834 609.678 963.834 609.678 963.834 612.041 968.521 612.041 968.521 612.041 968.521 612.554 968.521 614.148 967.316 614.406 967.378 614.406 967.378 616.646 969.973 616.768 969.834 616.768 969.834 617.559 967.262 619.13 1014.74 619.13 1014.74 619.13 1014.74 621.492 1022.66 621.495 1022.66 621.495 1022.66 621.983 1022.72 623.108 1021.35 623.857 1021.65 623.857 1021.65 626.216 1029.15 626.219 1029.15 626.219 1029.15 628.581 1031.64 628.584 1031.64 628.584 1031.64 630.13 1031.59 630.946 1056.67 630.946 1056.67 633.189 1056.64 633.308 1057.17 633.308 1057.17 633.527 1057.72 635.673 1057.72 635.673 1057.72 638.036 1056.94 638.036 1056.94 638.036 1056.94 638.251 1056.94 638.841 1057.72 640.398 1057.72 640.398 1057.72 642.76 1056.62 642.763 1056.62 642.763 1056.62 643.622 1056.23 643.721 1057.72 645.125 1057.72 645.125 1057.72 647.487 1056.09 647.487 1056.09 647.487 1056.09 649.849 1056.07 649.852 1056.07 649.852 1056.07 650.289 1056.07 652.211 1045.09 652.214 1045.09 652.214 1045.09 652.94 1045.02 654.576 1045.51 654.576 1045.51 654.576 1045.51 656.938 1046.57 656.941 1046.57 656.941 1046.57 657.662 1045.87 659.301 1047.56 659.303 1047.56 659.303 1047.56 661.666 1048.29 661.666 1048.29 661.666 1048.29 663.965 1047.82 664.028 1048.49 664.031 1048.49 664.031 1048.49 665.247 1051.5 666.393 1050.06 666.393 1050.06 667.337 1050.03 668.091 1057.72 668.755 1057.72 668.755 1057.72 671.117 1050.14 671.12 1050.14 671.12 1050.14 671.962 1050.14 673.471 1048.3 673.482 1048.32 673.482 1048.32 673.828 1048.63 675.081 1040.76 675.844 1044.2 675.844 1044.2 678.209 1044.56 678.209 1044.56 680.571 1050.18 680.571 1050.18 681.842 1047.23 682.933 1054.86 682.933 1054.86 684.011 1054.88 685.298 1045.95 685.298 1045.95 685.298 1045.95 685.681 1031.71 687.661 1042.11 687.661 1042.11 690.023 1052.12 690.023 1052.12 690.023 1052.12 692.15 1053.24 692.388 1052.89 692.388 1052.89 694.75 1052.57 694.75 1052.57 694.75 1052.57 697.101 1050.87 697.112 1050.94 697.112 1050.94 697.594 1052.38 699.474 1038.59 699.477 1038.59 699.477 1038.59 700.064 1038.53 701.836 1043.27 701.839 1043.27 701.839 1043.27 704.201 1053.94 704.201 1053.94 704.201 1053.94 706.563 1054.02 706.566 1054.02 706.566 1054.02 706.85 1057.72 708.928 1056 708.928 1056 710.613 1000.45 711.291 1009.99 711.291 1009.99 713.653 1049.52 713.656 1049.52 713.656 1049.52 714.297 1049.54 715.312 1040.16 716.018 1040.64 716.018 1040.64 717.226 1039.91 718.38 1040.1 718.38 1040.1 719.148 1039.65 720.742 1041.28 720.745 1041.28 720.745 1041.28 723.067 1042.82 723.107 1042.76 723.107 1042.75 723.745 1042.31 725.333 1049.15 725.469 1048.97 725.469 1048.97 727.276 1049.73 727.735 1047.57 727.834 1048.09 727.834 1048.09 728.002 1057.72 730.196 1057.67 730.196 1057.67 730.208 1057.72 732.558 1057.72 732.558 1057.72 734.923 1057.72 734.923 1057.72 737.098 1057.5 737.286 1057.72 737.286 1057.72 739.648 1040.87 739.648 1040.87 739.648 1040.87 740.408 1044.01 742.013 1042.26 742.013 1042.26 743.286 1041.38 744.375 1047.78 744.375 1047.78 744.375 1047.78 746.366 1048.22 746.737 1048 746.737 1048 748.515 1047.88 749.102 1047.93 749.102 1047.93 750.216 1048.03 751.461 1028.24 751.464 1028.24 751.464 1028.24 753.319 1027.64 753.826 1027.68 753.826 1027.68 756.188 1027.88 756.191 1027.88 756.191 1027.88 757.674 1027.7 758.551 1032.52 758.553 1032.52 758.553 1032.52 758.956 1033.99 760.916 995.9 760.916 995.9 760.916 995.9 763.232 992.803 763.281 993.453 763.281 993.453 765.64 999.796 765.643 999.796 765.643 999.796 767.426 999.958 768.002 983.981 768.005 983.981 768.005 983.981 768.671 983.014 770.203 985.053 770.37 984.625 770.37 984.619 770.963 983.573 772.729 987.829 772.732 987.829 772.732 987.829 774.082 989.122 775.094 987.929 775.094 987.929 777.459 986.179 777.459 986.179 777.884 985.853 778.018 1057.72 779.821 1057.72 779.821 1057.72 782.183 1057.72 782.183 1057.72 783.511 1057.71 784.548 1057.72 784.548 1057.72 786.911 1057.7 786.911 1057.7 786.911 1057.7 787.517 1057.72 789.273 1057.27 789.273 1057.27 789.273 1057.27 791.635 1051.76 791.638 1051.76 791.638 1051.76 791.74 1051.73 794 1053.86 794 1053.86 794 1053.86 794.238 1057.72 796.362 1057.66 796.362 1057.66 796.402 1057.68 797.326 1053.08 798.727 1054.5 798.727 1054.5 799.901 1054.41 801.086 1054.93 801.089 1054.93 801.089 1054.93 803.179 1055.94 803.451 1055.93 803.451 1055.93 805.813 1053.91 805.816 1053.91 805.816 1053.91 806.939 1055.42 808.176 1049.84 808.178 1049.84 808.178 1049.84 810.538 1049.75 810.541 1049.75 810.541 1049.75 812.897 1049.68 812.906 1049.7 812.906 1049.7 814.967 1052.42 815.268 1051.15 815.268 1051.15 817.627 998.302 817.63 998.302 817.63 998.302 817.871 998.299 819.944 999.005 819.995 998.954 819.995 998.951 820.378 999.311 822.354 977.848 822.357 977.848 822.357 977.848 824.719 970.044 824.719 970.044 824.847 970.044 827.084 971.742 827.084 971.742 828.261 971.754 829.248 937.918 829.446 937.929 829.446 937.929 831.017 938.014 831.599 937.62 831.808 937.961 831.808 937.961 832.897 938.202 834.171 856.207 834.173 856.207 834.173 856.207 834.437 856.079 836.536 865.553 836.536 865.553 836.536 865.553 837.758 865.613 838.898 864.042 838.898 864.042 838.898 864.042 841.26 816.467 841.263 816.467 841.263 816.467 843.625 815.622 843.625 815.622 843.625 815.622 845.114 815.22 845.987 819.592 845.987 819.592 845.987 819.592 848.349 838.158 848.352 838.158 848.352 838.158 850.711 838.478 850.714 838.478 850.714 838.478 852.294 845.17 853.076 844.195 853.076 844.195 854.108 843.877 855.441 843.934 855.441 843.934 857.707 844.183 857.803 844.161 857.803 844.161 858.909 844.098 859.834 849.285 860.166 848.973 860.166 848.973 861.433 848.817 862.431 876.136 862.531 875.898 862.531 875.898 864.89 885.823 864.893 885.823 864.893 885.823 865.457 885.812 867.252 886.118 867.255 886.118 867.255 886.118 869.617 886.663 869.62 886.663 869.62 886.663 870.394 886.714 871.982 877.622 871.982 877.622 873.559 877.56 874.344 880.75 874.344 880.75 876.709 885.083 876.709 885.083 876.709 885.083 878.124 887.474 879.071 886.904 879.071 886.904 880.483 887.839 881.433 886.342 881.433 886.342 881.433 886.342 882.157 885.386 883.796 911.58 883.798 911.58 883.798 911.58 884.848 911.554 886.161 921.434 886.161 921.434 886.161 921.434 888.282 921.627 888.523 919.537 888.523 919.537 888.523 919.537 890.017 910.239 890.888 910.267 890.888 910.267 891.058 910.27 893.122 909.292 893.25 909.391 893.25 909.391 895.377 910.522 895.612 909.555 895.612 909.555 897.974 892.028 897.977 892.028 897.977 892.028 898.652 884.425 900.336 893.882 900.339 893.882 900.339 893.882 902.701 894.852 902.701 894.852 902.701 894.852 905.063 904.326 905.066 904.326 905.066 904.326 905.874 904.76 907.426 891.435 907.428 891.435 907.428 891.435 909.402 890.281 909.791 890.944 909.791 890.944 912.153 897.047 912.156 897.047 912.156 897.047 912.686 897.067 914.175 880.554 914.518 881.232 914.518 881.235 916.877 882.196 916.88 882.196 916.88 882.196 919.18 885.851 919.245 885.849 919.245 885.849 920.742 885.82 921.607 887.062 921.607 887.062 923.184 887.896 923.969 867.184 923.969 867.184 923.969 867.184 925.067 866.316 926.09 964.792 926.334 964.775 926.334 964.775 927.718 963.848 928.696 981.639 928.696 981.639 928.696 981.639 931.058 985.93 931.058 985.93 931.058 985.93 931.714 987.311 933.423 987.089 933.423 987.089 935.289 986.395 935.786 987.251 935.786 987.251 935.786 987.251 938.148 987.495 938.148 987.495 938.148 987.495 938.485 987.495 940.51 974.649 940.513 974.649 940.513 974.649 940.924 975.806 942.875 958.123 942.875 958.123 942.875 958.123 942.926 958.123 945.237 967.534 945.237 967.534 945.237 967.534 947.599 968.955 947.602 968.955 947.602 968.955 948.172 968.955 949.329 948.943 949.964 949.666 949.964 949.666 950.931 949.698 952.326 949.088 952.326 949.088 952.326 949.088 952.973 948.992 954.688 949.335 954.691 949.335 954.691 949.335 956.563 949.425 957.028 935.44 957.053 938.806 957.053 938.806 957.794 942.554 959.254 930.006 959.416 930.131 959.416 930.131 961.778 931.617 961.781 931.617 961.781 931.617 963.689 933.582 964.143 932.252 964.143 932.249 964.163 932.227 965.691 958.31 966.505 956.027 966.505 956.016 968.541 955.84 968.87 957.74 968.87 957.74 971.087 959.716 971.232 959.713 971.232 959.713 972.604 953.945 973.594 957.048 973.594 957.048 974.632 957.311 975.956 956.166 975.959 956.166 975.959 956.166 976.926 955.151 978.321 955.414 978.321 955.414 980.683 955.576 980.683 955.576 980.683 955.576 980.958 955.565 982.385 956.758 983.048 956.58 983.048 956.58 983.329 956.566 985.411 957.314 985.411 957.314 985.411 957.314 986.862 956.98 987.773 957.507 987.773 957.507 987.773 957.507 990.135 958.301 990.138 958.301 990.138 958.301 992.497 975.846 992.5 975.846 992.5 975.846 994.332 977.02 994.862 976.742 994.862 976.742 994.987 976.722 996.127 983.593 997.227 983.329 997.227 983.329 999.586 982.564 999.589 982.564 999.589 982.564 1000.52 982.561 1001.95 987.892 1001.95 987.892 1001.95 987.892 1003.41 988.201 1004.31 987.05 1004.32 987.05 1004.32 987.05 1006.68 982.504 1006.68 982.504 1006.68 982.504 1008.17 982.467 1009.04 986.862 1009.04 986.862 1009.04 986.862 1011.14 987.815 1011.41 987.79 1011.41 987.79 1012.29 985.073 1013.76 998.849 1013.77 998.849 1013.77 998.849 1013.82 998.852 1016.13 996.524 1016.13 996.524 1016.29 996.339 1018.49 1002.87 1018.49 1002.87 1020.04 1004.7 1020.86 988.073 1020.86 988.073 1020.86 988.073 1023.22 987.274 1023.22 987.274 1023.22 987.274 1023.59 987.118 1025.58 989.332 1025.58 989.332 1025.58 989.332 1027.95 992.341 1027.95 992.341 1027.95 992.341 1030.16 994.082 1030.31 993.966 1030.31 993.966 1031.24 996.147 1032.67 988.499 1032.67 988.499 1032.67 988.499 1033.74 988.459 1035.04 988.862 1035.04 988.862 1035.04 988.862 1035.16 988.862 1037.4 990.92 1037.4 990.92 1037.4 990.92 1038.65 994.624 1039.76 976.458 1039.76 976.458 1039.76 976.458 1042.12 975.568 1042.12 975.568 1042.12 975.568 1043 975.565 1044.49 986.67 1044.49 986.67 1044.49 986.67 1046.41 989.324 1046.85 987.688 1046.85 987.688 1047.39 977.601 1049.21 978.647 1049.21 978.647 1050.54 978.749 1051.57 971.439 1051.58 971.439 1051.58 971.439 1053.71 970.506 1053.94 970.506 1053.94 970.506 1055.86 973.146 1056.3 973.112 1056.3 973.112 1058.21 974.459 1058.66 972.04 1058.67 972.04 1058.67 972.034 1060.61 959.64 1061.03 960.502 1061.03 960.505 1063.39 987.007 1063.39 987.007 1063.53 987.007 1065.75 984.384 1065.75 984.384 1067.98 984.336 1068.12 984.441 1068.12 984.441 1068.12 984.441 1070.06 982.144 1070.48 1022.43 1070.48 1022.43 1070.48 1022.43 1071.48 1023.11 1072.84 1023.11 1072.84 1023.11 1074.8 1022.89 1075.21 1023.96 1075.21 1023.96 1075.21 1023.96 1077.57 1028.4 1077.57 1028.4 1077.57 1028.4 1079.93 1029.21 1079.93 1029.21 1079.93 1029.21 1080.8 1057.72 1082.3 1057.72 1082.3 1057.72 1084.66 1057.72 1084.66 1057.72 1086.67 1057.72 1087.02 1057.72 1087.02 1057.72 1087.77 1046.01 1089.39 1054.25 1089.39 1054.25 1091.34 1016.21 1091.56 1057.72 1091.75 1057.72 1091.75 1057.72 1094.11 1057.72 1094.11 1057.72 1096.02 1056.34 1096.48 1057.72 1096.48 1057.72 1098.84 1056.46 1098.84 1056.46 1098.84 1056.46 1101.03 1056.19 1101.2 1057.1 1101.2 1057.1 1101.2 1057.1 1101.44 1057.72 1103.56 1057.05 1103.57 1057.05 1103.57 1057.05 1103.88 1057.03 1105.57 1057.06 1105.93 1057.06 1105.93 1057.06 1108.29 1044.61 1108.29 1044.61 1108.29 1044.61 1110.19 1044.12 1110.65 1045.24 1110.66 1045.24 1110.66 1045.24 1112.64 1057.72 1113.02 1057.72 1113.02 1057.72 1114.71 1056.22 1115.38 1057.72 1115.38 1057.72 1117.74 1057.72 1117.74 1057.72 1120.11 1056.34 1120.11 1056.34 1120.11 1056.34 1120.68 1056.33 1122.47 1056.75 1122.47 1056.75 1122.47 1056.75 1122.86 1057.72 1124.83 1057.72 1124.83 1057.72 1126.84 1057.55 1127.2 1057.72 1127.2 1057.72 1129.56 1053.87 1129.56 1053.87 1129.56 1053.87 1131.92 1036.33 1131.92 1036.33 1131.92 1036.33 1133.01 1037.07 1134.29 1035.24 1134.29 1035.24 1134.29 1035.24 1135.39 1028.98 1136.65 1030.14 1136.65 1030.14 1138.73 1029.7 1139.01 1031.72 1139.01 1031.72 1139.01 1031.72 1141.37 1035.23 1141.37 1035.23 1141.37 1035.23 1142.84 1035.74 1143.74 1033.35 1143.74 1033.35 1143.74 1033.35 1144.66 1017.17 1146.1 1023.36 1146.1 1023.36 1148.46 1036.31 1148.46 1036.31 1148.46 1036.31 1149.45 1037.87 1150.83 1036.61 1150.83 1036.61 1151.06 1036.6 1153.19 1043.82 1153.19 1043.82 1153.19 1043.82 1153.53 1043.86 1155 1043.59 1155.55 1043.68 1155.55 1043.68 1157.83 1057.72 1157.92 1057.72 1157.92 1057.72 1160.28 1057.53 1160.28 1057.53 1160.75 1057.42 1160.76 1057.72 1162.64 1057.72 1162.64 1057.72 1165 1057.72 1165 1057.72 1166.28 1042.25 1167.37 1055.08 1167.37 1055.08 1167.58 1057.72 1169.73 1039.98 1169.73 1039.98 1169.73 1039.98 1170.14 1039.9 1171.59 1045.04 1172.09 1044.84 1172.09 1044.84 1174.46 1037.86 1174.46 1037.86 1174.46 1037.86 1175.96 1037.24 1176.82 1037.3 1176.82 1037.3 1179.18 1039.53 1179.18 1039.53 1179.18 1039.53 1181.55 1047.6 1181.55 1047.6 1181.55 1047.6 1183.91 1048.35 1183.91 1048.35 1183.91 1048.35 1184.45 1048.35 1186.27 1047.18 1186.27 1047.18 1186.27 1047.18 1187.48 1046.99 1188.14 1048.43 1188.64 1047.37 1188.64 1047.37 1190.77 1046.24 1191 1046.4 1191 1046.4 1191.76 1046.54 1193.36 1046.51 1193.36 1046.51 1194.53 1046.19 1195.69 1057.72 1195.73 1057.72 1195.73 1057.72 1198.09 1057.3 1198.09 1057.3 1198.09 1057.3 1200.45 1055.18 1200.45 1055.18 1200.45 1055.18 1200.48 1055.17 1201.84 1057.72 1202.82 1057.72 1202.82 1057.72 1204.88 1051.28 1205.18 1055.74 1205.18 1055.77 1205.52 1057.72 1207.54 1057.7 1207.54 1057.7 1207.9 1057.69 1207.9 1057.72 1209.91 1057.72 1209.91 1057.72 1211.32 1054.5 1212.27 1055.21 1212.27 1055.21 1214.63 1056.06 1214.63 1056.06 1214.63 1056.06 1216.17 1056.84 1216.99 1023.28 1216.99 1023.28 1216.99 1023.28 1217.29 1023.12 1219.36 1029.13 1219.36 1029.13 1219.36 1029.13 1221.72 1030.69 1221.72 1030.69 1221.72 1030.69 1224.08 1032.19 1224.08 1032.19 1224.08 1032.19 1225.98 1039.33 1226.45 1039.07 1226.45 1039.07 1227.8 1038.22 1228.81 1038.34 1228.81 1038.34 1229.2 1037.55 1231.17 1053.66 1231.17 1053.66 1231.17 1053.66 1232.33 1053.76 1233.53 1033.35 1233.54 1033.35 1233.54 1033.35 1235.05 1031.21 1235.9 1032.53 1235.9 1032.53 1238.26 1032.63 1238.26 1032.63 1238.26 1032.63 1240.22 1032.52 1240.62 1039.07 1240.62 1039.07 1240.62 1039.07 1242.98 1047.07 1242.99 1047.07 1242.99 1047.07 1245.35 1048.68 1245.35 1048.68 1245.35 1048.68 1247.19 1047.62 1247.19 1057.72 1247.71 1057.72 1247.71 1057.72 1250.07 1057.4 1250.08 1057.4 1250.08 1057.4 1252.44 1056.54 1252.44 1056.54 1252.44 1056.54 1253.96 1053.62 1254.23 1057.2 1254.8 1054.36 1254.8 1054.36 1255.17 1048.69 1257.17 1049.27 1257.17 1049.27 1259.53 1049.38 1259.53 1049.38 1259.57 1049.38 1261.44 1018.24 1261.89 1020.06 1261.89 1020.06 1262.82 1024.19 1264.25 1012.2 1264.25 1012.2 1264.25 1012.2 1265.28 1001.5 1266.62 1002.66 1266.62 1002.66 1267.37 1002.94 1268.98 994.547 1268.98 994.547 1268.98 994.547 1269.75 994.108 1271.34 997.437 1271.34 997.437 1271.34 997.437 1272.83 980.281 1273.71 981.744 1273.71 981.744 1275.04 981.055 1276.07 988.198 1276.07 988.198 1276.07 988.198 1278.43 994.559 1278.43 994.559 1278.43 994.559 1280.61 998.015 1280.8 997.993 1280.8 997.993 1280.82 997.99 1282.28 1011.4 1283.16 1008.01 1283.16 1008.01 1285.52 992.73 1285.52 992.73 1285.52 992.73 1286.07 992.695 1287.88 992.866 1287.89 992.866 1287.89 992.866 1288.67 992.869 1290.25 990.594 1290.25 990.594 1290.25 990.594 1290.65 990.325 1291.95 992.548 1292.61 992.318 1292.61 992.318 1292.88 992.29 1294.38 993.736 1294.98 993.731 1294.98 993.731 1296.65 1001.61 1297.34 974.473 1297.34 974.473 1297.34 974.473 1299.7 878.272 1299.7 878.272 1299.7 878.269 1300.04 878.011 1302.06 890.703 1302.07 890.703 1302.07 890.706 1304.43 891.044 1304.43 891.044 1306.39 890.468 1306.79 892.904 1306.79 892.904 1308.76 899.67 1309.16 889.827 1309.16 889.827 1309.16 889.827 1311.52 887.536 1311.52 887.536 1311.52 887.536 1311.95 875.756 1313.88 946.479 1313.88 946.479 1313.88 946.479 1314.94 951.297" stroke="#FF5050" stroke-width="9.45229" stroke-linejoin="round" stroke-miterlimit="10" fill="none" fill-rule="evenodd" transform="matrix(1 0 0 1.00084 497 894)"/><text font-family="Arial,Arial_MSFontService,sans-serif" font-weight="400" font-size="19" transform="matrix(2.83571 0 0 2.83809 919.167 1030)">E</text><text font-family="Arial,Arial_MSFontService,sans-serif" font-weight="400" font-size="19" transform="matrix(2.83571 0 0 2.83809 956.031 1030)">:</text><text font-family="Arial,Arial_MSFontService,sans-serif" font-weight="400" font-size="19" transform="matrix(2.83571 0 0 2.83809 970.21 1030)">RS</text><text font-family="Arial,Arial_MSFontService,sans-serif" font-weight="400" font-size="19" transform="matrix(2.83571 0 0 2.83809 1046.77 1030)">, </text><text font-family="Arial,Arial_MSFontService,sans-serif" font-weight="400" font-size="19" transform="matrix(2.83571 0 0 2.83809 1075.13 1030)">I</text><text font-family="Arial,Arial_MSFontService,sans-serif" font-weight="400" font-size="19" transform="matrix(2.83571 0 0 2.83809 1092.15 1030)">:</text><text font-family="Arial,Arial_MSFontService,sans-serif" font-weight="400" font-size="19" transform="matrix(2.83571 0 0 2.83809 1106.32 1030)">FS</text><path d="M300.554 116.264 413.682 116.264" stroke="#6699FF" stroke-width="9.45229" stroke-linejoin="round" stroke-miterlimit="10" fill="none" transform="matrix(1 0 0 1.00084 497 894)"/><text font-family="Arial,Arial_MSFontService,sans-serif" font-weight="400" font-size="19" transform="matrix(2.83571 0 0 2.83809 1315.11 1030)">E</text><text font-family="Arial,Arial_MSFontService,sans-serif" font-weight="400" font-size="19" transform="matrix(2.83571 0 0 2.83809 1351.98 1030)">:</text><text font-family="Arial,Arial_MSFontService,sans-serif" font-weight="400" font-size="19" transform="matrix(2.83571 0 0 2.83809 1366.16 1030)">0</text><text font-family="Arial,Arial_MSFontService,sans-serif" font-weight="400" font-size="19" transform="matrix(2.83571 0 0 2.83809 1397.35 1030)">.</text><text font-family="Arial,Arial_MSFontService,sans-serif" font-weight="400" font-size="19" transform="matrix(2.83571 0 0 2.83809 1411.53 1030)">8</text><text font-family="Arial,Arial_MSFontService,sans-serif" font-weight="400" font-size="19" transform="matrix(2.83571 0 0 2.83809 1442.72 1030)">*</text><text font-family="Arial,Arial_MSFontService,sans-serif" font-weight="400" font-size="19" transform="matrix(2.83571 0 0 2.83809 1462.57 1030)">RS</text><text font-family="Arial,Arial_MSFontService,sans-serif" font-weight="400" font-size="19" transform="matrix(2.83571 0 0 2.83809 1539.14 1030)">/</text><text font-family="Arial,Arial_MSFontService,sans-serif" font-weight="400" font-size="19" transform="matrix(2.83571 0 0 2.83809 1553.31 1030)">0</text><text font-family="Arial,Arial_MSFontService,sans-serif" font-weight="400" font-size="19" transform="matrix(2.83571 0 0 2.83809 1584.51 1030)">.</text><text font-family="Arial,Arial_MSFontService,sans-serif" font-weight="400" font-size="19" transform="matrix(2.83571 0 0 2.83809 1598.69 1030)">2</text><text font-family="Arial,Arial_MSFontService,sans-serif" font-weight="400" font-size="19" transform="matrix(2.83571 0 0 2.83809 1629.88 1030)">*</text><text font-family="Arial,Arial_MSFontService,sans-serif" font-weight="400" font-size="19" transform="matrix(2.83571 0 0 2.83809 1649.73 1030)">BU</text><text font-family="Arial,Arial_MSFontService,sans-serif" font-weight="400" font-size="19" transform="matrix(2.83571 0 0 2.83809 1723.46 1030)">, </text><text font-family="Arial,Arial_MSFontService,sans-serif" font-weight="400" font-size="19" transform="matrix(2.83571 0 0 2.83809 1751.81 1030)">I</text><text font-family="Arial,Arial_MSFontService,sans-serif" font-weight="400" font-size="19" transform="matrix(2.83571 0 0 2.83809 1768.83 1030)">:</text><text font-family="Arial,Arial_MSFontService,sans-serif" font-weight="400" font-size="19" transform="matrix(2.83571 0 0 2.83809 1783.01 1030)">FS</text><path d="M696.502 116.264 809.63 116.264" stroke="#FF5050" stroke-width="9.45229" stroke-linejoin="round" stroke-miterlimit="10" fill="none" transform="matrix(1 0 0 1.00084 497 894)"/></g></g></g></g></svg>