<svg width="1667" height="1374" xmlns="http://www.w3.org/2000/svg" xmlns:xlink="http://www.w3.org/1999/xlink" xml:space="preserve" overflow="hidden"><defs><clipPath id="clip0"><rect x="2428" y="873" width="1667" height="1374"/></clipPath></defs><g clip-path="url(#clip0)" transform="translate(-2428 -873)"><rect x="2428" y="873" width="1589" height="1346" fill="#FFFFFF"/><text fill="#C00000" font-family="Derailed,Derailed_MSFontService,sans-serif" font-weight="700" font-size="83" transform="matrix(1 0 0 1 2776.43 2176)">pre</text><text fill="#C00000" font-family="Derailed,Derailed_MSFontService,sans-serif" font-weight="700" font-size="83" transform="matrix(1 0 0 1 2909.92 2176)">-</text><text fill="#C00000" font-family="Derailed,Derailed_MSFontService,sans-serif" font-weight="700" font-size="83" transform="matrix(1 0 0 1 2964.34 2176)">and post</text><text fill="#C00000" font-family="Derailed,Derailed_MSFontService,sans-serif" font-weight="700" font-size="83" transform="matrix(1 0 0 1 3309.81 2176)">-</text><text fill="#C00000" font-family="Derailed,Derailed_MSFontService,sans-serif" font-weight="700" font-size="83" transform="matrix(1 0 0 1 3364.24 2176)">BU neurons</text><g><g><g><g><path d="M0 0 1588 0 1588 1191 0 1191Z" fill="#FFFFFF" transform="matrix(1 0 0 1.00084 2507 894)"/></g><path d="M0 0 1588 0 1588 1191 0 1191Z" fill="#FFFFFF" transform="matrix(1 0 0 1.00084 2507 894)"/><path d="M207.007 1057.72 1437.71 1057.72 1437.71 209.843 207.007 209.843Z" fill="#FFFFFF" transform="matrix(1 0 0 1.00084 2507 894)"/><path d="M207.007 1057.72 1437.71 1057.72" stroke="#262626" stroke-width="5.67143" stroke-linecap="square" stroke-linejoin="round" stroke-miterlimit="10" fill="none" transform="matrix(1 0 0 1.00084 2507 894)"/><path d="M207.007 1057.72 207.007 1045.41" stroke="#262626" stroke-width="5.67143" stroke-linecap="square" stroke-linejoin="round" stroke-miterlimit="10" fill="none" transform="matrix(1 0 0 1.00084 2507 894)"/><path d="M360.845 1057.72 360.845 1045.41" stroke="#262626" stroke-width="5.67143" stroke-linecap="square" stroke-linejoin="round" stroke-miterlimit="10" fill="none" transform="matrix(1 0 0 1.00084 2507 894)"/><path d="M514.682 1057.72 514.682 1045.41" stroke="#262626" stroke-width="5.67143" stroke-linecap="square" stroke-linejoin="round" stroke-miterlimit="10" fill="none" transform="matrix(1 0 0 1.00084 2507 894)"/><path d="M668.52 1057.72 668.52 1045.41" stroke="#262626" stroke-width="5.67143" stroke-linecap="square" stroke-linejoin="round" stroke-miterlimit="10" fill="none" transform="matrix(1 0 0 1.00084 2507 894)"/><path d="M822.357 1057.72 822.357 1045.41" stroke="#262626" stroke-width="5.67143" stroke-linecap="square" stroke-linejoin="round" stroke-miterlimit="10" fill="none" transform="matrix(1 0 0 1.00084 2507 894)"/><path d="M976.195 1057.72 976.195 1045.41" stroke="#262626" stroke-width="5.67143" stroke-linecap="square" stroke-linejoin="round" stroke-miterlimit="10" fill="none" transform="matrix(1 0 0 1.00084 2507 894)"/><path d="M1130.03 1057.72 1130.03 1045.41" stroke="#262626" stroke-width="5.67143" stroke-linecap="square" stroke-linejoin="round" stroke-miterlimit="10" fill="none" transform="matrix(1 0 0 1.00084 2507 894)"/><path d="M1283.87 1057.72 1283.87 1045.41" stroke="#262626" stroke-width="5.67143" stroke-linecap="square" stroke-linejoin="round" stroke-miterlimit="10" fill="none" transform="matrix(1 0 0 1.00084 2507 894)"/><path d="M1437.71 1057.72 1437.71 1045.41" stroke="#262626" stroke-width="5.67143" stroke-linecap="square" stroke-linejoin="round" stroke-miterlimit="10" fill="none" transform="matrix(1 0 0 1.00084 2507 894)"/><text fill="#262626" font-family="Arial,Arial_MSFontService,sans-serif" font-weight="400" font-size="16" transform="matrix(2.83571 0 0 2.83809 2701.25 2012)">0</text><text fill="#262626" font-family="Arial,Arial_MSFontService,sans-serif" font-weight="400" font-size="16" transform="matrix(2.83571 0 0 2.83809 2829.56 2012)">500</text><text fill="#262626" font-family="Arial,Arial_MSFontService,sans-serif" font-weight="400" font-size="16" transform="matrix(2.83571 0 0 2.83809 2970.64 2012)">1000</text><text fill="#262626" font-family="Arial,Arial_MSFontService,sans-serif" font-weight="400" font-size="16" transform="matrix(2.83571 0 0 2.83809 3124.48 2012)">1500</text><text fill="#262626" font-family="Arial,Arial_MSFontService,sans-serif" font-weight="400" font-size="16" transform="matrix(2.83571 0 0 2.83809 3278.31 2012)">2000</text><text fill="#262626" font-family="Arial,Arial_MSFontService,sans-serif" font-weight="400" font-size="16" transform="matrix(2.83571 0 0 2.83809 3432.15 2012)">2500</text><text fill="#262626" font-family="Arial,Arial_MSFontService,sans-serif" font-weight="400" font-size="16" transform="matrix(2.83571 0 0 2.83809 3585.99 2012)">3000</text><text fill="#262626" font-family="Arial,Arial_MSFontService,sans-serif" font-weight="400" font-size="16" transform="matrix(2.83571 0 0 2.83809 3739.83 2012)">3500</text><text fill="#262626" font-family="Arial,Arial_MSFontService,sans-serif" font-weight="400" font-size="16" transform="matrix(2.83571 0 0 2.83809 3893.66 2012)">4000</text><text fill="#262626" font-family="Arial,Arial_MSFontService,sans-serif" font-weight="700" font-size="18" transform="matrix(2.83571 0 0 2.83809 3232.94 2075)">Time </text><text fill="#262626" font-family="Arial,Arial_MSFontService,sans-serif" font-weight="700" font-size="18" transform="matrix(2.83571 0 0 2.83809 3371.89 2075)">(</text><text fill="#262626" font-family="Arial,Arial_MSFontService,sans-serif" font-weight="700" font-size="18" transform="matrix(2.83571 0 0 2.83809 3388.91 2075)">s</text><text fill="#262626" font-family="Arial,Arial_MSFontService,sans-serif" font-weight="700" font-size="18" transform="matrix(2.83571 0 0 2.83809 3417.26 2075)">)</text><path d="M207.007 1057.72 207.007 209.843" stroke="#262626" stroke-width="5.67143" stroke-linecap="square" stroke-linejoin="round" stroke-miterlimit="10" fill="none" transform="matrix(1 0 0 1.00084 2507 894)"/><path d="M207.007 1057.72 219.314 1057.72" stroke="#262626" stroke-width="5.67143" stroke-linecap="square" stroke-linejoin="round" stroke-miterlimit="10" fill="none" transform="matrix(1 0 0 1.00084 2507 894)"/><path d="M207.007 951.737 219.314 951.737" stroke="#262626" stroke-width="5.67143" stroke-linecap="square" stroke-linejoin="round" stroke-miterlimit="10" fill="none" transform="matrix(1 0 0 1.00084 2507 894)"/><path d="M207.007 845.752 219.314 845.752" stroke="#262626" stroke-width="5.67143" stroke-linecap="square" stroke-linejoin="round" stroke-miterlimit="10" fill="none" transform="matrix(1 0 0 1.00084 2507 894)"/><path d="M207.007 739.767 219.314 739.767" stroke="#262626" stroke-width="5.67143" stroke-linecap="square" stroke-linejoin="round" stroke-miterlimit="10" fill="none" transform="matrix(1 0 0 1.00084 2507 894)"/><path d="M207.007 633.782 219.314 633.782" stroke="#262626" stroke-width="5.67143" stroke-linecap="square" stroke-linejoin="round" stroke-miterlimit="10" fill="none" transform="matrix(1 0 0 1.00084 2507 894)"/><path d="M207.007 527.797 219.314 527.797" stroke="#262626" stroke-width="5.67143" stroke-linecap="square" stroke-linejoin="round" stroke-miterlimit="10" fill="none" transform="matrix(1 0 0 1.00084 2507 894)"/><path d="M207.007 421.813 219.314 421.813" stroke="#262626" stroke-width="5.67143" stroke-linecap="square" stroke-linejoin="round" stroke-miterlimit="10" fill="none" transform="matrix(1 0 0 1.00084 2507 894)"/><path d="M207.007 315.828 219.314 315.828" stroke="#262626" stroke-width="5.67143" stroke-linecap="square" stroke-linejoin="round" stroke-miterlimit="10" fill="none" transform="matrix(1 0 0 1.00084 2507 894)"/><path d="M207.007 209.843 219.314 209.843" stroke="#262626" stroke-width="5.67143" stroke-linecap="square" stroke-linejoin="round" stroke-miterlimit="10" fill="none" transform="matrix(1 0 0 1.00084 2507 894)"/><text fill="#262626" font-family="Arial,Arial_MSFontService,sans-serif" font-weight="400" font-size="16" transform="matrix(2.83571 0 0 2.83809 2671.85 1968)">0</text><text fill="#262626" font-family="Arial,Arial_MSFontService,sans-serif" font-weight="400" font-size="16" transform="matrix(2.83571 0 0 2.83809 2632.15 1862)">0</text><text fill="#262626" font-family="Arial,Arial_MSFontService,sans-serif" font-weight="400" font-size="16" transform="matrix(2.83571 0 0 2.83809 2657.67 1862)">.</text><text fill="#262626" font-family="Arial,Arial_MSFontService,sans-serif" font-weight="400" font-size="16" transform="matrix(2.83571 0 0 2.83809 2669.01 1862)">5</text><text fill="#262626" font-family="Arial,Arial_MSFontService,sans-serif" font-weight="400" font-size="16" transform="matrix(2.83571 0 0 2.83809 2671.85 1756)">1</text><text fill="#262626" font-family="Arial,Arial_MSFontService,sans-serif" font-weight="400" font-size="16" transform="matrix(2.83571 0 0 2.83809 2632.15 1650)">1</text><text fill="#262626" font-family="Arial,Arial_MSFontService,sans-serif" font-weight="400" font-size="16" transform="matrix(2.83571 0 0 2.83809 2657.67 1650)">.</text><text fill="#262626" font-family="Arial,Arial_MSFontService,sans-serif" font-weight="400" font-size="16" transform="matrix(2.83571 0 0 2.83809 2669.01 1650)">5</text><text fill="#262626" font-family="Arial,Arial_MSFontService,sans-serif" font-weight="400" font-size="16" transform="matrix(2.83571 0 0 2.83809 2671.85 1544)">2</text><text fill="#262626" font-family="Arial,Arial_MSFontService,sans-serif" font-weight="400" font-size="16" transform="matrix(2.83571 0 0 2.83809 2632.15 1438)">2</text><text fill="#262626" font-family="Arial,Arial_MSFontService,sans-serif" font-weight="400" font-size="16" transform="matrix(2.83571 0 0 2.83809 2657.67 1438)">.</text><text fill="#262626" font-family="Arial,Arial_MSFontService,sans-serif" font-weight="400" font-size="16" transform="matrix(2.83571 0 0 2.83809 2669.01 1438)">5</text><text fill="#262626" font-family="Arial,Arial_MSFontService,sans-serif" font-weight="400" font-size="16" transform="matrix(2.83571 0 0 2.83809 2671.85 1332)">3</text><text fill="#262626" font-family="Arial,Arial_MSFontService,sans-serif" font-weight="400" font-size="16" transform="matrix(2.83571 0 0 2.83809 2632.15 1226)">3</text><text fill="#262626" font-family="Arial,Arial_MSFontService,sans-serif" font-weight="400" font-size="16" transform="matrix(2.83571 0 0 2.83809 2657.67 1226)">.</text><text fill="#262626" font-family="Arial,Arial_MSFontService,sans-serif" font-weight="400" font-size="16" transform="matrix(2.83571 0 0 2.83809 2669.01 1226)">5</text><text fill="#262626" font-family="Arial,Arial_MSFontService,sans-serif" font-weight="400" font-size="16" transform="matrix(2.83571 0 0 2.83809 2671.85 1120)">4</text><text fill="#262626" font-family="Arial,Arial_MSFontService,sans-serif" font-weight="700" font-size="18" transform="matrix(1.73637e-16 -2.83809 2.83571 1.73783e-16 2609.46 1740)">Synaptic strength</text><path d="M207.007 1057.72 207.952 1057.46 207.952 1057.46 207.953 1057.46 209.804 1049.76 210.315 1051.64 210.316 1051.64 212.678 1055.49 212.679 1055.49 212.679 1055.49 214.336 1056.58 215.04 1051.51 215.042 1051.51 215.042 1051.51 216.173 1049.57 217.405 1049.59 217.405 1049.59 218.317 1049.26 219.766 1050.73 219.768 1050.73 219.768 1050.73 220.12 1051.26 222.129 1045.35 222.131 1045.35 222.131 1045.35 222.619 1044.49 224.492 1049.54 224.494 1049.54 224.494 1049.54 226.855 1049.91 226.857 1049.91 226.857 1049.91 227.194 1049.92 229.218 1036.43 229.22 1036.43 229.22 1036.43 231.581 1035.41 231.583 1035.41 231.584 1035.41 233.944 1034.3 233.946 1034.3 233.946 1034.3 235.15 1034.47 236.307 1033.84 236.309 1033.84 236.31 1033.84 238.67 1032.51 238.672 1032.51 238.673 1032.51 239.242 1032.49 240.251 1032.95 241.036 1032.78 241.036 1032.78 242.153 1032.78 243.396 1032.76 243.399 1032.76 243.399 1032.76 244.765 1032.51 245.35 1034.7 245.762 1034.46 245.762 1034.46 245.965 1034.41 248.125 1035.05 248.125 1035.05 250.488 1037.76 250.488 1037.76 250.488 1037.76 251.411 1037.85 252.851 1029.58 252.851 1029.58 252.851 1029.58 255.011 1029.5 255.214 1029.52 255.215 1029.52 255.367 1029.53 257.577 1027.81 257.577 1027.81 257.578 1027.81 259.112 1028.04 259.939 1027.14 259.941 1027.14 259.941 1027.14 261.296 1026.55 262.302 1027.54 262.303 1027.54 262.304 1027.54 264.665 1029.03 264.666 1029.03 264.667 1029.03 265.536 1028.28 267.028 1034.45 267.03 1034.45 267.03 1034.45 267.844 1034.9 269.393 1034.81 269.393 1034.81 270.419 1034.81 271.754 1034.84 271.756 1034.84 271.756 1034.84 274.117 1042.56 274.119 1042.56 274.119 1042.56 275.197 1047.35 276.48 1034.47 276.482 1034.47 276.482 1034.47 278.843 1018.44 278.845 1018.44 278.845 1018.44 281.206 1018.2 281.208 1018.2 281.208 1018.2 283.566 1017.92 283.571 1017.92 283.571 1017.92 284.964 1018.1 285.803 1002.36 285.934 1003.55 285.934 1003.55 287.374 1005.9 288.299 1005.65 288.299 1005.65 288.528 1005.65 290.658 1007.6 290.661 1007.6 290.661 1007.6 293.02 1012.45 293.023 1012.45 293.023 1012.46 294.316 1015.26 295.388 994.596 295.388 994.596 295.893 994.508 297.75 995.716 297.75 995.716 299.766 997.423 300.112 997.253 300.112 997.253 302.443 990.969 302.477 991.15 302.477 991.15 304.417 1008.29 304.839 1007.05 304.839 1007.05 306.368 1006.05 307.201 1010.8 307.201 1010.8 307.201 1010.8 307.845 1010.95 309.564 1010.18 309.566 1010.18 309.566 1010.18 311.929 1009.65 311.929 1009.65 311.929 1009.65 312.28 1009.64 314.254 1015.3 314.291 1015.12 314.291 1015.12 316.653 1008.23 316.656 1008.23 316.656 1008.23 318.53 1008.38 319.015 1006.97 319.018 1006.97 319.018 1006.97 320.351 1001.81 321.38 1002.08 321.38 1002.08 321.61 1001.95 322.324 1004.15 323.745 1003.26 323.745 1003.26 325.56 1009.18 326.104 994.774 326.107 994.774 326.107 994.774 328.466 993.317 328.469 993.317 328.469 993.317 328.832 993.424 329.601 981.438 330.834 982.368 330.834 982.368 330.902 982.357 333.194 988.059 333.196 988.059 333.196 988.059 335.556 990.909 335.559 990.909 335.559 990.909 337.439 990.906 337.921 991.343 337.924 991.343 337.924 991.343 340.283 991.644 340.286 991.644 340.286 991.644 342.648 1005.4 342.648 1005.4 343.039 1005.55 344.795 1004.1 345.013 1004.11 345.013 1004.11 346.025 1004.12 347.375 1003.43 347.375 1003.43 347.375 1003.43 349.34 1007.26 349.737 984.676 349.737 984.676 349.737 984.676 352.099 980.95 352.102 980.95 352.102 980.95 354.464 978.934 354.464 978.934 354.464 978.934 354.558 978.903 356.826 985.595 356.826 985.595 356.826 985.595 357.048 986.077 359.189 971.635 359.191 971.635 359.191 971.635 360.334 971.618 361.551 974.612 361.554 974.612 361.554 974.612 363.916 976.189 363.916 976.189 363.916 976.189 365.362 980.233 366.281 980.108 366.281 980.108 367.01 980.134 368.64 979.334 368.643 979.334 368.643 979.334 371.005 957.794 371.005 957.794 371.005 957.794 373.367 946.55 373.37 946.55 373.37 946.55 375.729 946.21 375.732 946.21 375.732 946.21 375.956 946.009 378.094 947.004 378.094 947.004 378.094 947.004 378.199 947.004 378.948 946.924 380.459 946.973 380.459 946.973 381.94 946.59 382.819 947.063 382.821 947.063 382.821 947.063 382.986 947.129 385.181 939.061 385.184 939.061 385.184 939.058 386.27 939.078 387.546 926.011 387.549 926.011 387.549 926.008 388.413 925.642 388.791 926.178 389.911 926.039 389.911 926.039 390.605 926.366 392.273 911.206 392.273 911.206 394.638 910.86 394.638 910.86 394.638 910.86 397 910.018 397 910.018 397 910.018 397.632 909.867 399.362 909.873 399.362 909.873 400.65 909.788 401.31 909.904 401.727 909.887 401.727 909.887 404.089 908.659 404.089 908.659 404.089 908.659 404.98 908.657 406.451 908.662 406.451 908.662 406.451 908.662 407.243 908.662 408 908.206 408.816 908.367 408.816 908.367 409.874 908.384 411.176 907.999 411.179 907.999 411.179 907.999 411.683 907.259 413.147 914.946 413.541 914.484 413.541 914.484 414.814 914.311 415.906 914.365 415.906 914.365 417.743 914.912 418.268 914.787 418.268 914.787 418.449 914.773 420.63 916.27 420.63 916.27 420.63 916.27 422.476 915.544 422.952 918.627 422.995 918.434 422.995 918.434 425.354 913.545 425.357 913.545 425.357 913.545 427.719 866.898 427.719 866.898 427.719 866.898 429.543 843.662 430.084 848.403 430.084 848.403 432.444 850.082 432.446 850.082 432.446 850.082 434.806 852.521 434.809 852.521 434.809 852.521 437.08 852.637 437.174 852.617 437.174 852.617 438.881 853.873 439.536 851.673 439.536 851.673 440.52 735.661 441.898 736.412 441.898 736.412 442.655 737.688 444.263 732.678 444.263 732.678 444.263 732.678 446.48 725.316 446.625 725.773 446.625 725.773 448.987 727.14 448.987 727.14 448.987 727.14 450.394 727.298 451.349 726.947 451.352 726.947 451.352 726.947 453.714 726.921 453.714 726.921 453.714 726.921 456.076 726.918 456.076 726.918 456.076 726.918 456.553 726.918 457.662 727.42 458.441 727.035 458.441 727.035 460.801 715.079 460.804 715.079 460.804 715.079 460.965 715.079 462.749 715.658 463.166 715.337 463.166 715.337 463.713 715.247 465.528 739.339 465.531 739.339 465.531 739.339 467.89 740.737 467.893 740.737 467.893 740.737 470.255 741.536 470.255 741.536 470.255 741.536 472.521 743.584 472.62 743.547 472.62 743.547 473.346 743.47 474.979 744.571 474.982 744.571 474.982 744.571 476.27 745.234 477.342 722.302 477.344 722.302 477.344 722.302 479.706 699.032 479.709 699.032 479.709 699.032 480.909 697.94 482.069 700.626 482.071 700.626 482.071 700.626 484.431 703.079 484.434 703.079 484.434 703.084 485.798 703.688 486.799 695.371 486.799 695.371 489.161 694.438 489.161 694.438 489.77 693.559 491.523 752.726 491.523 752.726 491.523 752.726 493.888 755.42 493.888 755.42 493.888 755.42 495.966 757.371 496.25 757.337 496.25 757.337 498.612 757.11 498.612 757.11 498.612 757.11 498.757 757.11 500.974 766.057 500.977 766.057 500.977 766.057 501.323 766.204 503.339 761.066 503.339 761.066 503.339 761.066 505.373 751.825 505.701 751.893 505.701 751.893 507.443 751.927 508.066 751.901 508.066 751.901 510.426 756.957 510.429 756.957 510.429 756.957 512.507 761.795 512.791 760.774 512.791 760.774 514.677 756.781 515.156 757.485 515.156 757.485 516.534 755.936 517.515 761.055 517.518 761.055 517.518 761.055 519.88 762.127 519.88 762.127 519.88 762.127 522.242 764.945 522.245 764.945 522.245 764.945 524.604 765.391 524.607 765.391 524.607 765.391 525.101 765.393 526.966 765.314 526.969 765.314 526.969 765.314 528.322 765.311 529.331 765.555 529.334 765.555 529.334 765.566 531.586 767.251 531.696 766.182 531.696 766.156 532.785 752.826 534.059 752.854 534.059 752.854 534.912 752.868 536.424 751.249 536.424 751.249 537.03 751.43 538.61 746.371 538.786 746.391 538.786 746.391 541.148 752.582 541.148 752.582 541.148 752.582 542.007 752.593 543.51 742.969 543.513 742.969 543.513 742.969 544.233 742.92 545.875 743.68 545.875 743.68 545.875 743.68 548.237 743.819 548.237 743.819 548.237 743.819 549.978 742.883 550.599 744.267 550.602 744.267 550.602 744.267 551.237 744.452 552.335 743.434 552.964 743.462 552.964 743.462 553.401 743.465 555.326 738.375 555.326 738.375 555.326 738.375 556.475 738.292 557.689 744.403 557.692 744.403 557.692 744.403 558.588 744.571 560.051 744.307 560.054 744.307 560.054 744.307 561.418 744.148 561.829 746.173 562.416 745.85 562.416 745.85 564.165 744.73 564.778 747.412 564.781 747.412 564.781 747.412 566.162 747.69 567.109 724.704 567.143 724.911 567.143 724.911 569.505 733.891 569.505 733.891 569.505 733.891 571.867 739.072 571.87 739.072 571.87 739.072 572.31 739.103 574.229 718.76 574.232 718.76 574.232 718.76 576.591 713.965 576.594 713.965 576.594 713.965 578.956 712.76 578.959 712.76 578.959 712.76 580.542 712.383 581.321 712.666 581.321 712.672 582.538 714.912 583.684 714.087 583.684 714.087 585.802 714.058 586.049 714.084 586.049 714.084 586.31 714.095 588.411 712.85 588.411 712.85 588.411 712.85 589.5 712.683 590.773 713.015 590.773 713.015 590.773 713.015 591.459 712.836 593.135 716.032 593.138 716.032 593.138 716.032 595.5 716.319 595.5 716.319 595.5 716.319 595.872 716.341 597.862 703.036 597.862 703.036 597.862 703.036 600.224 702.996 600.227 702.996 600.227 702.996 600.429 702.993 602.303 704.519 602.589 704.511 602.589 704.511 603.222 704.505 604.951 704.862 604.951 704.862 604.951 704.862 605.306 704.865 607.314 703.549 607.317 703.549 607.317 703.549 607.747 703.595 609.676 703.541 609.679 703.541 609.679 703.541 610.529 703.541 612.041 704.684 612.041 704.684 612.041 704.684 613.345 706.277 614.403 703.161 614.406 703.161 614.406 703.161 616.765 693.86 616.768 693.86 616.768 693.86 618.503 686.22 619.13 686.787 619.13 686.787 621.305 687.102 621.495 687.057 621.495 687.057 621.546 687.048 623.854 687.383 623.857 687.383 623.857 687.383 626.217 687.805 626.219 687.805 626.219 687.805 626.497 687.808 627.79 666.45 628.584 670.726 628.584 670.732 630.754 671.08 630.946 671.009 630.946 671.009 633.309 664.938 633.309 664.938 634.939 666.937 635.674 662.965 635.674 662.965 635.674 662.965 638.036 657.205 638.036 657.205 638.036 657.205 639.176 657.217 640.398 656.201 640.398 656.201 640.398 656.201 642.76 655.643 642.763 655.643 642.763 655.643 645.125 653.936 645.125 653.936 645.125 653.936 647.487 649.807 647.487 649.807 647.487 649.807 648.777 649.458 649.849 654.914 649.852 654.914 649.852 654.914 651.505 655.175 652.211 654.894 652.214 654.894 652.214 654.894 654.576 654.837 654.576 654.837 654.576 654.837 656.587 654.611 656.939 655.155 656.942 655.155 656.942 655.155 659.301 656.031 659.304 656.031 659.304 656.031 659.84 656.057 661.209 655.892 661.666 655.898 661.666 655.898 664.028 659.156 664.031 659.156 664.031 659.156 665.12 660.923 665.894 641.246 666.393 641.416 666.393 641.416 668.755 642.885 668.755 642.885 668.755 642.885 670.632 647.771 671.12 645.891 671.12 645.891 673.479 638.416 673.482 638.416 673.482 638.416 673.987 638.413 674.574 638.455 675.844 638.438 675.844 638.438 676.655 638.438 678.209 638.45 678.209 638.45 678.521 638.359 680.571 642.25 680.571 642.25 682.168 640.137 682.934 644.481 682.934 644.481 685.299 647.657 685.299 647.657 685.299 647.657 687.493 648.865 687.661 648.752 687.661 648.752 687.749 648.715 690.023 654.508 690.023 654.508 690.023 654.508 691.824 655.555 692.388 655.504 692.388 655.504 693.165 655.495 694.75 657.71 694.75 657.71 694.75 657.71 697.112 657.747 697.112 657.747 697.112 657.747 697.211 657.747 699.474 636.434 699.477 636.434 699.477 636.434 701.596 635.659 701.839 635.98 701.839 635.98 703.753 638.756 704.201 638.436 704.201 638.436 706.402 638.336 706.564 638.901 706.567 638.901 706.567 638.901 708.926 640.041 708.929 640.041 708.929 640.041 711.291 640.324 711.291 640.324 711.291 640.324 711.35 640.324 713.653 633.283 713.656 633.283 713.656 633.283 716.015 633.26 716.018 633.26 716.018 633.26 718.114 632.776 718.377 633.992 718.38 633.992 718.38 633.992 718.624 634.483 720.133 548.569 720.745 548.889 720.745 548.889 720.765 548.887 723.104 573.929 723.107 573.929 723.107 573.929 723.873 573.946 725.421 573.866 725.469 573.886 725.469 573.886 726.255 573.983 727.834 565.115 727.834 565.115 730.197 551.714 730.197 551.714 731.682 552.173 732.559 523.257 732.559 523.257 732.559 523.257 733.917 522.472 734.924 522.673 734.924 522.673 737.286 522.71 737.286 522.71 737.286 522.71 739.648 522.741 739.648 522.741 739.648 522.741 742.01 524.604 742.013 524.604 742.013 524.604 744.375 540.059 744.375 540.059 744.375 540.059 746.737 542.024 746.737 542.024 746.737 542.024 749.099 546.7 749.102 546.7 749.102 546.7 751.461 549.666 751.464 549.666 751.464 549.666 752.936 553.486 753.827 544.486 753.827 544.486 753.827 544.486 755.451 542.554 756.191 543.978 756.191 543.978 756.243 543.981 758.551 543.402 758.554 543.402 758.554 543.402 759.906 543.399 760.916 543.831 760.916 543.831 760.916 543.831 761.837 543.93 763.278 543.609 763.281 543.609 763.281 543.609 765.374 543.607 765.64 543.677 765.643 543.677 765.643 543.677 768.002 543.805 768.005 543.805 768.005 543.805 768.646 543.811 770.367 533.778 770.37 533.778 770.37 533.778 771.808 533.758 772.729 535.284 772.732 535.284 772.732 535.284 774.485 535.462 774.944 534.943 775.094 534.989 775.094 534.989 777.459 536.84 777.459 536.84 779.822 536.883 779.822 536.883 779.822 536.883 780.011 536.883 782.184 536.857 782.184 536.857 782.184 536.857 783.857 536.84 784.546 537.408 784.549 537.408 784.549 537.408 785.57 537.476 786.911 537.374 786.911 537.374 786.911 537.374 788.59 533.903 789.273 539.072 789.273 539.072 789.273 539.072 790.197 539.103 791.283 538.979 791.638 538.979 791.638 538.979 791.788 538.979 794 538.993 794 538.993 794 538.993 796.362 538.996 796.362 538.996 796.362 538.996 796.918 538.996 798.724 525.001 798.727 525.001 798.727 525.001 801.086 520.68 801.089 520.68 801.089 520.68 803.452 504.539 803.452 504.539 803.452 504.539 804.756 504.4 805.814 511.072 805.816 511.072 805.816 511.072 806.866 511.841 808.179 511.742 808.179 511.742 810.149 512.357 810.538 511.586 810.541 511.586 810.541 511.586 810.64 511.574 811.531 514.651 812.906 514.26 812.906 514.26 814.84 514.257 815.098 517.061 815.268 516.503 815.268 516.503 817.398 505.775 817.63 508.126 817.63 508.146 819.992 510.145 819.995 510.145 819.995 510.145 822.354 510.695 822.357 510.695 822.357 510.695 823.477 510.692 823.741 510.834 824.719 510.809 824.719 510.809 825.428 510.797 827.084 511.01 827.084 511.01 828.187 511.013 829.447 510.95 829.447 510.95 829.447 510.95 829.551 510.95 831.809 511.189 831.809 511.189 831.809 511.189 832.622 511.537 834.171 508.353 834.174 508.353 834.174 508.353 836.536 482.831 836.536 482.831 836.536 482.831 838.044 482.803 838.898 484.831 838.898 484.831 838.898 484.831 840.166 485.783 841.26 459.539 841.263 459.539 841.263 459.539 841.529 459.437 843.625 460.231 843.625 460.231 843.625 460.231 845.224 462.973 845.987 462.942 845.987 462.942 847.717 461.986 848.349 486.2 848.352 486.2 848.352 486.2 848.684 485.392 850.712 496.23 850.714 496.23 850.714 496.23 852.43 496.105 853.077 497.648 853.077 497.648 853.077 497.648 853.666 497.835 855.439 488.974 855.441 488.974 855.441 488.974 856.408 488.829 857.801 490.011 857.804 490.011 857.804 490.011 860.163 490.048 860.166 490.048 860.166 490.048 860.71 490.054 862.528 489.813 862.531 489.813 862.531 489.813 863.055 489.807 864.89 490.349 864.893 490.349 864.893 490.349 865.539 490.377 866.555 489.632 867.255 489.708 867.255 489.708 869.617 489.719 869.62 489.719 869.62 489.719 871.982 489.898 871.982 489.898 874.344 494.515 874.344 494.515 876.386 494.79 876.709 494.248 876.709 494.248 876.709 494.248 877.367 493.755 879.072 498.785 879.072 498.785 879.072 498.785 880.342 498.612 881.434 499.199 881.434 499.199 881.434 499.199 882.041 499.208 883.799 499.202 883.799 499.202 885.168 498.967 886.161 499.395 886.161 499.395 886.161 499.395 887.292 499.403 888.523 499.401 888.523 499.401 888.804 499.398 890.431 500.209 890.888 500.186 890.888 500.186 891.537 500.18 893.25 505.477 893.25 505.477 893.25 505.477 895.612 508.407 895.612 508.407 895.612 508.407 895.672 508.412 897.974 495.66 897.977 495.66 897.977 495.66 900.337 494.671 900.339 494.671 900.339 494.671 902.39 473.876 902.702 474.063 902.702 474.063 902.943 474.12 905.064 471.273 905.066 471.273 905.066 471.273 907.426 422.743 907.429 422.743 907.429 422.743 909.788 356.109 909.791 356.109 909.791 356.109 911.192 355.922 912.156 355.947 912.156 355.947 912.542 355.947 914.515 356.682 914.518 356.682 914.518 356.682 916.548 358.069 916.877 355.911 916.88 355.911 916.88 355.891 919.245 329.74 919.245 329.74 919.438 329.74 921.142 330.267 921.607 329.856 921.607 329.856 922.863 329.901 923.969 306.314 923.969 306.314 923.969 306.314 926.334 305.758 926.334 305.758 926.334 305.758 928.501 305.16 928.697 305.88 928.697 305.88 928.697 305.88 930.88 306.677 931.059 306.66 931.059 306.66 933.421 303.427 933.424 303.427 933.424 303.427 934.215 209.843 935.786 209.852 935.786 209.852 937.391 209.843 938.148 210.636 938.148 210.636 938.148 210.636 939.864 211.25 940.513 211.245 940.513 211.245 941.508 211.244 942.821 212.705 942.875 212.659 942.875 212.659 945.237 211.149 945.237 211.149 945.237 211.149 945.509 209.843 947.602 209.843 947.602 209.843 949.962 212.993 949.964 212.993 949.964 212.993 951.995 212.813 952.327 215.8 952.327 215.8 952.327 215.8 954.689 218.559 954.692 218.559 954.692 218.559 956.682 219.662 957.054 219.418 957.054 219.418 958.412 209.843 959.416 209.881 959.416 209.881 961.268 212.093 961.781 211.91 961.781 211.909 963.162 212.218 963.678 209.843 964.143 209.843 964.143 209.843 966.502 210.707 966.505 210.707 966.505 210.707 967.96 210.574 968.87 215.727 968.87 215.727 970.688 217.286 971.232 217.284 971.232 217.284 973.594 217.33 973.594 217.33 973.594 217.33 973.711 217.33 975.956 216.76 975.959 216.76 975.959 216.76 978.322 216.741 978.322 216.741 978.322 216.741 978.452 216.741 980.684 212.599 980.684 212.599 980.684 212.599 981.305 212.569 983.046 213.381 983.049 213.381 983.049 213.381 985.411 213.419 985.411 213.419 985.411 213.419 986.573 213.432 987.041 209.843 987.773 209.843 987.773 209.843 990.135 209.858 990.138 209.858 990.138 209.858 991.074 209.863 991.658 209.843 992.5 209.843 992.5 209.843 994.862 209.843 994.862 209.843 997.227 209.843 997.227 209.843 998.903 230.217 999.589 227.885 999.589 227.885 1001.95 223.913 1001.95 223.913 1001.95 223.913 1003.68 209.843 1004.32 212.653 1004.32 212.653 1005.95 215.424 1006.68 212.154 1006.68 212.154 1006.68 212.154 1006.86 209.843 1009.04 209.843 1009.04 209.843 1011.41 209.843 1011.41 209.843 1013.77 210.38 1013.77 210.38 1013.77 210.389 1016.13 213.769 1016.13 213.769 1017.1 213.331 1017.85 229.632 1018.5 228.543 1018.5 228.543 1019.53 209.843 1020.86 209.855 1020.86 209.855 1021.38 211.45 1022.57 209.843 1023.22 209.843 1023.22 209.843 1024.25 210.097 1025.58 209.843 1025.58 209.843 1026.8 215.741 1027.95 214.172 1027.95 214.172 1030.31 212.7 1030.31 212.7 1030.31 212.7 1031.59 212.485 1032.67 214.244 1032.67 214.244 1032.67 214.244 1034.43 214.324 1035.04 214.324 1035.04 214.324 1036.98 215.101 1037.4 212.693 1037.4 212.693 1037.4 212.693 1037.53 209.843 1039.76 209.843 1039.76 209.843 1042.12 210.289 1042.13 210.289 1042.13 210.289 1043 210.294 1043.1 209.843 1044.49 209.843 1044.49 209.843 1046.85 212.541 1046.85 212.541 1046.85 212.541 1049.21 213.079 1049.21 213.079 1049.21 213.079 1051.57 213.388 1051.58 213.388 1051.58 213.388 1051.87 213.389 1053.94 212.82 1053.94 212.82 1053.94 212.82 1054.86 209.843 1056.3 209.843 1056.3 209.843 1058.66 214.258 1058.67 214.258 1058.67 214.258 1059.43 214.258 1061.03 215.259 1061.03 215.259 1061.03 215.263 1061.15 215.38 1061.73 209.843 1063.39 210.062 1063.39 210.062 1065.76 211.115 1065.76 211.115 1066.83 211.118 1067.99 209.843 1068.12 209.843 1068.12 209.843 1070.48 209.843 1070.48 209.843 1072.84 209.843 1072.84 209.843 1075.21 209.865 1075.21 209.865 1075.21 209.865 1076.8 209.902 1077.57 209.844 1077.57 209.844 1077.57 209.844 1077.66 209.843 1079.93 209.843 1079.93 209.843 1081.96 210.558 1082.3 210.554 1082.3 210.554 1082.48 210.565 1082.81 209.843 1084.66 209.843 1084.66 209.843 1086.03 210.298 1087.02 209.843 1087.02 209.843 1089.39 210.267 1089.39 210.267 1089.39 210.267 1090.87 210.291 1091.15 209.843 1091.75 209.843 1091.75 209.843 1094.11 212.894 1094.11 212.894 1094.11 212.894 1096.47 214.92 1096.48 214.92 1096.48 214.92 1097.23 214.989 1098.62 214.919 1098.84 214.919 1098.84 214.919 1099.42 214.919 1101.18 209.843 1101.2 209.843 1101.2 209.843 1103.56 209.971 1103.57 209.971 1103.57 209.971 1104.75 209.971 1104.78 209.843 1105.93 209.843 1105.93 209.843 1108.29 212.288 1108.29 212.288 1108.29 212.29 1109.51 212.501 1110.66 212.499 1110.66 212.499 1111.84 212.535 1112.19 209.843 1113.02 209.843 1113.02 209.843 1115.38 209.843 1115.38 209.843 1117.26 212.427 1117.75 212.417 1117.75 212.417 1118.8 214.885 1120.11 214.819 1120.11 214.819 1121.95 216.774 1122.37 209.843 1122.47 209.843 1122.47 209.843 1124.83 258.86 1124.83 258.86 1124.83 258.86 1125.19 259.159 1127.2 229.012 1127.2 229.012 1127.2 229.012 1129.56 217.84 1129.56 217.84 1129.56 217.84 1131.92 217.451 1131.92 217.451 1131.92 217.451 1132.82 216.641 1133.63 220.594 1134.29 220.335 1134.29 220.335 1136.65 220.295 1136.65 220.295 1136.65 220.295 1137.68 219.413 1138.64 221.229 1139.01 221.018 1139.01 221.018 1140.08 220.939 1141.37 223.284 1141.38 223.284 1141.38 223.284 1143.74 227.511 1143.74 227.511 1143.74 227.511 1144.85 227.911 1146.1 214.549 1146.1 214.549 1146.1 214.549 1147.28 214.449 1147.93 216.517 1148.46 215.928 1148.46 215.928 1149.97 214.996 1150.83 215.669 1150.83 215.669 1152.55 216.193 1153.19 216.133 1153.19 216.133 1154.32 209.843 1155.55 211.816 1155.55 211.824 1157.81 212.646 1157.92 212.646 1157.92 212.646 1157.96 212.645 1160.28 215.388 1160.28 215.388 1161.2 215.785 1161.82 209.843 1162.64 209.843 1162.64 209.843 1165.01 209.843 1165.01 209.843 1167.07 212.508 1167.37 212.27 1167.37 212.27 1168.06 212.143 1169.73 212.18 1169.73 212.18 1170.49 212.179 1172.09 216.638 1172.09 216.638 1172.09 216.638 1174.15 219.03 1174.46 219.026 1174.46 219.026 1174.54 219.025 1175.11 222.414 1176.82 221.77 1176.82 221.77 1177.22 221.769 1179.18 227.373 1179.18 227.373 1179.18 227.373 1181.55 227.628 1181.55 227.628 1181.55 227.628 1183.91 232.716 1183.91 232.716 1183.91 232.716 1184.93 233.023 1186.27 231.08 1186.27 231.08 1186.27 231.08 1187.51 230.952 1188.64 232.363 1188.64 232.363 1188.64 232.363 1191 234.08 1191 234.08 1191 234.08 1192.52 243.883 1193.36 237.039 1193.36 237.039 1195.72 221.001 1195.73 221.001 1195.73 221.001 1196.51 209.843 1198.09 210.179 1198.09 210.179 1200.45 214.191 1200.45 214.191 1200.45 214.191 1200.88 209.843 1202.81 215.398 1202.82 215.398 1202.82 215.403 1205.18 217.966 1205.18 217.966 1205.18 217.966 1207.54 221.816 1207.54 221.816 1209.91 223.789 1209.91 223.789 1212.27 225.138 1212.27 225.138 1212.27 225.138 1213.18 225.149 1214.39 225.034 1214.63 225.035 1214.63 225.035 1214.69 225.035 1216.79 209.843 1217 209.843 1217 209.843 1219.36 225.066 1219.36 225.066 1219.36 225.066 1221.1 227.702 1221.72 225.626 1221.72 225.626 1222.01 209.843 1224.08 214.263 1224.08 214.263 1226.45 220.213 1226.45 220.213 1226.45 220.213 1227.95 220.23 1228.81 220.176 1228.81 220.176 1228.81 220.176 1230.56 219.715 1231.17 221.599 1231.17 221.599 1231.17 221.599 1232.85 222.491 1233.54 222.407 1233.54 222.407 1235.9 225.027 1235.9 225.027 1235.9 225.027 1238.24 225.349 1238.26 225.346 1238.26 225.346 1238.76 225.155 1240.62 230.763 1240.63 230.763 1240.63 230.763 1242.04 230.79 1242.98 230.612 1242.99 230.612 1242.99 230.612 1245.35 224.327 1245.35 224.327 1245.35 224.327 1246.14 224.255 1247.71 224.258 1247.71 224.258 1247.85 224.258 1250.07 213.076 1250.08 213.076 1250.08 213.076 1250.47 213.074 1252.44 213.077 1252.44 213.077 1252.44 213.077 1252.88 213.077 1254.05 209.843 1254.8 209.843 1254.8 209.843 1257.17 209.843 1257.17 209.843 1259.21 209.847 1259.53 209.843 1259.53 209.843 1261.89 210.509 1261.89 210.509 1261.89 210.509 1263.25 210.499 1263.27 210.514 1264.26 210.501 1264.26 210.501 1265.57 210.607 1265.66 209.843 1266.62 209.843 1266.62 209.843 1268.23 209.843 1268.98 209.843 1268.98 209.843 1271.34 211.903 1271.34 211.903 1271.34 211.903 1273.71 211.907 1273.71 211.907 1273.71 211.907 1274.38 211.907 1276.07 211.873 1276.07 211.873 1276.07 211.873 1278.43 210.201 1278.43 210.201 1278.43 210.201 1279.4 209.843 1280.8 209.864 1280.8 209.864 1282.91 209.884 1283.08 209.843 1283.16 209.843 1283.16 209.843 1285.52 212.22 1285.52 212.22 1285.52 212.22 1287.85 213.174 1287.89 212.829 1287.89 212.829 1288.51 209.843 1290.25 209.843 1290.25 209.843 1292.61 210.719 1292.61 210.719 1292.61 210.719 1294.97 211.023 1294.98 211.023 1294.98 211.023 1296.96 211.093 1297.34 210.242 1297.34 210.242 1297.34 210.242 1299.7 209.889 1299.7 209.889 1299.7 209.889 1300.82 209.89 1302.06 209.868 1302.07 209.868 1302.07 209.868 1302.65 209.843 1304.43 226.057 1304.43 226.057 1305.99 226.346 1306.79 211.94 1306.79 211.94 1308.32 216.216 1308.93 209.843 1309.16 209.843 1309.16 209.843 1310.09 211.551 1311.52 210.219 1311.52 210.219 1311.75 211.09 1312.13 209.843 1313.88 209.843 1313.88 209.843 1314.94 209.843" stroke="#6699FF" stroke-width="9.45229" stroke-linejoin="round" stroke-miterlimit="10" fill="none" fill-rule="evenodd" transform="matrix(1 0 0 1.00084 2507 894)"/><path d="M207.007 1057.72 207.952 1057.47 207.952 1057.47 207.953 1057.47 209.699 1050.21 210.315 1054.11 210.316 1054.11 210.545 1057.72 212.679 1057.72 212.679 1057.72 215.04 1014.62 215.042 1014.62 215.042 1014.62 216.554 1010.46 217.403 1016.86 217.405 1016.86 217.405 1016.86 218.634 1018.46 219.768 1018.08 219.768 1018.08 222.129 1017.53 222.131 1017.53 222.131 1017.53 222.619 1016.65 224.492 1023.67 224.494 1023.67 224.494 1023.67 226.855 1032.77 226.857 1032.77 226.857 1032.77 228.338 1029.21 229.218 1056 229.22 1056 229.22 1056 229.489 1057.72 231.583 1057.56 231.584 1057.56 231.741 1057.47 231.76 1057.72 233.946 1057.72 233.946 1057.72 235.667 1057.48 236.309 1057.72 236.31 1057.72 238.67 1054.51 238.672 1054.51 238.673 1054.51 238.679 1054.51 238.934 1057.72 241.036 1057.25 241.036 1057.26 242.525 1057.51 243.396 1056.38 243.399 1056.38 243.399 1056.38 244.19 1056.33 244.793 1057.72 245.762 1057.72 245.762 1057.72 248.125 1013.48 248.125 1013.48 248.525 1012.3 250.488 1023.62 250.488 1023.62 250.488 1023.62 252.851 1028.31 252.851 1028.31 252.851 1028.31 255.214 1030.07 255.214 1030.07 255.215 1030.07 255.629 1030.08 257.577 1029.75 257.577 1029.75 257.578 1029.75 258.509 1028.97 259.939 1050.95 259.941 1050.95 259.941 1050.95 262.269 1051.07 262.303 1051.07 262.304 1051.07 264.665 1015.42 264.666 1015.42 264.667 1015.42 265.148 950.605 267.03 950.832 267.03 950.832 269.391 951.062 269.393 951.062 269.393 951.062 271.345 951.411 271.756 951.3 271.756 951.3 272.351 951.192 274.117 962.79 274.119 962.79 274.119 962.79 275.203 964.132 276.48 962.62 276.482 962.62 276.482 962.62 277.991 962.521 278.845 962.581 278.845 962.581 279.24 961.843 279.677 963.465 281.208 963.128 281.208 963.128 282.941 959.631 283.571 959.918 283.571 959.918 285.931 963.701 285.934 963.701 285.934 963.701 288.296 964.137 288.299 964.137 288.299 964.137 290.658 971.184 290.661 971.184 290.661 971.184 290.788 971.201 292.374 970.54 293.023 970.963 293.023 970.963 294.665 971.022 295.388 956.061 295.388 956.061 296.137 956.447 297.75 945.268 297.75 945.268 300.047 925.288 300.112 925.316 300.112 925.316 300.728 925.421 302.174 899.611 302.477 900.138 302.477 900.138 304.839 905.336 304.839 905.336 304.839 905.336 305.256 907.213 306.887 810.501 307.201 813.839 307.201 813.839 309.439 815.682 309.566 815.668 309.566 815.668 310.579 816.119 311.929 737.124 311.929 737.124 311.929 737.124 314.291 690.61 314.291 690.61 314.291 690.61 315.521 686.895 316.656 687.394 316.656 687.394 316.778 687.4 317.81 209.843 319.018 212.85 319.018 212.85 319.353 214.151 319.823 209.843 321.38 209.843 321.38 209.843 323.155 210.364 323.745 209.843 323.745 209.843 324.976 209.871 326.107 209.843 326.107 209.843 328.466 209.931 328.469 209.931 328.469 209.931 330.831 211.851 330.834 211.851 330.834 211.851 331.092 214.561 331.665 209.843 333.196 209.843 333.196 209.843 335.556 210.779 335.559 210.779 335.559 210.779 337.921 212.97 337.924 212.97 337.924 212.971 337.995 212.98 338.757 209.843 340.286 211.627 340.286 211.626 342.033 212.406 342.418 209.843 342.648 209.843 342.648 209.843 345.013 209.843 345.013 209.843 346.476 212.639 347.375 212.353 347.375 212.353 347.585 212.345 349.737 219.609 349.737 219.609 349.737 219.609 352.099 257.869 352.102 257.869 352.102 257.869 352.908 258.981 353.965 248.432 354.464 248.977 354.464 248.977 356.234 250.145 356.826 249.583 356.826 249.583 358.329 209.843 359.191 209.867 359.191 209.867 359.54 209.843 361.551 346.609 361.554 346.609 361.554 346.609 363.048 349.595 363.785 274.024 363.916 332.626 363.916 332.626 365.94 364.168 366.281 364.106 366.281 364.106 368.036 361.497 368.64 387.061 368.643 387.061 368.643 387.061 370.583 392.99 371.005 390.248 371.005 390.248 371.436 363.011 373.367 395.849 373.37 395.849 373.37 395.849 375.647 552.4 375.732 552.048 375.732 552.048 375.99 550.285 377.887 637.88 378.094 637.752 378.094 637.752 378.627 637.644 380.456 640.608 380.459 640.608 380.459 640.608 381.364 640.613 382.819 639.624 382.821 639.624 382.821 639.624 385.181 602.343 385.184 602.343 385.184 602.343 386.638 602.204 387.024 603.386 387.549 602.748 387.549 602.748 389.911 550.534 389.911 550.534 392.236 473.074 392.273 473.094 392.273 473.094 394.638 476.769 394.638 476.769 394.638 476.769 394.817 476.78 395.982 419.425 397 422.275 397 422.275 398.506 439 399.362 436.195 399.362 436.195 401.724 339.22 401.727 339.22 401.727 339.22 404.089 337.643 404.089 337.643 404.089 337.643 404.512 337.58 406.451 350.517 406.451 350.517 406.451 350.517 407.532 349.533 408.814 352.981 408.816 352.981 408.816 352.981 410.762 354.853 411.176 352.788 411.179 352.788 411.179 352.788 413.541 328.705 413.541 328.705 413.541 328.705 414.547 328.693 415.089 331.708 415.906 331.384 415.906 331.384 416.873 331.901 418.265 303.274 418.268 303.274 418.268 303.274 419.232 302.849 420.426 304.36 420.63 304.167 420.63 304.167 421.866 303.393 422.992 306.751 422.995 306.751 422.995 306.751 424.385 297.464 425.354 440.718 425.357 440.718 425.357 440.718 425.451 440.976 427.01 406.551 427.719 412.233 427.719 412.233 428.281 412.409 430.081 283.875 430.084 283.875 430.084 283.875 430.209 283.875 432.444 298.706 432.446 298.706 432.446 298.706 433.898 296.295 434.69 324.409 434.809 324.253 434.809 324.247 437.171 313.57 437.174 313.57 437.174 313.57 438.075 312.969 438.918 322.639 439.536 322.438 439.536 322.438 440.854 320.719 441.898 322.004 441.898 322.004 442.323 321.848 444.263 354.453 444.263 354.453 444.263 354.453 444.541 354.575 446.625 257.749 446.625 257.749 446.625 257.749 447.669 209.843 448.987 266.816 448.987 266.816 448.987 266.816 450.045 274.395 451.352 271.292 451.352 271.292 451.525 271.065 453.714 284.507 453.714 284.507 453.714 284.507 454.401 286.314 455.161 209.843 456.076 209.843 456.076 209.843 458.008 210.035 458.441 209.843 458.441 209.843 460.568 242 460.804 221.797 460.804 221.797 462.448 209.843 463.166 231.906 463.166 231.906 463.166 231.906 465.528 251.152 465.531 251.152 465.531 251.152 467.754 344.066 467.893 343.309 467.893 343.309 468.018 343.113 469.728 345.492 470.255 343.456 470.255 343.456 470.332 340.311 472.617 641.992 472.62 641.992 472.62 641.992 474.168 648.562 474.979 581.061 474.982 581.061 474.982 581.061 475.997 518.845 477.344 533.557 477.344 533.557 478.479 536.761 479.071 516.707 479.709 520.263 479.709 520.263 479.814 520.427 482.069 493.593 482.071 493.593 482.071 493.57 483.747 478.53 484.434 482.054 484.434 482.057 486.799 493.454 486.799 493.454 487.601 454.483 489.161 562.507 489.161 562.507 489.762 561.301 491.523 649.047 491.523 649.047 491.523 649.047 492.323 649.404 493.888 646.245 493.888 646.245 493.888 646.245 496.25 632.509 496.25 632.509 496.25 632.509 497.455 633.442 498.612 552.219 498.612 552.219 498.612 552.219 500.626 546.502 500.977 546.873 500.977 546.873 501.879 546.885 503.339 545.677 503.339 545.677 503.339 545.677 505.701 545.509 505.701 545.509 505.701 545.509 507.369 545.688 508.064 545.438 508.066 545.438 508.066 545.438 508.869 545.535 510.094 541.386 510.429 542.827 510.429 542.827 512.791 626.046 512.791 626.046 512.791 626.046 514.328 637.242 515.153 624.169 515.156 624.169 515.156 624.169 516.783 627.552 517.515 591.315 517.518 591.315 517.518 591.315 518.695 581.829 519.88 590.175 519.88 590.175 522.242 594.74 522.245 594.74 522.245 594.74 522.543 595.018 523.657 577.998 524.607 580.25 524.607 580.25 526.966 573.764 526.969 573.764 526.969 573.764 528.095 575.089 528.552 547.06 529.334 547.937 529.334 547.937 529.527 547.633 531.694 633.575 531.696 633.575 531.696 633.578 532.249 633.913 534.059 631.102 534.059 631.102 536.424 518.386 536.424 518.386 537.873 454.401 538.786 507.224 538.786 507.224 541.148 510.712 541.148 510.712 541.148 510.712 542.387 552.584 543.513 526.419 543.513 526.419 544.5 526.476 545.875 504.854 545.875 504.854 545.875 504.854 546.025 504.817 548.138 507.17 548.237 506.464 548.237 506.464 550.146 504.312 550.599 507.187 550.602 507.187 550.602 507.187 552.964 563.686 552.964 563.686 552.964 563.686 554.822 572.165 555.326 571.788 555.326 571.788 557.689 517.589 557.692 517.589 557.692 517.589 558.324 498.357 560.054 506.362 560.054 506.362 561.253 505.14 562.416 518.927 562.416 518.927 562.416 518.927 562.997 520.271 564.673 512.794 564.781 513.471 564.781 513.471 567.14 577.507 567.143 577.507 567.143 577.507 567.696 584.835 569.505 581.185 569.505 581.185 569.726 581.185 571.711 593.447 571.87 593.407 571.87 593.407 573.271 511.985 574.229 638.535 574.232 638.535 574.232 638.535 576.135 653.485 576.594 649.237 576.594 649.237 577.252 632.033 578.959 636.337 578.959 636.32 581.319 569.834 581.321 569.834 581.321 569.828 582.997 569.329 583.684 578.219 583.684 578.219 585.567 579.62 586.049 575.228 586.049 575.228 588.411 472.975 588.411 472.975 588.411 472.975 589.315 472.019 590.773 476.933 590.773 476.933 590.773 476.933 591.459 475.195 593.135 848.698 593.138 848.698 593.138 848.698 594.737 856.967 595.117 821.671 595.5 825.278 595.5 825.278 597.862 995.242 597.862 995.242 597.862 995.242 600.224 996.215 600.227 996.215 600.227 996.215 602.586 1007.19 602.589 1007.19 602.589 1007.19 604.909 1020.24 604.951 1019.68 604.951 1019.68 605.417 1016.62 605.436 1057.72 607.317 1057.72 607.317 1057.72 607.974 1057.11 609.012 1057.72 609.679 1057.72 609.679 1057.72 611.749 1056.12 612.041 1056.23 612.041 1056.23 612.988 1057.72 614.403 1049.4 614.406 1049.4 614.406 1049.4 616.765 777.36 616.768 777.36 616.768 777.36 617.278 773.302 618.571 782.986 619.13 782.68 619.13 782.68 619.935 783.088 621.492 609.662 621.495 609.662 621.495 609.662 622.198 610.898 623.486 593.206 623.857 593.538 623.857 593.538 626.217 607.634 626.219 607.634 626.219 608.161 627.581 613.271 628.581 596.768 628.584 596.768 628.584 596.765 630.561 582.115 630.946 586.434 630.946 586.434 633.309 600.256 633.309 600.256 635.674 615.083 635.674 615.083 635.674 615.083 636.694 615.01 638.036 626.117 638.036 626.117 638.036 626.117 638.135 626.188 639.266 531.161 640.398 538.394 640.398 538.394 642.638 537.737 642.76 539.438 642.763 539.438 642.763 539.438 644.634 544.934 645.125 531.696 645.125 531.696 645.125 531.696 646.001 531.464 647.487 535.434 647.487 535.434 647.487 535.434 648.128 538.255 648.763 209.843 649.852 209.843 649.852 209.843 651.639 210.017 652.214 209.843 652.214 209.843 654.576 211.675 654.576 211.675 654.576 211.675 654.922 212.235 655.904 209.843 656.942 209.843 656.942 209.843 659.284 226.094 659.304 226.09 659.304 226.09 659.454 226.064 661.666 236.146 661.666 236.146 661.666 236.146 661.765 236.431 662.236 209.843 664.031 212.769 664.031 212.769 664.944 209.843 666.39 213.569 666.393 213.569 666.393 213.569 667.215 217.29 668.446 209.843 668.755 209.843 668.755 209.843 669.75 210.029 671.12 209.843 671.12 209.843 672.671 211.281 673.482 210.883 673.482 210.883 674.072 219.78 674.753 209.843 675.844 210.455 675.844 210.461 676.619 211.265 676.701 209.843 678.209 209.843 678.209 209.843 680.571 216.345 680.571 216.345 682.934 236.502 682.934 236.502 683.492 245.982 683.889 209.843 685.299 209.843 685.299 209.843 687.661 210.443 687.661 210.443 687.661 210.443 690.023 317.855 690.023 317.855 690.023 317.855 690.726 331.362 691.906 209.843 692.388 209.843 692.388 209.843 694.75 209.901 694.75 209.901 694.75 209.901 695.224 209.843 697.112 223.307 697.112 223.307 697.112 223.307 699.474 230.212 699.477 230.212 699.477 230.212 701.309 229.682 701.836 231.479 701.839 231.479 701.839 231.479 702.455 234.534 703.297 209.843 704.201 210.523 704.201 210.523 704.99 209.843 706.564 264.887 706.567 264.887 706.567 264.887 707.681 265.687 708.926 263.207 708.929 263.207 708.929 263.207 709.879 259.477 710.551 273.508 711.291 272.884 711.291 272.884 713.653 275.586 713.656 275.586 713.656 275.586 715.919 360.538 716.018 349.468 716.018 349.468 716.619 347.863 718.19 350.687 718.38 350.531 718.38 350.531 719.39 209.843 720.745 213.231 720.745 213.231 722.089 211.426 723.104 275.791 723.107 275.791 723.107 275.8 725.467 289.436 725.469 289.436 725.469 289.436 726.734 290.885 727.423 281.751 727.834 289.68 727.834 289.68 728.869 221.027 730.197 301.102 730.197 301.102 732.085 297.325 732.559 314.044 732.559 314.044 732.559 314.044 732.621 316.562 734.368 304.627 734.924 304.649 734.924 304.649 735.837 304.913 737.286 303.932 737.286 303.932 737.286 303.932 739.398 279.302 739.648 293.661 739.648 293.661 742.01 382.705 742.013 382.705 742.013 382.705 743.249 428.227 744.375 419.048 744.375 419.048 746.485 422.774 746.737 422.714 746.737 422.714 746.78 422.709 749.099 435.943 749.102 435.943 749.102 435.943 750.072 437.219 751.461 245.155 751.464 245.155 751.464 245.155 752.134 209.843 753.827 219.314 753.827 219.314 753.934 225.977 754.065 209.843 756.191 209.843 756.191 209.843 758.551 212.411 758.554 212.411 758.554 212.411 758.832 209.843 760.916 309.269 760.916 309.269 760.916 309.269 762.396 316.556 763.224 278.812 763.281 279.1 763.281 279.1 765.64 522.9 765.643 522.9 765.643 522.9 767.775 546.723 768.005 544.576 768.005 544.576 770.367 403.891 770.37 403.891 770.37 403.891 772.729 374.107 772.732 374.107 772.732 374.104 774.366 361.919 775.094 695.587 775.094 695.587 776.178 704.865 777.459 688.106 777.459 688.106 779.711 680.115 779.822 680.152 779.822 680.152 781.134 624.543 782.184 742.892 782.184 742.892 782.184 742.892 782.32 743.079 783.304 729.902 784.549 730.128 784.549 730.128 785.232 730.267 786.573 666.41 786.911 667.975 786.911 667.975 787.898 668.798 789.273 641.413 789.273 641.413 789.273 641.413 791.635 543.984 791.638 543.984 791.638 543.984 793.342 414.131 794 415.738 794 415.738 795.75 419.677 796.362 418.418 796.362 418.418 796.657 416.859 798.693 506.728 798.727 506.572 798.727 506.572 799.467 506.963 800.976 377.042 801.089 377.643 801.089 377.643 802.416 385.436 803.452 353.903 803.452 353.903 803.452 353.903 804.214 250.899 805.816 253.884 805.816 253.884 807.748 273.921 808.176 213.471 808.179 213.471 808.179 213.471 808.828 209.843 810.538 244.597 810.541 244.597 810.541 244.597 812.364 281.516 812.906 281.251 812.906 281.251 814.704 209.843 815.268 209.843 815.268 209.843 816.589 210.877 817.63 209.843 817.63 209.843 819.992 449.795 819.995 449.795 819.995 449.818 822.354 460.344 822.357 460.344 822.357 460.353 822.8 461.022 823.974 311.469 824.719 325.237 824.719 325.237 825.542 329.658 827.084 296.76 827.084 296.76 828.029 294.875 829.447 295.317 829.447 295.317 830.172 295.348 831.687 209.843 831.809 209.843 831.809 209.843 833.723 521.896 834.174 520.229 834.174 520.229 836.536 428.462 836.536 428.462 836.536 428.462 837.021 428.428 838.898 439.902 838.898 439.902 838.898 439.902 839.006 439.921 840.355 209.843 841.263 209.843 841.263 209.843 842.499 210.306 843.625 209.843 843.625 209.843 845.93 217.663 845.987 217.118 845.987 217.118 846.622 209.843 848.352 209.843 848.352 209.843 849.501 213.567 850.714 209.843 850.714 209.843 852.144 340.399 853.077 334.368 853.077 334.368 854.177 336.338 854.642 333.817 855.441 336.199 855.441 336.199 856.959 343.272 857.801 316.318 857.804 316.318 857.804 316.318 858.308 316.488 859.281 304.649 860.166 306.101 860.166 306.101 862.213 209.843 862.531 209.843 862.531 209.843 864.89 221.28 864.893 221.28 864.893 221.28 866.299 236.944 866.881 209.843 867.255 209.843 867.255 209.843 867.669 211.01 869.62 209.908 869.62 209.908 869.81 209.942 869.819 209.843 871.982 209.843 871.982 209.843 874.222 240.935 874.344 238.417 874.344 238.417 874.52 236.676 876.046 380.485 876.709 374.995 876.709 374.995 877.583 345.438 879.072 353.217 879.072 353.217 881.434 337.555 881.434 337.555 881.434 337.555 883.263 346.388 883.617 314.384 883.799 321.068 883.799 321.068 886.161 596.382 886.161 596.382 886.161 596.382 887.014 607.027 888.523 592.744 888.523 592.744 888.523 592.744 890.885 392.591 890.888 392.591 890.888 392.591 893.023 209.843 893.25 209.843 893.25 209.843 894.438 213.816 895.612 209.843 895.612 209.843 896.883 210.155 897.977 209.843 897.977 209.843 899.304 209.98 900.339 209.843 900.339 209.843 902.702 220.982 902.702 220.982 902.702 220.982 903.263 221.181 903.598 209.843 905.066 215.17 905.066 215.17 906.26 209.843 907.429 209.843 907.429 209.843 909.788 379.416 909.791 379.416 909.791 379.416 912.153 390.906 912.156 390.906 912.156 390.906 914.515 408.66 914.518 408.66 914.518 408.669 916.877 412.767 916.88 412.767 916.88 412.767 918.491 415.514 919.245 357.728 919.245 357.728 921.607 306.569 921.607 306.569 921.752 209.843 923.969 209.984 923.969 209.984 924.704 215.623 926.312 209.843 926.334 209.843 926.334 209.843 927.769 210.421 928.697 209.843 928.697 209.843 930.877 217.084 931.059 209.843 931.059 209.843 933.373 260.684 933.424 260.466 933.424 260.466 934.076 209.843 935.533 615.653 935.786 614.326 935.786 614.326 937.207 585.992 938.148 586.156 938.148 586.156 940.51 514.453 940.513 514.453 940.513 514.453 942.875 441.127 942.875 441.127 942.875 441.127 944.114 441.793 945.237 412.582 945.237 412.582 945.237 412.582 945.342 412.194 947.599 428.094 947.602 428.094 947.602 428.094 949.962 539.418 949.964 539.418 949.964 539.418 952.327 546.649 952.327 546.649 952.327 546.649 953.123 548.263 954.689 449.069 954.692 449.069 954.692 449.069 957.051 322.704 957.054 322.704 957.054 322.704 957.845 319.891 959.413 323.158 959.416 323.158 959.416 323.158 961.778 334.226 961.781 334.226 961.781 334.249 962.98 340.459 964.14 329.893 964.143 329.893 964.143 329.89 966.502 243.581 966.505 243.581 966.505 243.53 967.413 236.279 968.87 324.786 968.87 324.786 970.977 331.461 971.232 331.263 971.232 331.263 972.435 342.963 972.905 281.102 973.594 297.829 973.594 297.829 974.655 291.9 975.956 718.508 975.959 718.508 975.959 718.508 978.137 719.679 978.322 718.896 978.322 718.896 979.419 718.17 980.383 719.988 980.684 719.917 980.684 719.917 981.237 719.469 982.927 725.401 983.049 725.211 983.049 725.211 985.411 634.854 985.411 634.854 985.411 634.854 987.294 606.931 987.773 606.999 987.773 606.999 989.869 613.056 990.138 613.039 990.138 613.039 990.699 610.864 991.638 680.563 992.5 679.996 992.5 679.996 992.829 679.987 994.857 681.972 994.862 681.969 994.862 681.969 995.877 676.956 997.224 685.387 997.227 685.387 997.227 685.387 999.587 706.323 999.589 706.323 999.589 706.323 1000.48 707.95 1001.95 699.335 1001.95 699.335 1001.95 699.335 1003.39 668.009 1004.32 668.14 1004.32 668.14 1006.02 673.803 1006.68 588.156 1006.68 588.156 1006.68 588.156 1007.1 556.016 1009.04 606.23 1009.04 606.23 1009.04 606.23 1009.41 576.623 1011.4 618.101 1011.41 618.101 1011.41 618.129 1013.77 635.801 1013.77 635.801 1013.77 635.815 1016.13 672.708 1016.13 672.708 1017.84 688.01 1018.47 636.621 1018.5 643.71 1018.5 643.71 1020.86 658.969 1020.86 658.969 1020.86 658.969 1020.89 658.983 1023.22 654.27 1023.22 654.27 1023.22 654.27 1023.87 518.836 1025.58 551.836 1025.58 551.836 1025.96 551.742 1027.51 562.016 1027.95 557.317 1027.95 557.317 1030.31 488.866 1030.31 488.866 1030.31 488.866 1031.66 423.627 1032.67 428.301 1032.67 428.301 1032.81 428.13 1034.5 451.97 1035.04 450.794 1035.04 450.794 1037.21 327.429 1037.4 328.018 1037.4 328.018 1038.56 331.815 1039.76 330.624 1039.76 330.624 1042.12 350.185 1042.13 350.185 1042.13 350.185 1044.49 379.921 1044.49 379.921 1044.49 379.921 1045.56 389.619 1046.85 215.148 1046.85 215.148 1046.85 215.148 1046.89 209.843 1049.21 209.843 1049.21 209.843 1050.19 211.787 1051.58 209.843 1051.58 209.843 1052.34 212.033 1053.94 209.843 1053.94 209.843 1056.21 230.523 1056.3 230.221 1056.3 230.221 1056.71 229.566 1058.66 455.682 1058.67 455.682 1058.67 455.702 1058.7 455.884 1061.03 422.697 1061.03 422.697 1061.03 422.683 1063.39 336.14 1063.39 336.14 1063.72 322.512 1065.76 334.288 1065.76 334.288 1066.27 336.415 1067.22 209.843 1068.12 209.843 1068.12 209.843 1070.48 325.256 1070.48 325.256 1070.48 325.256 1071.39 317.126 1072.84 686.77 1072.84 686.77 1072.84 686.77 1073.15 685.421 1075.11 709.972 1075.21 708.069 1075.21 708.069 1075.86 598.279 1077.57 603.809 1077.57 603.809 1079.26 459.031 1079.93 715.513 1079.93 715.513 1079.93 715.513 1082.2 834.06 1082.3 834.012 1082.3 834.012 1084.45 832.478 1084.66 832.932 1084.66 832.932 1085.61 834.48 1086.63 606.877 1087.02 647.938 1087.02 647.938 1087.68 670.054 1089.39 665.59 1089.39 665.59 1089.82 665.806 1090.89 598.305 1091.75 601.492 1091.75 601.492 1092.48 612.741 1093.45 582.566 1094.11 589.219 1094.11 589.219 1096.15 598.486 1096.48 596.6 1096.48 596.6 1097.67 488.591 1098.84 510.463 1098.84 510.463 1101.03 505.313 1101.2 505.96 1101.2 505.96 1101.38 507.21 1103.26 374.921 1103.57 384.106 1103.57 384.106 1104.58 388.175 1105.93 386.145 1105.93 386.145 1105.95 386.241 1106.38 209.843 1108.29 216.126 1108.29 216.12 1109.87 209.843 1110.65 284.011 1110.66 284.011 1110.66 284.397 1112.64 439.757 1113.02 437.551 1113.02 437.551 1114.63 391.479 1115.38 392.486 1115.38 392.486 1116.38 371.11 1117.75 441.889 1117.75 441.889 1117.75 441.889 1120.11 574.68 1120.11 574.68 1120.11 574.68 1122.24 581.75 1122.47 580.905 1122.47 580.905 1124.64 567.863 1124.83 576.986 1124.83 576.986 1124.87 577.017 1127.2 309.734 1127.2 309.734 1127.2 309.734 1129.56 286.475 1129.56 286.475 1129.56 286.475 1129.62 286.316 1130.76 334.68 1131.92 327.103 1131.92 327.103 1133.26 328.795 1134.29 311.101 1134.29 311.101 1134.29 311.101 1135.97 209.843 1136.65 232.687 1136.65 232.687 1138.83 249.127 1139.01 247.478 1139.01 247.478 1139.88 272.522 1141.37 235.452 1141.38 235.452 1141.38 235.452 1141.45 209.843 1142.48 303.594 1143.74 255.748 1143.74 255.748 1144.89 251.25 1145.64 348.484 1146.1 317.799 1146.1 317.799 1146.63 213.982 1148.46 237.405 1148.46 237.405 1150.31 209.843 1150.82 296.962 1150.83 296.962 1150.83 296.962 1151 297.489 1151.91 295.918 1153.19 296.848 1153.19 296.848 1153.41 295.408 1155.55 425.55 1155.55 425.55 1155.55 425.641 1157.91 479.173 1157.92 479.173 1157.92 479.19 1158.34 480.288 1160.28 421.486 1160.28 421.486 1162.49 209.843 1162.64 209.843 1162.64 209.843 1163.58 212.881 1165.01 209.843 1165.01 209.843 1166.53 213.647 1167.37 209.843 1167.37 209.843 1169.73 209.843 1169.73 209.843 1171.74 210.52 1172.09 209.843 1172.09 209.843 1174.24 209.986 1174.46 209.843 1174.46 209.843 1176.56 214.795 1176.82 209.843 1176.82 209.843 1179.18 210.791 1179.18 210.791 1179.18 210.791 1179.59 217.454 1179.66 209.843 1181.55 209.843 1181.55 209.843 1182.71 210.218 1183.91 209.843 1183.91 209.843 1184.37 233.53 1186.27 209.843 1186.27 209.843 1187.77 211.758 1188.64 209.843 1188.64 209.843 1191 238.684 1191 238.684 1191 238.684 1192.3 220.939 1192.93 618.659 1193.36 615.702 1193.36 615.702 1195.7 851.202 1195.73 851.171 1195.73 851.171 1196.47 813.005 1197.32 860.285 1198.09 842.114 1198.09 842.114 1200.45 808.502 1200.45 808.502 1200.45 808.502 1200.54 789.432 1202.82 795.69 1202.82 795.622 1205.18 498.448 1205.18 498.448 1205.18 498.402 1205.75 209.843 1207.54 244.834 1207.54 244.834 1208.41 265.069 1209.91 250.576 1209.91 250.576 1210.42 250.536 1212.27 256.813 1212.27 256.813 1212.27 256.813 1213.44 269.43 1214.63 268.251 1214.63 268.251 1214.68 268.193 1216.99 314.98 1217 314.98 1217 314.98 1219.25 350.304 1219.36 349.275 1219.36 349.275 1219.4 259.865 1221.13 511.356 1221.72 505.392 1221.72 505.392 1222.43 318.04 1224.08 367.285 1224.08 367.285 1224.84 319.14 1226.45 353.049 1226.45 353.049 1227.85 344.746 1228.66 567.548 1228.81 565.949 1228.81 565.949 1228.87 565.487 1231.17 662.448 1231.17 662.448 1231.17 662.448 1233.53 676.094 1233.54 676.094 1233.54 676.094 1235.9 814.148 1235.9 814.148 1235.9 814.148 1238.26 984.62 1238.26 984.62 1238.26 984.62 1240.62 1009.86 1240.63 1009.86 1240.63 1009.86 1240.75 1010.57 1242.98 958.942 1242.99 958.942 1242.99 958.942 1243.05 958.942 1245.26 963.278 1245.35 962.113 1245.35 962.113 1247.45 924.304 1247.71 926.13 1247.71 926.13 1249.18 930.435 1250.07 923.487 1250.08 923.487 1250.08 923.487 1250.12 923.476 1252.35 931.728 1252.44 930.891 1252.44 930.869 1254.43 925.971 1254.8 937.249 1254.8 937.249 1254.8 937.402 1257.17 968.099 1257.17 968.099 1259.53 979.033 1259.53 979.033 1259.59 979.249 1260.95 802.405 1261.89 806.211 1261.89 806.211 1264.26 876.312 1264.26 876.312 1264.26 876.312 1265.13 864.907 1266.46 925.838 1266.62 923.623 1266.62 923.623 1267.09 879.154 1268.98 894.044 1268.98 894.044 1271.34 1022.18 1271.34 1022.18 1271.34 1022.18 1273.71 1038.88 1273.71 1038.88 1273.71 1038.88 1274.9 1044.06 1276.07 959.821 1276.07 959.821 1276.07 959.821 1276.56 897.47 1278.43 981.495 1278.43 981.495 1278.43 981.495 1280.8 1018.36 1280.8 1018.36 1280.8 1018.36 1282.92 1028.11 1283.16 1026.25 1283.16 1026.25 1283.62 1013.23 1283.8 1057.72 1285.52 1057.54 1285.52 1057.54 1286.25 1054.37 1286.57 1057.72 1287.89 1057.16 1287.89 1057.16 1288.58 1054.25 1289.35 1057.72 1290.25 1057.36 1290.25 1057.36 1290.38 1057.72 1292.28 1054.06 1292.61 1057.72 1292.61 1057.72 1294.79 939.963 1294.98 941.885 1294.98 941.885 1295.34 943.488 1296.73 932.692 1297.34 942.577 1297.34 942.577 1299.44 946.828 1299.7 944.94 1299.7 944.928 1301.78 932.04 1302.07 932.108 1302.07 932.111 1304.43 941.318 1304.43 941.318 1305.88 987.331 1306.79 984.657 1306.79 984.657 1307.42 985.388 1309.16 831.298 1309.16 831.298 1309.16 831.298 1309.38 816.555 1309.89 911.234 1311.52 906.11 1311.52 906.11 1312.06 957.402 1313.88 954.207 1313.88 954.207 1314.94 951.039" stroke="#C00000" stroke-width="9.45229" stroke-linejoin="round" stroke-miterlimit="10" fill="none" fill-rule="evenodd" transform="matrix(1 0 0 1.00084 2507 894)"/><text font-family="Arial,Arial_MSFontService,sans-serif" font-weight="400" font-size="19" transform="matrix(2.83571 0 0 2.83809 2929.17 1030)">E</text><text font-family="Arial,Arial_MSFontService,sans-serif" font-weight="400" font-size="19" transform="matrix(2.83571 0 0 2.83809 2966.03 1030)">:</text><text font-family="Arial,Arial_MSFontService,sans-serif" font-weight="400" font-size="19" transform="matrix(2.83571 0 0 2.83809 2980.21 1030)">RS</text><text font-family="Arial,Arial_MSFontService,sans-serif" font-weight="400" font-size="19" transform="matrix(2.83571 0 0 2.83809 3056.77 1030)">, </text><text font-family="Arial,Arial_MSFontService,sans-serif" font-weight="400" font-size="19" transform="matrix(2.83571 0 0 2.83809 3085.13 1030)">I</text><text font-family="Arial,Arial_MSFontService,sans-serif" font-weight="400" font-size="19" transform="matrix(2.83571 0 0 2.83809 3102.15 1030)">:</text><text font-family="Arial,Arial_MSFontService,sans-serif" font-weight="400" font-size="19" transform="matrix(2.83571 0 0 2.83809 3116.32 1030)">FS</text><path d="M300.555 116.264 413.683 116.264" stroke="#6699FF" stroke-width="9.45229" stroke-linejoin="round" stroke-miterlimit="10" fill="none" transform="matrix(1 0 0 1.00084 2507 894)"/><text font-family="Arial,Arial_MSFontService,sans-serif" font-weight="400" font-size="19" transform="matrix(2.83571 0 0 2.83809 3325.11 1030)">E</text><text font-family="Arial,Arial_MSFontService,sans-serif" font-weight="400" font-size="19" transform="matrix(2.83571 0 0 2.83809 3361.98 1030)">:</text><text font-family="Arial,Arial_MSFontService,sans-serif" font-weight="400" font-size="19" transform="matrix(2.83571 0 0 2.83809 3376.16 1030)">0</text><text font-family="Arial,Arial_MSFontService,sans-serif" font-weight="400" font-size="19" transform="matrix(2.83571 0 0 2.83809 3407.35 1030)">.</text><text font-family="Arial,Arial_MSFontService,sans-serif" font-weight="400" font-size="19" transform="matrix(2.83571 0 0 2.83809 3421.53 1030)">8</text><text font-family="Arial,Arial_MSFontService,sans-serif" font-weight="400" font-size="19" transform="matrix(2.83571 0 0 2.83809 3452.72 1030)">*</text><text font-family="Arial,Arial_MSFontService,sans-serif" font-weight="400" font-size="19" transform="matrix(2.83571 0 0 2.83809 3472.57 1030)">RS</text><text font-family="Arial,Arial_MSFontService,sans-serif" font-weight="400" font-size="19" transform="matrix(2.83571 0 0 2.83809 3549.14 1030)">/</text><text font-family="Arial,Arial_MSFontService,sans-serif" font-weight="400" font-size="19" transform="matrix(2.83571 0 0 2.83809 3563.31 1030)">0</text><text font-family="Arial,Arial_MSFontService,sans-serif" font-weight="400" font-size="19" transform="matrix(2.83571 0 0 2.83809 3594.51 1030)">.</text><text font-family="Arial,Arial_MSFontService,sans-serif" font-weight="400" font-size="19" transform="matrix(2.83571 0 0 2.83809 3608.69 1030)">2</text><text font-family="Arial,Arial_MSFontService,sans-serif" font-weight="400" font-size="19" transform="matrix(2.83571 0 0 2.83809 3639.88 1030)">*</text><text font-family="Arial,Arial_MSFontService,sans-serif" font-weight="400" font-size="19" transform="matrix(2.83571 0 0 2.83809 3659.73 1030)">BU</text><text font-family="Arial,Arial_MSFontService,sans-serif" font-weight="400" font-size="19" transform="matrix(2.83571 0 0 2.83809 3733.46 1030)">, </text><text font-family="Arial,Arial_MSFontService,sans-serif" font-weight="400" font-size="19" transform="matrix(2.83571 0 0 2.83809 3761.81 1030)">I</text><text font-family="Arial,Arial_MSFontService,sans-serif" font-weight="400" font-size="19" transform="matrix(2.83571 0 0 2.83809 3778.83 1030)">:</text><text font-family="Arial,Arial_MSFontService,sans-serif" font-weight="400" font-size="19" transform="matrix(2.83571 0 0 2.83809 3793.01 1030)">FS</text><path d="M696.503 116.264 809.63 116.264" stroke="#C00000" stroke-width="9.45229" stroke-linejoin="round" stroke-miterlimit="10" fill="none" transform="matrix(1 0 0 1.00084 2507 894)"/></g></g></g></g></svg>