<svg width="560" height="420" xmlns="http://www.w3.org/2000/svg" xmlns:xlink="http://www.w3.org/1999/xlink" xml:space="preserve" overflow="hidden"><g transform="translate(-67 -178)"><path d="M67 178 627 178 627 598 67 598Z" fill="#FFFFFF"/><path d="M67 178 627 178 627 598 67 598Z" fill="#FFFFFF"/><path d="M140 544 574 544 574 254 140 254Z" fill="#FFFFFF"/><path d="M140 544 574 544" stroke="#262626" stroke-width="2" stroke-linecap="square" stroke-linejoin="round" stroke-miterlimit="10" fill="none"/><path d="M140 544 140 539.66" stroke="#262626" stroke-width="2" stroke-linecap="square" stroke-linejoin="round" stroke-miterlimit="10" fill="none"/><path d="M248.5 544 248.5 539.66" stroke="#262626" stroke-width="2" stroke-linecap="square" stroke-linejoin="round" stroke-miterlimit="10" fill="none"/><path d="M357 544 357 539.66" stroke="#262626" stroke-width="2" stroke-linecap="square" stroke-linejoin="round" stroke-miterlimit="10" fill="none"/><path d="M465.5 544 465.5 539.66" stroke="#262626" stroke-width="2" stroke-linecap="square" stroke-linejoin="round" stroke-miterlimit="10" fill="none"/><path d="M574 544 574 539.66" stroke="#262626" stroke-width="2" stroke-linecap="square" stroke-linejoin="round" stroke-miterlimit="10" fill="none"/><text fill="#262626" font-family="Arial,Arial_MSFontService,sans-serif" font-weight="400" font-size="19" transform="translate(134.5 568)">0</text><text fill="#262626" font-family="Arial,Arial_MSFontService,sans-serif" font-weight="400" font-size="19" transform="translate(227.5 568)">1000</text><text fill="#262626" font-family="Arial,Arial_MSFontService,sans-serif" font-weight="400" font-size="19" transform="translate(336 568)">2000</text><text fill="#262626" font-family="Arial,Arial_MSFontService,sans-serif" font-weight="400" font-size="19" transform="translate(444.5 568)">3000</text><text fill="#262626" font-family="Arial,Arial_MSFontService,sans-serif" font-weight="400" font-size="19" transform="translate(553 568)">4000</text><text fill="#262626" font-family="Arial,Arial_MSFontService,sans-serif" font-weight="700" font-size="21" transform="translate(317.5 593)">Time </text><text fill="#262626" font-family="Arial,Arial_MSFontService,sans-serif" font-weight="700" font-size="21" transform="translate(372.5 593)">(</text><text fill="#262626" font-family="Arial,Arial_MSFontService,sans-serif" font-weight="700" font-size="21" transform="translate(379.5 593)">s</text><text fill="#262626" font-family="Arial,Arial_MSFontService,sans-serif" font-weight="700" font-size="21" transform="translate(391.5 593)">)</text><path d="M140 544 140 254" stroke="#262626" stroke-width="2" stroke-linecap="square" stroke-linejoin="round" stroke-miterlimit="10" fill="none"/><path d="M140 544 144.34 544" stroke="#262626" stroke-width="2" stroke-linecap="square" stroke-linejoin="round" stroke-miterlimit="10" fill="none"/><path d="M140 471.5 144.34 471.5" stroke="#262626" stroke-width="2" stroke-linecap="square" stroke-linejoin="round" stroke-miterlimit="10" fill="none"/><path d="M140 399 144.34 399" stroke="#262626" stroke-width="2" stroke-linecap="square" stroke-linejoin="round" stroke-miterlimit="10" fill="none"/><path d="M140 326.5 144.34 326.5" stroke="#262626" stroke-width="2" stroke-linecap="square" stroke-linejoin="round" stroke-miterlimit="10" fill="none"/><path d="M140 254 144.34 254" stroke="#262626" stroke-width="2" stroke-linecap="square" stroke-linejoin="round" stroke-miterlimit="10" fill="none"/><text fill="#262626" font-family="Arial,Arial_MSFontService,sans-serif" font-weight="400" font-size="19" transform="translate(122.6 551)">0</text><text fill="#262626" font-family="Arial,Arial_MSFontService,sans-serif" font-weight="400" font-size="19" transform="translate(122.6 479)">1</text><text fill="#262626" font-family="Arial,Arial_MSFontService,sans-serif" font-weight="400" font-size="19" transform="translate(122.6 406)">2</text><text fill="#262626" font-family="Arial,Arial_MSFontService,sans-serif" font-weight="400" font-size="19" transform="translate(122.6 334)">3</text><text fill="#262626" font-family="Arial,Arial_MSFontService,sans-serif" font-weight="400" font-size="19" transform="translate(122.6 261)">4</text><text fill="#262626" font-family="Arial,Arial_MSFontService,sans-serif" font-weight="700" font-size="21" transform="matrix(6.12323e-17 -1 1 6.12323e-17 113.6 486)">Synaptic strength</text><path d="M140 544 140.333 544 140.333 544 140.985 540.649 141.167 541.312 141.167 541.312 142 542.463 142 542.463 142 542.463 142.489 542.757 142.833 540.361 142.833 540.361 142.833 540.361 143.666 539.277 143.667 539.277 143.667 539.277 144.253 538.858 144.5 539.232 144.5 539.232 144.624 539.402 145.333 537.373 145.333 537.373 145.333 537.373 145.505 537.077 146.166 539.413 146.167 539.413 146.167 539.413 146.999 540.07 147 540.07 147 540.07 147.119 540.073 147.833 535.519 147.833 535.519 147.833 535.519 148.666 535.179 148.667 535.179 148.667 535.179 149.499 534.982 149.5 534.982 149.5 534.982 149.924 534.987 150.332 534.769 150.333 534.769 150.333 534.769 151.166 534.31 151.167 534.31 151.167 534.31 151.367 534.302 151.723 534.455 152 534.401 152 534.401 152.832 534.385 152.833 534.385 152.833 534.385 153.315 534.302 153.521 535.154 153.667 535.086 153.667 535.086 153.739 535.072 154.5 535.215 154.5 535.215 155.182 536.047 155.333 535.77 155.333 535.77 156.167 534.43 156.167 534.43 156.167 534.43 156.928 534.409 157 534.416 157 534.416 157.054 534.419 157.833 533.83 157.833 533.83 157.833 533.83 158.374 533.872 158.666 533.478 158.667 533.478 158.667 533.478 159.145 533.267 159.5 533.606 159.5 533.606 159.5 533.606 160.333 533.975 160.333 533.975 160.333 533.975 160.64 533.72 161.166 535.807 161.167 535.807 161.167 535.807 161.454 535.96 162 535.934 162 535.934 162.13 535.934 162.833 536.343 162.833 536.343 162.833 536.343 163.666 538.731 163.667 538.731 163.667 538.731 164.047 538.841 164.499 533.798 164.5 533.798 164.5 533.798 165.333 528.207 165.333 528.207 165.333 528.207 166.166 528.124 166.167 528.124 166.167 528.124 166.998 528.028 167 528.028 167 528.028 167.491 528.09 167.787 525.224 167.833 525.588 167.833 525.588 168.14 526.185 168.667 526.091 168.667 526.091 168.747 526.089 169.499 526.869 169.5 526.869 169.5 526.87 170.332 528.123 170.333 528.123 170.333 528.127 170.789 528.831 171.167 525.377 171.167 525.377 171.345 525.347 171.566 525.448 172 525.382 172 525.382 172.833 525.32 172.833 525.32 172.833 525.32 173.373 524.887 173.667 524.941 173.667 524.941 174.198 524.957 174.5 524.573 174.5 524.573 174.5 524.573 175.036 524.546 175.333 524.63 175.333 524.63 175.333 524.63 175.573 524.635 175.944 523.837 176.167 523.885 176.167 523.885 177 523.894 177 523.894 177 523.894 177.273 523.779 177.833 524.757 177.833 524.757 177.833 524.757 178.666 524.932 178.667 524.932 178.667 524.932 178.677 524.933 179.499 524.258 179.5 524.258 179.5 524.258 179.642 523.611 180.333 531.705 180.333 531.705 180.333 531.705 180.727 531.741 181.166 531.644 181.167 531.644 181.167 531.644 181.82 531.61 181.999 531.708 182 531.708 182 531.708 182.366 531.731 182.832 525.07 182.833 525.07 182.833 525.07 182.885 525.062 183.515 525.077 183.667 525.076 183.667 525.076 183.945 525.075 184.499 526.381 184.5 526.381 184.5 526.381 184.862 526.523 185.333 526.444 185.333 526.444 185.757 525.923 186.166 526.759 186.167 526.759 186.167 526.759 186.705 527 186.999 521.646 187 521.646 187 521.642 187.833 521.28 187.833 521.28 188.667 521.256 188.667 521.256 189.5 520.977 189.5 520.977 189.5 520.977 190.333 516.421 190.333 516.421 190.333 516.421 190.921 516.916 191.166 515.166 191.167 515.166 191.167 515.166 191.83 515.121 192 515.122 192 515.122 192.16 515.122 192.454 515.041 192.833 515.064 192.833 515.064 193.494 514.957 193.666 516.05 193.667 516.05 193.667 516.05 194.499 516.379 194.5 516.379 194.5 516.379 194.876 516.078 195.333 517.092 195.333 517.092 195.333 517.092 195.846 517.37 196.123 517.064 196.167 517.064 196.167 517.064 196.771 517.074 196.999 517.043 197 517.043 197 517.043 197.18 517.132 197.796 516.721 197.833 516.821 197.833 516.821 197.981 517.003 198.667 516.961 198.667 516.961 199.173 516.961 199.499 516.839 199.5 516.839 199.5 516.839 199.563 516.828 200.333 517.035 200.333 517.035 200.333 517.035 200.51 517.043 201.166 516.53 201.167 516.53 201.167 516.53 201.235 516.527 201.999 517.118 202 517.118 202 517.118 202.351 518.437 202.833 518.298 202.833 518.298 203.317 518.295 203.666 519.259 203.667 519.259 203.667 519.262 204.053 519.543 204.5 519.148 204.5 519.148 205.333 518.728 205.333 518.728 206.167 518.428 206.167 518.428 206.167 518.428 206.592 518.401 207 519.24 207 519.24 207 519.24 207.833 519.989 207.833 519.989 207.833 519.989 208.179 519.989 208.666 521.99 208.667 521.99 208.667 521.99 208.949 522.071 209.232 517.767 209.5 517.867 209.5 517.867 210.333 519.521 210.333 519.521 210.333 519.521 211.166 521.502 211.167 521.502 211.167 521.502 211.187 521.511 211.999 521.182 212 521.182 212 521.182 212.144 521.128 212.377 521.84 212.833 521.821 212.833 521.821 213.063 521.821 213.648 522.486 213.667 522.484 213.667 522.484 214.43 522.168 214.5 522.181 214.5 522.181 215.333 523.473 215.333 523.473 215.333 523.473 215.998 523.491 216.167 523.49 216.167 523.49 216.233 523.49 216.999 524.064 217 524.064 217 524.064 217.833 524.229 217.833 524.229 217.833 524.229 218.666 524.232 218.667 524.232 218.667 524.232 219.242 524.231 219.499 524.947 219.5 524.947 219.5 524.947 220.332 527.237 220.333 527.237 220.333 527.238 220.452 527.245 221.166 525.505 221.167 525.505 221.167 525.505 221.196 525.505 221.589 526 222 525.808 222 525.808 222.833 525.944 222.833 525.944 223.241 526.254 223.625 520.659 223.667 521.02 223.667 521.02 224.5 522.844 224.5 522.844 224.5 522.844 225.218 522.866 225.333 522.853 225.333 522.853 225.974 522.85 226.166 524.172 226.167 524.172 226.167 524.172 226.496 524.417 227 524.415 227 524.415 227.334 524.426 227.833 518.817 227.833 518.817 227.833 518.817 228.399 515.436 228.667 515.524 228.667 515.524 228.679 515.541 229.499 507.936 229.5 507.936 229.5 507.936 229.897 507.935 230.261 508.7 230.333 508.674 230.333 508.674 230.622 508.755 231.166 508.393 231.167 508.393 231.167 508.393 231.999 508.374 232 508.374 232 508.374 232.195 508.299 232.65 508.56 232.833 508.559 232.833 508.559 233.505 509.048 233.666 508.14 233.667 508.14 233.667 508.14 234.407 503.285 234.5 503.324 234.5 503.324 235.127 503.353 235.333 503.33 235.333 503.33 235.596 503.323 236.166 504.186 236.167 504.186 236.167 504.186 236.999 504.399 237 504.399 237 504.401 237.328 504.061 237.68 504.609 237.833 504.584 237.833 504.584 237.943 504.58 238.667 505.537 238.667 505.537 239.455 506.938 239.5 506.919 239.5 506.919 239.746 506.936 240.333 506.544 240.333 506.544 240.333 506.544 241.167 499.784 241.167 499.784 241.167 499.784 241.799 499.781 242 499.909 242 499.909 242 499.909 242.329 499.854 242.833 501.396 242.833 501.396 242.833 501.396 243.666 501.759 243.667 501.759 243.667 501.759 243.763 501.759 244.5 500.691 244.5 500.691 244.5 500.691 245.159 482.488 245.333 482.576 245.333 482.576 245.713 482.595 246.166 482.566 246.167 482.566 246.167 482.566 246.19 482.565 246.999 483.168 247 483.168 247 483.168 247.833 483.885 247.833 483.885 247.833 483.885 248.666 486.254 248.667 486.254 248.667 486.254 249.499 486.308 249.5 486.308 249.5 486.308 250.333 488.895 250.333 488.895 250.333 488.895 250.506 488.912 251.066 483.737 251.167 484.285 251.167 484.285 251.509 484.938 252 484.428 252 484.428 252.447 484.21 252.832 484.572 252.833 484.572 252.833 484.572 253.585 485.013 253.667 484.898 253.667 484.897 254.301 484.759 254.499 485.317 254.5 485.317 254.5 485.318 255.024 485.421 255.333 485.206 255.333 485.206 255.524 485.195 256.117 486.325 256.167 486.103 256.167 486.103 257 483.306 257 483.306 257 483.306 257.628 484.573 257.833 479.919 257.833 479.919 257.833 479.919 257.85 479.59 258.666 480.401 258.667 480.401 258.667 480.401 259.5 482.296 259.5 482.296 259.5 482.296 260.333 482.312 260.333 482.312 260.333 482.312 260.885 482.326 261.166 481.296 261.167 481.296 261.167 481.296 261.398 478.213 262 478.744 262 478.744 262.833 479.181 262.833 479.181 262.833 479.181 263.666 481.148 263.667 481.148 263.667 481.148 263.766 481.046 264.403 482.984 264.5 482.358 264.5 482.358 264.928 477.054 265.333 477.059 265.333 477.059 265.734 478.729 266.166 471.182 266.167 471.182 266.167 471.182 266.277 466.253 267 469.341 267 469.341 267.011 469.342 267.833 468.867 267.833 468.867 267.833 468.867 267.923 468.858 268.666 470.541 268.667 470.541 268.667 470.541 268.829 470.546 269.499 470.001 269.5 470.001 269.5 470.001 269.524 470.001 269.979 471.273 270.333 470.302 270.333 470.302 271.166 459.33 271.167 459.33 271.167 459.328 271.999 451.723 272 451.723 272 451.723 272.215 451.709 272.833 452.567 272.833 452.567 273.005 452.572 273.648 449.644 273.667 449.645 273.667 449.645 274.425 449.632 274.5 449.673 274.5 449.673 274.5 449.673 275.288 450.398 275.333 449.967 275.333 449.967 276.166 442.206 276.167 442.206 276.167 442.206 276.643 437.596 277 437.89 277 437.89 277.833 437.944 277.833 437.944 277.833 437.944 277.917 438.015 278.663 436.344 278.667 436.344 278.667 436.344 279.442 436.33 279.499 436.86 279.5 436.86 279.5 436.86 280.333 437.933 280.333 437.933 280.333 437.933 280.535 437.936 280.937 437.658 281.167 437.765 281.167 437.765 281.999 438.266 282 438.266 282 438.266 282.833 438.437 282.833 438.437 282.833 438.437 283.582 438.376 283.666 438.572 283.667 438.572 283.667 438.572 283.755 438.666 284.499 435.519 284.5 435.519 284.5 435.519 284.91 435.596 285.333 435.114 285.333 435.114 285.333 435.114 285.634 434.986 286.078 435.46 286.167 435.064 286.167 435.064 286.999 431.862 287 431.862 287 431.862 287.832 428.822 287.833 428.822 287.833 428.822 288.666 422.726 288.667 422.726 288.667 422.726 289.291 422.732 289.5 417.482 289.5 417.482 290.333 413.439 290.333 413.439 290.599 413.394 291.167 413.414 291.167 413.414 292 413.791 292 413.791 292 413.791 292.644 413.807 292.833 413.743 292.833 413.743 292.833 413.743 293.461 413.723 293.666 413.851 293.667 413.851 293.667 413.851 294.5 414.01 294.5 414.01 294.5 414.01 295.333 416.631 295.333 416.631 295.333 416.631 295.956 416.92 296.167 416.846 296.167 416.846 296.176 416.844 296.431 417.305 297 417.292 297 417.292 297.02 417.292 297.704 417.987 297.833 417.316 297.833 417.316 298.666 413.802 298.667 413.802 298.667 413.802 298.871 413.802 299.499 414.246 299.5 414.246 299.5 414.246 300.333 414.448 300.333 414.448 300.333 414.448 301.003 415.966 301.167 415.716 301.167 415.716 301.999 415.539 302 415.539 302 415.539 302.085 415.539 302.327 416.351 302.833 415.824 302.833 415.824 303.666 416.943 303.667 416.943 303.667 416.943 304.499 416.974 304.5 416.974 304.5 416.974 304.684 416.974 305.332 415.88 305.333 415.88 305.333 415.878 305.567 415.737 306.167 416.058 306.167 416.058 307 416.141 307 416.141 307.624 416.672 307.833 415.559 307.833 415.559 308.667 397.177 308.667 397.177 308.667 397.177 309.5 397.061 309.5 397.061 309.5 397.061 310.141 397.05 310.333 397.846 310.333 397.846 310.333 397.846 311.166 398.2 311.167 398.2 311.167 398.2 311.877 398.252 312 398.031 312 398.031 312 398.031 312.153 397.951 312.833 398.184 312.833 398.184 312.833 398.184 313.666 399.761 313.667 399.761 313.667 399.761 313.873 399.841 314.499 399.663 314.5 399.663 314.5 399.663 315.284 395.466 315.333 395.999 315.333 395.999 315.717 396.854 316.167 396.767 316.167 396.767 316.68 396.766 316.944 399.662 317 399.363 317 399.363 317.285 398.238 317.833 399.6 317.833 399.6 317.833 399.6 318.666 399.831 318.667 399.831 318.667 399.831 319.02 399.988 319.499 399.579 319.5 399.579 319.5 399.579 320.332 395.749 320.333 395.749 320.333 395.749 321.166 392.575 321.167 392.575 321.167 392.575 321.999 392.553 322 392.553 322 392.552 322.592 392.389 322.832 393.158 322.833 393.158 322.833 393.159 323.667 393.561 323.667 393.561 324.007 393.577 324.332 393.299 324.5 393.476 324.5 393.476 325.056 393.545 325.333 393.543 325.333 393.543 325.443 393.545 326.167 393.342 326.167 393.342 326.167 393.342 326.606 393.343 326.774 393.27 327 393.289 327 393.289 327.833 394.34 327.833 394.34 327.833 394.34 328.611 396.293 328.667 396.265 328.667 396.265 329.5 395.828 329.5 395.828 329.5 395.828 330.333 382.909 330.333 382.909 330.333 382.909 331.166 382.9 331.167 382.9 331.167 382.9 331.469 382.861 332 382.88 332 382.88 332.833 379.425 332.833 379.425 332.833 379.425 333.666 379.237 333.667 379.237 333.667 379.237 333.796 379.232 334.464 379.286 334.5 379.267 334.5 379.267 335.333 379.219 335.333 379.219 335.333 379.219 335.684 379.215 336.166 379.411 336.167 379.411 336.167 379.411 336.795 379.467 336.999 379.25 337 379.25 337 379.25 337.619 379.057 337.833 379.213 337.833 379.213 338.666 380.969 338.667 380.969 338.667 380.969 338.934 380.978 339.499 380.542 339.5 380.542 339.5 380.539 339.585 380.377 340.333 380.431 340.333 380.431 341.026 380.334 341.167 380.356 341.167 380.356 341.811 380.374 342 380.352 342 380.352 342 380.352 342.833 380.131 342.833 380.131 342.833 380.131 343.366 380.118 343.666 380.493 343.667 380.493 343.667 380.493 344.183 381.089 344.5 381.003 344.5 381.003 345.333 373.605 345.333 373.605 345.333 373.605 345.846 373.537 346.166 374.916 346.167 374.916 346.167 374.916 346.499 374.989 347 374.478 347 374.478 347 374.478 347.802 374.473 347.833 374.483 347.833 374.483 347.833 374.483 348.012 374.504 348.476 373.982 348.667 374.195 348.667 374.195 348.833 374.23 349.499 372.097 349.5 372.097 349.5 372.097 350.333 372.032 350.333 372.032 350.333 372.032 350.703 372.017 351.166 373.951 351.167 373.951 351.167 373.951 351.691 373.973 351.999 373.829 352 373.829 352 373.829 352.004 373.829 352.832 376.262 352.833 376.262 352.833 376.262 353.666 377.295 353.667 377.295 353.667 377.295 354.499 379.779 354.5 379.779 354.5 379.779 355.332 381.213 355.333 381.213 355.333 381.213 356.166 381.216 356.167 381.216 356.167 381.216 356.205 381.216 356.999 380.766 357 380.766 357 380.758 357.524 373.478 357.833 373.703 357.833 373.703 358.327 374.894 358.667 374.888 358.667 374.888 359.313 375.043 359.5 374.532 359.5 374.532 359.5 374.532 359.586 374.467 360.333 378.35 360.333 378.35 360.333 378.35 361.166 378.459 361.167 378.459 361.167 378.459 361.593 378.793 361.978 374.136 362 374.155 362 374.155 362.833 374.249 362.833 374.249 362.833 374.249 363.666 374.36 363.667 374.36 363.667 374.36 364.5 374.893 364.5 374.893 364.5 374.893 364.918 374.909 365.333 374.75 365.333 374.75 365.333 374.75 365.866 374.655 366.166 374.954 366.167 374.954 366.167 374.954 366.807 374.975 366.999 374.916 367 374.916 367 374.916 367.057 374.911 367.833 375.504 367.833 375.504 367.833 375.504 367.925 375.54 368.666 370.546 368.667 370.546 368.667 370.546 369.069 370.553 369.499 361.778 369.5 361.778 369.5 361.778 370.332 359.319 370.333 359.319 370.333 359.319 371.166 358.828 371.167 358.828 371.167 358.828 371.972 353.883 372 353.927 372 353.927 372.368 354.122 372.832 350.923 372.833 350.923 372.833 350.923 372.977 350.915 373.666 351.072 373.667 351.072 373.667 351.072 374.095 351.188 374.5 348.883 374.5 348.883 375.143 348.842 375.333 349.177 375.333 349.177 376.167 350.546 376.167 350.546 376.167 350.546 376.505 350.556 377 350.45 377 350.45 377 350.45 377.67 350.406 377.833 350.659 377.833 350.659 377.833 350.659 378.666 351.495 378.667 351.495 378.667 351.495 379.214 351.556 379.5 348.911 379.5 348.911 379.5 348.911 380.028 348.729 380.333 349.496 380.333 349.496 380.333 349.496 381.166 351.456 381.167 351.456 381.167 351.456 381.953 351.662 382 351.611 382 351.611 382.38 351.84 382.833 351.354 382.833 351.354 382.833 351.354 383.666 351.232 383.667 351.232 383.667 351.232 384.499 351.227 384.5 351.227 384.5 351.227 385.12 351.219 385.333 351.252 385.333 351.252 385.333 351.252 386.166 351.842 386.167 351.842 386.167 351.842 386.518 351.97 386.999 351.165 387 351.165 387 351.165 387.832 351.086 387.833 351.086 387.833 351.086 388.049 351.086 388.641 351.281 388.667 351.149 388.667 351.149 389.492 349.86 389.5 349.86 389.5 349.86 389.98 349.82 390.332 350.35 390.333 350.35 390.333 350.35 390.427 350.362 391.167 350.109 391.167 350.109 391.706 347.054 392 353.079 392 353.079 392.833 355.275 392.833 355.275 392.833 355.275 393.448 357.199 393.667 355.885 393.667 355.885 394.384 343.995 394.5 344.287 394.5 344.287 395.333 346.593 395.333 346.593 395.333 346.593 395.357 346.736 395.932 343.583 396.167 344.336 396.167 344.336 396.662 344.43 397 332.346 397 332.346 397 332.346 397.833 331.702 397.833 331.702 397.833 331.702 398.012 329.599 398.667 330.589 398.667 330.589 398.693 330.59 399.5 320.815 399.5 320.815 399.5 320.815 399.654 320.775 400.333 320.974 400.333 320.974 400.333 320.974 401.166 321.155 401.167 321.155 401.167 321.155 401.999 321.24 402 321.24 402 321.24 402.833 321.43 402.833 321.43 402.833 321.43 403.666 321.479 403.667 321.479 403.667 321.479 404.288 321.508 404.499 320.544 404.5 320.544 404.5 320.544 404.576 320.464 405.323 339.43 405.333 339.335 405.333 339.335 405.517 338.341 406.166 343.275 406.167 343.275 406.167 343.275 406.999 343.729 407 343.729 407 343.73 407.832 343.842 407.833 343.842 407.833 343.842 408.299 343.842 408.626 343.724 408.667 343.731 408.667 343.731 409.5 344.079 409.5 344.079 409.93 344.167 410.333 343.865 410.333 343.865 410.333 343.865 410.856 343.865 411.166 337.511 411.167 337.511 411.167 337.511 412 333.821 412 333.821 412 333.821 412.533 333.825 412.833 333.768 412.833 333.768 412.833 333.768 413.666 333.744 413.667 333.744 413.667 333.744 414.5 333.111 414.5 333.111 414.5 333.111 415.333 327.535 415.333 327.535 415.333 327.535 415.51 327.53 416.166 329.108 416.167 329.108 416.167 329.108 416.903 329.464 416.999 328.77 417 328.77 417 328.77 417.833 326.425 417.833 326.425 417.833 326.425 418.548 322.435 418.667 322.441 418.667 322.441 419.381 322.219 419.499 323.078 419.5 323.078 419.5 323.078 420.155 323.285 420.314 323.034 420.333 323.207 420.333 323.207 421.07 323.688 421.166 323.004 421.167 323.004 421.167 323.004 421.501 320.075 422 320.523 422 320.523 422.832 321.37 422.833 321.37 422.833 321.37 423.189 321.396 423.507 321.324 423.667 321.39 423.667 321.391 424.499 322.091 424.5 322.091 424.5 322.092 424.806 322.31 425.333 322.238 425.333 322.238 426.167 324.05 426.167 324.05 426.267 324.05 427 314.544 427 314.544 427 314.544 427.833 306.106 427.833 306.106 427.833 306.106 428.252 306.099 428.666 306.202 428.667 306.202 428.667 306.202 429.5 306.464 429.5 306.464 429.5 306.464 430.333 307.024 430.333 307.024 430.333 307.024 431.159 307.087 431.167 307.078 431.167 307.078 431.528 307.352 432 304.063 432 304.063 432 304.063 432.686 298.818 432.833 301.924 432.833 301.924 433.666 303.412 433.667 303.412 433.667 303.412 434.078 303.426 434.499 293.564 434.5 293.564 434.5 293.564 435.111 293.508 435.333 293.526 435.333 293.526 435.603 293.529 436.166 292.805 436.167 292.805 436.167 292.805 436.494 289.31 437 290.061 437 290.061 437.109 290.035 437.816 290.712 437.833 290.675 437.833 290.675 438.648 286.087 438.667 286.269 438.667 286.269 439.499 293.039 439.5 293.039 439.5 293.039 440.332 293.119 440.333 293.119 440.333 293.119 440.978 293.861 441.167 293.665 441.167 293.665 442 292.997 442 292.997 442.244 291.905 442.691 295.479 442.833 295.453 442.833 295.453 443.667 295.413 443.667 295.413 443.667 295.413 444.5 290.72 444.5 290.72 444.5 290.72 445.088 290.606 445.333 290.729 445.333 290.729 445.333 290.729 446.101 290.739 446.166 290.352 446.167 290.352 446.167 290.352 447 282.81 447 282.81 447 282.81 447.786 282.688 447.833 282.776 447.833 282.776 448.666 282.94 448.667 282.94 448.667 282.94 448.821 282.94 449.343 282.892 449.5 282.908 449.5 282.908 449.823 282.913 450.333 282.501 450.333 282.501 450.333 282.501 450.448 282.499 451.166 283.361 451.167 283.361 451.167 283.361 451.424 283.362 451.999 279.476 452 279.476 452 279.476 452.833 279.474 452.833 279.474 452.833 279.474 453.353 279.474 453.666 279.473 453.667 279.473 453.667 279.473 454.134 279.494 454.499 275.453 454.5 275.453 454.5 275.453 455.332 274.72 455.333 274.72 455.333 274.72 455.965 272.637 456.167 272.72 456.167 272.72 456.832 272.752 457 272.745 457 272.745 457.832 271.822 457.833 271.822 457.833 271.82 458.666 262.649 458.667 262.649 458.667 262.648 459.5 261.639 459.5 261.639 460.333 259.767 460.333 259.767 460.632 259.768 461.167 259.261 461.167 259.261 461.167 259.261 461.654 259.214 462 259.219 462 259.219 462.664 259.056 462.833 259.465 462.833 259.465 462.833 259.465 463.594 259.572 463.667 259.572 463.667 259.572 464.5 259.517 464.5 259.517 464.5 259.517 464.657 259.516 464.929 260.596 465.333 260.438 465.333 260.438 466.078 260.421 466.167 260.424 466.167 260.424 467 260.426 467 260.426 467 260.426 467.324 260.426 467.833 260.424 467.833 260.424 467.833 260.424 467.889 260.424 468.666 261.793 468.667 261.793 468.667 261.793 469.204 261.794 469.499 261.139 469.5 261.139 469.5 261.139 470.333 257.904 470.333 257.904 470.333 257.904 470.884 254 471.167 254 471.167 254 472 254 472 254 472.828 254.67 472.833 254.668 472.833 254.668 473.484 254 473.667 254.043 473.667 254.043 473.713 254.043 473.882 254 474.5 254 474.5 254 475.332 254.048 475.333 254.048 475.333 254.048 475.484 254.048 475.49 254 476.167 254 476.167 254 477 254.012 477 254.012 477.833 254.253 477.833 254.253 477.833 254.253 478.213 254.254 478.251 254 478.667 254 478.667 254 479.5 254.113 479.5 254.113 479.5 254.113 479.609 254.115 480.069 254 480.333 254 480.333 254 481.166 254.432 481.167 254.432 481.167 254.432 482 254.627 482 254.627 482 254.627 482.833 255.215 482.833 255.215 482.833 255.215 482.988 255.231 483.294 254 483.667 254 483.667 254 484.5 254.03 484.5 254.03 484.5 254.03 484.933 254.902 485.333 254.897 485.333 254.897 485.434 254.896 486.166 255.782 486.167 255.782 486.167 255.782 486.688 254.61 486.999 269.653 487 269.653 487 269.653 487.249 269.687 487.833 269.451 487.833 269.451 487.833 269.451 488.666 269.45 488.667 269.45 488.667 269.45 488.856 269.45 489.499 269.161 489.5 269.161 489.5 269.161 490.332 267.603 490.333 267.603 490.333 267.603 491.166 262.564 491.167 262.564 491.167 262.563 491.249 262.54 491.999 263.527 492 263.527 492 263.527 492.053 263.528 492.385 260.489 492.833 262.276 492.833 262.276 493.354 262.978 493.667 262.605 493.667 262.605 493.736 262.595 494.5 262.724 494.5 262.724 494.5 262.724 494.716 262.726 495.333 258.772 495.333 258.772 495.333 258.772 496.166 258.039 496.167 258.039 496.167 258.039 496.706 254 497 254 497 254 497.833 254.488 497.833 254.488 497.833 254.488 498.666 254.499 498.667 254.499 498.667 254.499 499.429 254.56 499.5 254.542 499.5 254.542 500.073 254.522 500.26 254.99 500.333 254.931 500.333 254.931 500.75 254 501.167 254.029 501.167 254.029 501.999 254.103 502 254.103 502 254.103 502.776 254.117 502.833 254.117 502.833 254.117 503.552 254.116 503.667 254.116 503.667 254.116 504.499 254.12 504.5 254.12 504.5 254.12 504.792 254 505.332 254.124 505.333 254.124 505.333 254.124 505.375 254.124 505.432 254 506.167 254 506.167 254 507 254 507 254 507.27 254.484 507.833 254 507.833 254 508.667 254 508.667 254 509.5 254 509.5 254 510.333 254.133 510.333 254.133 511.075 255.738 511.167 255.712 511.167 255.712 511.552 255.331 512 256.833 512 256.833 512 256.833 512.738 257.027 512.833 256.434 512.833 256.434 512.833 256.434 513.043 254 513.667 254.023 513.667 254.023 514.5 255.135 514.5 255.135 514.5 255.135 514.568 255.135 514.788 254 515.333 254.128 515.333 254.128 515.348 254 515.667 254.187 516.167 254 516.167 254 517 254 517 254 517.833 254.093 517.833 254.093 517.833 254.093 517.905 254 518.453 268.051 518.667 267.985 518.667 267.985 519.499 262.601 519.5 262.601 519.5 262.601 520.08 262.269 520.333 262.335 520.333 262.335 521.166 262.606 521.167 262.606 521.167 262.606 521.915 262.745 522 262.68 522 262.68 522.832 256.298 522.833 256.298 522.833 256.298 522.889 254 523.667 254 523.667 254 524.499 254.919 524.5 254.919 524.5 254.919 525.332 255.106 525.333 255.106 525.333 255.106 525.432 255.106 526.166 255.116 526.167 255.116 526.167 255.116 526.392 255.405 527 255.041 527 255.041 527.697 255.056 527.833 254.163 527.833 254.163 527.835 254 528.667 254 528.667 254 529.483 254.689 529.5 254.678 529.5 254.678 529.804 254 530.333 254.552 530.333 254.552 530.708 254.78" stroke="#FF5050" stroke-width="3.3333" stroke-linejoin="round" stroke-miterlimit="10" fill="none" fill-rule="evenodd"/><path d="M140 544 140.333 543.912 140.333 543.912 140.333 543.912 140.986 541.276 141.167 541.918 141.167 541.918 142 543.237 142 543.237 142 543.237 142.585 543.609 142.833 541.877 142.833 541.877 142.833 541.877 143.232 541.212 143.667 541.217 143.667 541.217 143.988 541.107 144.499 541.608 144.5 541.608 144.5 541.608 144.624 541.789 145.333 539.771 145.333 539.771 145.333 539.771 145.505 539.475 146.166 541.201 146.167 541.201 146.167 541.201 146.999 541.329 147 541.329 147 541.329 147.119 541.332 147.833 536.719 147.833 536.719 147.833 536.719 148.666 536.37 148.667 536.37 148.667 536.37 149.499 535.988 149.5 535.988 149.5 535.988 149.924 536.049 150.332 535.832 150.333 535.832 150.333 535.832 151.166 535.377 151.167 535.377 151.167 535.377 151.367 535.369 151.723 535.527 152 535.469 152 535.469 152.394 535.47 152.832 535.461 152.833 535.461 152.833 535.461 153.315 535.377 153.521 536.125 153.667 536.043 153.667 536.043 153.738 536.027 154.5 536.245 154.5 536.245 155.333 537.173 155.333 537.173 155.333 537.173 155.659 537.204 156.167 534.375 156.167 534.375 156.167 534.375 156.928 534.347 157 534.354 157 534.354 157.054 534.358 157.833 533.769 157.833 533.769 157.833 533.769 158.374 533.847 158.666 533.542 158.667 533.542 158.667 533.542 159.145 533.339 159.5 533.678 159.5 533.678 159.5 533.678 160.333 534.186 160.333 534.186 160.333 534.186 160.64 533.931 161.166 536.039 161.167 536.039 161.167 536.039 161.454 536.193 162 536.164 162 536.164 162.362 536.164 162.833 536.174 162.833 536.174 162.833 536.174 163.666 538.814 163.667 538.814 163.667 538.814 164.047 540.451 164.499 536.046 164.5 536.046 164.5 536.046 165.333 530.564 165.333 530.564 165.333 530.564 166.166 530.482 166.167 530.482 166.167 530.482 166.998 530.386 167 530.387 167 530.387 167.491 530.449 167.787 525.064 167.833 525.47 167.833 525.47 168.341 526.274 168.667 526.191 168.667 526.191 168.748 526.189 169.499 526.858 169.5 526.858 169.5 526.858 170.332 528.514 170.333 528.514 170.333 528.52 170.789 529.478 171.167 522.409 171.167 522.409 171.345 522.379 172 522.792 172 522.792 172.711 523.376 172.833 523.318 172.833 523.318 173.655 521.168 173.667 521.231 173.667 521.231 174.351 527.093 174.5 526.668 174.5 526.668 175.039 526.328 175.333 527.95 175.333 527.95 175.333 527.95 175.56 528.004 176.166 527.738 176.167 527.738 176.167 527.738 177 527.56 177 527.56 177 527.56 177.124 527.555 177.82 529.492 177.833 529.43 177.833 529.43 178.666 527.072 178.667 527.072 178.667 527.072 179.328 527.125 179.499 526.641 179.5 526.641 179.5 526.641 179.97 524.877 180.333 524.968 180.333 524.968 180.414 524.924 180.666 525.677 181.167 525.373 181.167 525.373 181.807 527.397 181.999 522.47 182 522.47 182 522.47 182.832 521.972 182.833 521.972 182.833 521.972 182.961 522.009 183.232 517.909 183.667 518.227 183.667 518.227 183.691 518.224 184.499 520.174 184.5 520.174 184.5 520.174 185.332 521.149 185.333 521.149 185.333 521.149 185.996 521.147 186.166 521.296 186.167 521.296 186.167 521.297 186.999 521.4 187 521.4 187 521.4 187.833 526.105 187.833 526.105 187.971 526.156 188.59 525.661 188.667 525.664 188.667 525.664 189.024 525.668 189.5 525.431 189.5 525.431 189.5 525.431 190.193 526.741 190.333 519.017 190.333 519.017 190.333 519.017 191.166 517.742 191.167 517.742 191.167 517.742 192 517.052 192 517.052 192 517.052 192.033 517.042 192.833 519.33 192.833 519.33 192.833 519.33 192.911 519.496 193.666 514.555 193.667 514.555 193.667 514.555 194.07 514.55 194.499 515.574 194.5 515.574 194.5 515.574 195.333 516.113 195.333 516.113 195.333 516.113 195.843 517.497 196.167 517.453 196.167 517.453 196.424 517.462 196.999 517.19 197 517.19 197 517.19 197.833 509.822 197.833 509.822 197.833 509.822 198.666 505.976 198.667 505.976 198.667 505.976 199.499 505.859 199.5 505.859 199.5 505.859 199.579 505.791 200.333 506.131 200.333 506.131 200.333 506.131 200.37 506.132 200.634 506.104 201.167 506.12 201.167 506.12 201.689 505.989 201.999 506.152 202 506.152 202 506.152 202.058 506.174 202.832 503.414 202.833 503.414 202.833 503.414 203.216 503.421 203.666 498.951 203.667 498.951 203.667 498.95 203.972 498.825 204.105 499.008 204.5 498.961 204.5 498.961 204.745 499.073 205.333 493.887 205.333 493.887 206.167 493.769 206.167 493.769 206.167 493.769 207 493.481 207 493.481 207 493.481 207.223 493.43 207.833 493.431 207.833 493.431 208.287 493.402 208.52 493.442 208.667 493.436 208.667 493.436 209.5 493.016 209.5 493.016 209.5 493.016 209.814 493.015 210.333 493.017 210.333 493.017 210.333 493.017 210.612 493.017 210.879 492.861 211.167 492.916 211.167 492.916 211.54 492.922 211.999 492.79 212 492.79 212 492.79 212.178 492.537 212.694 495.167 212.833 495.009 212.833 495.009 213.282 494.949 213.667 494.967 213.667 494.967 214.315 495.155 214.5 495.112 214.5 495.112 214.564 495.107 215.333 495.619 215.333 495.619 215.333 495.619 215.984 495.372 216.152 496.426 216.167 496.359 216.167 496.359 216.999 494.688 217 494.688 217 494.688 217.833 478.732 217.833 478.732 217.833 478.732 218.476 470.785 218.667 472.407 218.667 472.407 219.499 472.981 219.5 472.981 219.5 472.981 220.332 473.815 220.333 473.815 220.333 473.815 221.134 473.855 221.167 473.848 221.167 473.848 221.769 474.277 222 473.525 222 473.525 222.347 433.846 222.833 434.103 222.833 434.103 223.1 434.54 223.667 432.826 223.667 432.826 223.667 432.826 224.449 430.307 224.5 430.463 224.5 430.463 225.333 430.931 225.333 430.931 225.333 430.931 225.829 430.985 226.166 430.865 226.167 430.865 226.167 430.865 227 430.856 227 430.856 227 430.856 227.833 430.855 227.833 430.855 227.833 430.855 228.001 430.855 228.392 431.027 228.667 430.895 228.667 430.895 229.499 426.806 229.5 426.806 229.5 426.806 229.557 426.806 230.186 427.004 230.333 426.895 230.333 426.895 230.526 426.863 231.166 435.104 231.167 435.104 231.167 435.104 231.999 435.582 232 435.582 232 435.582 232.833 435.855 232.833 435.855 232.833 435.855 233.632 436.556 233.667 436.543 233.667 436.543 233.923 436.516 234.499 436.893 234.5 436.893 234.5 436.893 234.954 437.12 235.332 429.277 235.333 429.277 235.333 429.277 236.166 421.317 236.167 421.317 236.167 421.317 236.59 420.944 236.999 421.863 237 421.863 237 421.863 237.832 422.701 237.833 422.701 237.833 422.704 238.314 422.91 238.667 420.065 238.667 420.065 239.5 419.746 239.5 419.746 239.715 419.445 240.333 439.683 240.333 439.683 240.333 439.683 241.167 440.603 241.167 440.603 241.167 440.603 241.9 441.271 242 441.259 242 441.259 242.833 441.182 242.833 441.182 242.833 441.182 242.884 441.182 243.666 444.242 243.667 444.242 243.667 444.242 243.789 444.292 244.5 442.535 244.5 442.535 244.5 442.535 245.217 439.374 245.333 439.397 245.333 439.397 245.947 439.409 246.167 439.4 246.167 439.4 246.999 441.129 247 441.129 247 441.129 247.733 442.784 247.833 442.435 247.833 442.435 248.498 441.069 248.667 441.31 248.667 441.31 249.153 440.78 249.499 442.531 249.5 442.531 249.5 442.531 250.333 442.898 250.333 442.898 250.333 442.898 251.166 443.862 251.167 443.862 251.167 443.862 251.999 444.014 252 444.014 252 444.014 252.174 444.015 252.832 443.987 252.833 443.987 252.833 443.987 253.31 443.987 253.666 444.07 253.667 444.07 253.667 444.074 254.461 444.65 254.5 444.284 254.5 444.276 254.884 439.716 255.333 439.726 255.333 439.726 255.634 439.731 256.167 439.178 256.167 439.178 256.381 439.239 256.938 437.509 257 437.515 257 437.515 257.833 439.633 257.833 439.633 257.833 439.633 258.136 439.637 258.666 436.345 258.667 436.345 258.667 436.345 258.921 436.329 259.5 436.588 259.5 436.588 259.5 436.588 260.333 436.636 260.333 436.636 260.333 436.636 260.947 436.316 261.166 436.789 261.167 436.789 261.167 436.789 261.391 436.852 261.778 436.504 262 436.513 262 436.513 262.154 436.515 262.833 434.774 262.833 434.774 262.833 434.774 263.238 434.746 263.666 436.836 263.667 436.836 263.667 436.836 263.983 436.893 264.499 436.802 264.5 436.802 264.5 436.802 264.981 436.748 265.126 437.441 265.333 437.331 265.333 437.331 265.95 436.948 266.166 437.865 266.167 437.865 266.167 437.865 266.654 437.96 266.988 430.098 267 430.169 267 430.169 267.833 433.24 267.833 433.24 267.833 433.24 268.666 435.012 268.667 435.012 268.667 435.012 268.822 435.023 269.499 428.065 269.5 428.065 269.5 428.065 270.332 426.425 270.333 426.425 270.333 426.425 271.166 426.013 271.167 426.013 271.167 426.013 271.725 425.883 272 425.98 272 425.983 272.429 426.749 272.833 426.466 272.833 426.466 273.58 426.457 273.667 426.466 273.667 426.466 273.759 426.47 274.5 426.044 274.5 426.044 274.5 426.044 274.884 425.987 275.333 426.1 275.333 426.1 275.333 426.1 275.575 426.039 276.166 427.132 276.167 427.132 276.167 427.132 277 427.23 277 427.23 277 427.23 277.131 427.238 277.833 422.687 277.833 422.687 277.833 422.687 278.666 422.673 278.667 422.673 278.667 422.673 278.738 422.673 279.399 423.194 279.5 423.191 279.5 423.191 279.723 423.189 280.333 423.311 280.333 423.311 280.333 423.311 280.458 423.312 281.166 422.862 281.167 422.862 281.167 422.862 281.319 422.878 281.999 422.859 282 422.859 282 422.859 282.3 422.859 282.833 423.25 282.833 423.25 282.833 423.25 283.293 423.795 283.666 422.73 283.667 422.73 283.667 422.73 284.499 419.548 284.5 419.548 284.5 419.548 285.112 416.936 285.333 417.129 285.333 417.129 286.1 417.237 286.167 417.222 286.167 417.222 286.185 417.219 286.999 417.333 287 417.333 287 417.333 287.832 417.478 287.833 417.478 287.833 417.478 287.931 417.479 288.387 410.173 288.667 411.636 288.667 411.637 289.432 411.758 289.5 411.733 289.5 411.733 290.333 409.657 290.333 409.657 290.908 410.34 291.167 408.982 291.167 408.982 291.167 408.982 292 407.012 292 407.012 292 407.012 292.402 407.015 292.833 406.667 292.833 406.667 292.833 406.667 293.666 406.477 293.667 406.477 293.667 406.477 294.5 405.893 294.5 405.893 294.5 405.893 295.333 404.481 295.333 404.481 295.333 404.481 295.788 404.362 296.166 406.228 296.167 406.228 296.167 406.228 296.75 406.317 296.999 406.221 297 406.221 297 406.221 297.833 406.202 297.833 406.202 297.833 406.202 298.542 406.124 298.666 406.31 298.667 406.31 298.667 406.31 299.499 406.61 299.5 406.61 299.5 406.61 299.689 406.618 300.172 406.563 300.333 406.565 300.333 406.565 301.166 407.678 301.167 407.678 301.167 407.678 301.551 408.283 301.824 401.553 302 401.611 302 401.611 302.833 402.114 302.833 402.114 302.833 402.114 303.495 403.784 303.667 403.142 303.667 403.142 304.499 400.585 304.5 400.585 304.5 400.585 304.678 400.583 304.885 400.598 305.333 400.593 305.333 400.593 305.619 400.593 306.167 400.596 306.167 400.596 306.277 400.565 307 401.896 307 401.896 307.563 401.173 307.833 402.659 307.833 402.659 308.667 403.745 308.667 403.745 308.667 403.745 309.441 404.159 309.5 404.121 309.5 404.121 309.531 404.107 310.333 406.089 310.333 406.089 310.333 406.089 310.968 406.447 311.167 406.43 311.167 406.43 311.441 406.427 312 407.184 312 407.184 312 407.184 312.833 407.197 312.833 407.197 312.833 407.197 312.868 407.197 313.666 399.907 313.667 399.907 313.667 399.907 314.414 399.642 314.5 399.752 314.5 399.752 315.175 400.701 315.333 400.592 315.333 400.592 316.109 400.558 316.166 400.751 316.167 400.751 316.167 400.751 316.999 401.14 317 401.14 317 401.14 317.833 401.238 317.833 401.238 317.833 401.238 317.854 401.238 318.666 398.829 318.667 398.829 318.667 398.829 319.499 398.822 319.5 398.822 319.5 398.822 320.239 398.655 320.332 399.072 320.333 399.072 320.333 399.072 320.419 399.24 320.951 369.855 321.167 369.964 321.167 369.964 321.174 369.964 321.999 378.529 322 378.529 322 378.529 322.27 378.534 322.816 378.507 322.833 378.513 322.833 378.514 323.11 378.547 323.667 375.514 323.667 375.514 324.5 370.93 324.5 370.93 325.024 371.087 325.333 361.197 325.333 361.197 325.333 361.197 325.812 360.928 326.167 360.998 326.167 360.998 327 361.01 327 361.01 327 361.01 327.833 361.02 327.833 361.02 327.833 361.02 328.666 361.657 328.667 361.657 328.667 361.657 329.5 366.944 329.5 366.944 329.5 366.944 330.333 367.616 330.333 367.616 330.333 367.616 331.166 369.215 331.167 369.215 331.167 369.215 331.999 370.229 332 370.229 332 370.229 332.519 371.536 332.833 368.458 332.833 368.458 332.833 368.458 333.406 367.797 333.667 368.284 333.667 368.284 333.685 368.286 334.499 368.087 334.5 368.087 334.5 368.087 334.977 368.087 335.333 368.234 335.333 368.234 335.333 368.234 335.658 368.267 336.166 368.158 336.167 368.158 336.167 368.158 336.905 368.157 336.999 368.182 337 368.182 337 368.182 337.832 368.226 337.833 368.226 337.833 368.226 338.059 368.227 338.666 364.795 338.667 364.795 338.667 364.795 339.174 364.788 339.499 365.31 339.5 365.31 339.5 365.311 340.118 365.371 340.28 365.194 340.333 365.209 340.333 365.209 341.167 365.843 341.167 365.843 342 365.857 342 365.857 342 365.857 342.067 365.857 342.833 365.848 342.833 365.848 342.833 365.848 343.423 365.843 343.666 366.037 343.667 366.037 343.667 366.037 344.027 366.06 344.5 366.026 344.5 366.026 344.5 366.026 345.092 364.838 345.333 366.607 345.333 366.607 345.333 366.607 345.659 366.617 346.042 366.574 346.167 366.575 346.167 366.575 346.22 366.574 347 366.579 347 366.579 347 366.579 347.833 366.58 347.833 366.58 347.833 366.58 348.029 366.58 348.666 361.794 348.667 361.794 348.667 361.794 349.499 360.316 349.5 360.316 349.5 360.316 350.333 354.795 350.333 354.795 350.333 354.795 350.793 354.747 351.166 357.029 351.167 357.029 351.167 357.029 351.537 357.292 352 357.258 352 357.258 352.695 357.469 352.832 357.206 352.833 357.206 352.833 357.206 352.868 357.201 353.182 358.253 353.667 358.12 353.667 358.12 354.349 358.119 354.44 359.078 354.5 358.887 354.5 358.887 355.251 355.217 355.333 356.021 355.333 356.029 356.166 356.712 356.167 356.712 356.167 356.712 356.999 356.9 357 356.9 357 356.9 357.395 356.899 357.488 356.948 357.833 356.939 357.833 356.939 358.083 356.935 358.667 357.008 358.667 357.008 359.056 357.009 359.5 356.988 359.5 356.988 359.5 356.988 359.537 356.988 360.333 357.069 360.333 357.069 360.333 357.069 360.62 357.189 361.166 356.099 361.167 356.099 361.167 356.099 362 347.37 362 347.37 362 347.37 362.532 347.361 362.833 348.055 362.833 348.055 362.833 348.055 363.28 348.38 363.666 339.404 363.667 339.404 363.667 339.404 363.761 339.369 364.5 339.641 364.5 339.641 364.5 339.641 365.064 340.578 365.333 340.567 365.333 340.567 365.943 340.241 366.166 348.523 366.167 348.523 366.167 348.523 366.284 348.246 366.999 351.953 367 351.953 367 351.953 367.605 351.91 367.833 352.439 367.833 352.439 367.833 352.439 368.041 352.502 368.666 349.471 368.667 349.471 368.667 349.471 369.008 349.421 369.499 349.827 369.5 349.827 369.5 349.827 370.332 349.839 370.333 349.839 370.333 349.839 370.525 349.841 371.166 349.758 371.167 349.758 371.167 349.758 371.352 349.756 371.999 349.941 372 349.941 372 349.941 372.228 349.951 372.586 349.696 372.833 349.722 372.833 349.722 373.666 349.726 373.667 349.726 373.667 349.726 374.5 349.787 374.5 349.787 375.333 351.366 375.333 351.366 376.053 351.46 376.167 351.276 376.167 351.276 376.167 351.276 376.399 351.106 377 352.827 377 352.827 377 352.827 377.448 352.768 377.833 352.968 377.833 352.968 377.833 352.968 378.047 352.972 378.667 352.969 378.667 352.969 379.15 352.889 379.5 353.036 379.5 353.036 379.5 353.036 379.899 353.038 380.333 353.037 380.333 353.037 380.432 353.037 381.006 353.314 381.167 353.306 381.167 353.306 381.396 353.304 382 355.116 382 355.116 382 355.116 382.833 356.117 382.833 356.117 382.833 356.117 382.854 356.12 383.666 351.758 383.667 351.758 383.667 351.758 384.499 351.42 384.5 351.42 384.5 351.42 385.223 344.308 385.333 344.371 385.333 344.371 385.418 344.391 386.166 343.417 386.167 343.417 386.167 343.417 386.999 326.818 387 326.818 387 326.818 387.832 304.027 387.833 304.027 387.833 304.027 388.327 303.964 388.667 303.972 388.667 303.972 388.803 303.972 389.499 304.224 389.5 304.224 389.5 304.224 390.216 304.697 390.332 303.96 390.333 303.96 390.333 303.953 391.167 295.008 391.167 295.008 391.235 295.008 391.836 295.188 392 295.048 392 295.048 392.443 295.064 392.833 286.996 392.833 286.996 392.833 286.996 393.667 286.806 393.667 286.806 393.667 286.806 394.431 286.601 394.5 286.847 394.5 286.847 394.5 286.847 395.27 287.12 395.333 287.114 395.333 287.114 396.166 286.008 396.167 286.008 396.167 286.008 396.446 254 397 254.003 397 254.003 397.566 254 397.833 254.271 397.833 254.271 397.833 254.271 398.438 254.481 398.667 254.479 398.667 254.479 399.018 254.479 399.481 254.979 399.5 254.963 399.5 254.963 400.333 254.447 400.333 254.447 400.333 254.447 400.429 254 401.167 254 401.167 254 401.999 255.077 402 255.077 402 255.077 402.716 255.016 402.833 256.038 402.833 256.038 402.833 256.038 403.666 256.981 403.667 256.981 403.667 256.981 404.369 257.358 404.5 257.275 404.5 257.275 404.979 254 405.333 254.013 405.333 254.013 405.986 254.77 406.167 254.707 406.167 254.707 406.654 254.812 406.836 254 407 254 407 254 407.832 254.296 407.833 254.296 407.833 254.296 408.346 254.25 408.667 256.013 408.667 256.013 409.308 256.546 409.5 256.545 409.5 256.545 410.333 256.561 410.333 256.561 410.333 256.561 410.374 256.561 411.166 256.366 411.167 256.366 411.167 256.366 412 256.359 412 256.359 412 256.359 412.046 256.359 412.833 254.943 412.833 254.943 412.833 254.943 413.052 254.932 413.666 255.21 413.667 255.21 413.667 255.21 414.5 255.223 414.5 255.223 414.5 255.223 414.91 255.228 415.075 254 415.333 254 415.333 254 416.166 254.005 416.167 254.005 416.167 254.005 416.497 254.007 416.703 254 417 254 417 254 417.833 254 417.833 254 418.667 254 418.667 254 419.258 260.969 419.5 260.171 419.5 260.171 420.332 258.812 420.333 258.812 420.333 258.812 420.944 254 421.167 254.961 421.167 254.961 421.744 255.909 421.999 254.79 422 254.79 422 254.79 422.064 254 422.833 254 422.833 254 423.667 254 423.667 254 424.499 254.184 424.5 254.184 424.5 254.187 425.333 255.343 425.333 255.343 425.675 255.193 425.941 260.768 426.167 260.396 426.167 260.396 426.533 254 427 254.004 427 254.004 427.185 254.55 427.605 254 427.833 254 427.833 254 428.197 254.087 428.667 254 428.667 254 429.097 256.017 429.5 255.481 429.5 255.481 430.333 254.977 430.333 254.977 430.333 254.977 430.785 254.904 431.166 255.505 431.167 255.505 431.167 255.505 431.786 255.533 432 255.533 432 255.533 432.685 255.798 432.833 254.975 432.833 254.975 432.833 254.975 432.881 254 433.667 254 433.667 254 434.499 254.152 434.5 254.152 434.5 254.152 434.809 254.154 434.843 254 435.333 254 435.333 254 436.166 254.923 436.167 254.923 436.167 254.923 436.999 255.107 437 255.107 437 255.107 437.832 255.212 437.833 255.212 437.833 255.212 437.936 255.213 438.666 255.018 438.667 255.018 438.667 255.018 438.99 254 439.5 254 439.5 254 440.332 255.51 440.333 255.51 440.333 255.51 440.604 255.51 441.166 255.853 441.167 255.853 441.167 255.854 441.208 255.894 441.414 254 442 254.075 442 254.075 442.833 254.435 442.833 254.435 443.213 254.436 443.621 254 443.667 254 443.667 254 444.5 254 444.5 254 445.333 254 445.333 254 446.166 254.008 446.167 254.008 446.167 254.008 446.728 254.02 447 254 447 254 447 254 447.031 254 447.833 254 447.833 254 448.546 254.245 448.667 254.243 448.667 254.243 448.73 254.247 448.847 254 449.5 254 449.5 254 449.984 254.156 450.333 254 450.333 254 451.166 254.145 451.167 254.145 451.167 254.145 451.688 254.153 451.789 254 452 254 452 254 452.833 255.043 452.833 255.043 452.833 255.043 453.666 255.737 453.667 255.737 453.667 255.737 453.931 255.76 454.424 255.736 454.5 255.736 454.5 255.736 454.706 255.736 455.326 254 455.333 254 455.333 254 456.166 254.044 456.167 254.044 456.167 254.044 456.583 254.044 456.596 254 457 254 457 254 457.832 254.836 457.833 254.836 457.833 254.837 458.263 254.909 458.667 254.909 458.667 254.909 459.083 254.921 459.209 254 459.5 254 459.5 254 460.333 254 460.333 254 460.997 254.884 461.167 254.88 461.167 254.88 461.54 255.725 462 255.702 462 255.702 462.65 256.371 462.799 254 462.833 254 462.833 254 463.666 270.765 463.667 270.765 463.667 270.765 463.792 270.868 464.5 260.556 464.5 260.556 464.5 260.556 465.333 256.735 465.333 256.735 465.333 256.735 466.166 256.602 466.167 256.602 466.167 256.602 466.482 256.325 466.767 257.677 467 257.589 467 257.589 467.833 257.575 467.833 257.575 467.833 257.575 468.198 257.273 468.534 257.894 468.667 257.822 468.667 257.822 469.043 257.795 469.499 258.597 469.5 258.597 469.5 258.597 470.333 260.043 470.333 260.043 470.333 260.043 470.725 260.18 471.166 255.609 471.167 255.609 471.167 255.609 471.581 255.575 471.812 256.283 472 256.081 472 256.081 472.532 255.763 472.833 255.993 472.833 255.993 473.441 256.172 473.667 256.151 473.667 256.151 474.064 254 474.5 254.675 474.5 254.678 475.294 254.959 475.333 254.959 475.333 254.959 475.35 254.959 476.167 255.897 476.167 255.897 476.492 256.032 476.709 254 477 254 477 254 477.833 254 477.833 254 478.56 254.911 478.667 254.83 478.667 254.83 478.909 254.787 479.5 254.799 479.5 254.799 479.768 254.799 480.333 256.324 480.333 256.324 480.333 256.324 481.059 257.142 481.167 257.141 481.167 257.141 481.196 257.141 481.397 258.3 482 258.08 482 258.08 482.14 258.079 482.833 259.996 482.833 259.996 482.833 259.996 483.666 260.083 483.667 260.083 483.667 260.083 484.5 261.823 484.5 261.823 484.5 261.823 484.861 261.928 485.333 261.264 485.333 261.264 485.333 261.264 485.768 261.22 486.166 261.703 486.167 261.703 486.167 261.703 486.999 262.29 487 262.29 487 262.29 487.535 265.643 487.833 263.302 487.833 263.302 488.666 257.816 488.667 257.816 488.667 257.816 488.943 254 489.5 254.115 489.5 254.115 490.332 255.487 490.333 255.487 490.333 255.487 490.484 254 491.166 255.9 491.167 255.9 491.167 255.902 491.999 256.779 492 256.779 492 256.779 492.833 258.095 492.833 258.095 493.667 258.77 493.667 258.77 494.5 259.232 494.5 259.232 494.5 259.232 494.822 259.235 495.25 259.196 495.333 259.196 495.333 259.196 495.354 259.196 496.095 254 496.167 254 496.167 254 497 259.207 497 259.207 497 259.207 497.613 260.108 497.833 259.398 497.833 259.398 497.937 254 498.667 255.512 498.667 255.512 499.5 257.547 499.5 257.547 499.5 257.547 500.031 257.553 500.333 257.534 500.333 257.534 500.333 257.534 500.949 257.377 501.166 258.021 501.167 258.021 501.167 258.021 501.757 258.326 502 258.297 502 258.297 502.833 259.193 502.833 259.193 502.833 259.193 503.659 259.304 503.667 259.303 503.667 259.303 503.841 259.237 504.499 261.155 504.5 261.155 504.5 261.155 505 261.165 505.332 261.104 505.333 261.104 505.333 261.104 506.166 258.954 506.167 258.954 506.167 258.954 506.445 258.929 507 258.93 507 258.93 507.049 258.93 507.832 255.106 507.833 255.106 507.833 255.106 507.973 255.105 508.666 255.106 508.667 255.106 508.667 255.106 508.821 255.106 509.235 254 509.5 254 509.5 254 510.333 254 510.333 254 511.054 254.001 511.167 254 511.167 254 512 254.228 512 254.228 512 254.228 512.477 254.225 512.484 254.229 512.833 254.225 512.833 254.225 513.295 254.261 513.33 254 513.667 254 513.667 254 514.235 254 514.5 254 514.5 254 515.333 254.704 515.333 254.704 515.333 254.704 516.166 254.706 516.167 254.706 516.167 254.706 516.405 254.706 517 254.694 517 254.694 517 254.694 517.833 254.122 517.833 254.122 517.833 254.122 518.172 254 518.667 254.007 518.667 254.007 519.411 254.014 519.473 254 519.5 254 519.5 254 520.333 254.813 520.333 254.813 520.333 254.813 521.155 255.139 521.167 255.021 521.167 255.021 521.386 254 522 254 522 254 522.832 254.299 522.833 254.299 522.833 254.299 523.666 254.404 523.667 254.404 523.667 254.404 524.367 254.428 524.499 254.137 524.5 254.137 524.5 254.137 525.332 254.016 525.333 254.016 525.333 254.016 525.729 254.016 526.166 254.009 526.167 254.009 526.167 254.009 526.371 254 527 259.546 527 259.546 527.549 259.645 527.833 254.717 527.833 254.717 528.371 256.18 528.588 254 528.667 254 528.667 254 528.997 254.584 529.5 254.129 529.5 254.129 529.581 254.426 529.715 254 530.333 254 530.333 254 530.708 254" stroke="#6699FF" stroke-width="3.3333" stroke-linejoin="round" stroke-miterlimit="10" fill="none" fill-rule="evenodd"/><path d="M140 544 140.333 544 140.333 544 140.986 539.39 141.167 540.068 141.167 540.068 142 541.336 142 541.336 142 541.336 142.489 541.627 142.833 539.294 142.833 539.294 142.833 539.294 143.666 538.265 143.667 538.265 143.667 538.265 143.988 538.161 144.499 538.644 144.5 538.644 144.5 538.644 144.624 538.815 145.333 536.787 145.333 536.787 145.333 536.787 145.678 536.489 146.166 538.791 146.167 538.791 146.167 538.791 146.999 539.418 147 539.418 147 539.418 147.119 539.42 147.833 534.865 147.833 534.865 147.833 534.865 148.666 534.521 148.667 534.521 148.667 534.521 149.499 534.323 149.5 534.323 149.5 534.323 149.924 534.329 150.332 534.123 150.333 534.123 150.333 534.123 151.166 533.669 151.167 533.669 151.167 533.669 151.367 533.643 151.723 533.798 152 533.748 152 533.748 152.832 533.742 152.833 533.742 152.833 533.742 153.521 533.776 153.667 533.614 153.667 533.614 153.738 533.584 154.5 533.765 154.5 533.765 155.182 534.597 155.333 534.301 155.333 534.301 155.506 534.223 155.659 534.975 156.167 534.605 156.167 534.605 157 534.292 157 534.292 157 534.292 157.833 533.697 157.833 533.697 157.833 533.697 158.374 533.728 158.666 533.401 158.667 533.401 158.667 533.401 159.145 533.196 159.5 533.535 159.5 533.535 159.5 533.535 160.333 533.579 160.333 533.579 160.333 533.579 160.64 533.31 161.166 535.455 161.167 535.455 161.167 535.455 161.454 535.615 162 535.586 162 535.586 162.463 535.586 162.833 535.595 162.833 535.595 162.833 535.595 163.666 537.983 163.667 537.983 163.667 537.983 164.047 538.098 164.499 532.725 164.5 532.725 164.5 532.725 165.333 527.846 165.333 527.846 165.333 527.846 166.166 527.774 166.167 527.774 166.167 527.774 166.872 527.113 166.999 534.011 167 534.011 167 534.011 167.832 538.375 167.833 538.375 167.833 538.375 168.341 539.162 168.667 539.078 168.667 539.078 168.748 539.076 169.499 539.678 169.5 539.678 169.5 539.678 170.332 541.353 170.333 541.353 170.333 541.358 170.789 542.207 171.167 538.686 171.167 538.686 171.345 538.655 171.814 538.773 172 538.75 172 538.75 172.833 538.679 172.833 538.679 172.833 538.679 173.666 538.454 173.667 538.454 173.667 538.454 174.198 538.466 174.5 538.062 174.5 538.062 174.5 538.062 175.036 538.034 175.333 538.114 175.333 538.114 175.333 538.114 175.624 538.119 175.944 536.347 176.167 536.563 176.167 536.563 176.486 536.56 177 536.563 177 536.563 177 536.563 177.273 536.461 177.691 537.308 177.833 537.296 177.833 537.296 178.246 537.293 178.666 537.303 178.667 537.303 178.667 537.303 178.677 537.303 179.499 536.611 179.5 536.611 179.5 536.611 179.642 535.963 180.333 543.793 180.333 543.793 180.333 543.793 180.727 543.823 181.166 543.72 181.167 543.72 181.167 543.72 181.82 543.687 181.999 543.785 182 543.785 182 543.785 182.366 543.814 182.832 537.149 182.833 537.149 182.833 537.149 182.885 537.141 183.666 538.291 183.667 538.291 183.667 538.291 184.499 540.722 184.5 540.722 184.5 540.722 184.862 541.517 185.333 541.461 185.333 541.461 185.527 541.461 186.166 542.321 186.167 542.321 186.167 542.322 186.705 542.563 186.999 537.149 187 537.149 187 537.145 187.833 536.797 187.833 536.797 188.667 536.78 188.667 536.78 189.5 536.014 189.5 536.014 189.5 536.014 190.097 530.887 190.333 530.887 190.333 530.887 190.921 531.038 191.166 529.199 191.167 529.199 191.167 529.199 191.83 529.153 192 529.154 192 529.154 192.16 529.154 192.454 529.073 192.833 529.096 192.833 529.096 193.494 528.986 193.666 530.079 193.667 530.079 193.667 530.079 194.499 530.405 194.5 530.405 194.5 530.405 194.876 530.088 195.333 531.1 195.333 531.1 195.333 531.1 196.029 531.094 196.166 531.484 196.167 531.484 196.167 531.484 196.771 531.656 197 531.613 197 531.613 197.796 531.083 197.833 531.196 197.833 531.196 197.981 531.402 198.667 531.357 198.667 531.357 198.88 531.357 199.499 531.238 199.5 531.238 199.5 531.238 199.563 531.228 200.188 531.405 200.333 531.387 200.333 531.387 201.166 531.307 201.167 531.307 201.167 531.307 201.438 531.302 201.999 531.871 202 531.871 202 531.871 202.689 533.551 202.833 533.507 202.833 533.507 203.317 533.492 203.666 534.456 203.667 534.456 203.667 534.459 204.053 534.739 204.5 534.345 204.5 534.345 205.333 533.984 205.333 533.984 206.167 533.738 206.167 533.738 206.167 533.738 206.592 533.712 207 534.554 207 534.554 207 534.554 207.833 535.341 207.833 535.341 207.833 535.341 208.179 535.332 208.666 537.249 208.667 537.249 208.667 537.249 208.949 537.324 209.352 532.643 209.5 532.734 209.5 532.734 210.333 534.663 210.333 534.663 210.333 534.663 211.166 536.647 211.167 536.647 211.167 536.647 211.329 536.417 211.999 537.442 212 537.442 212 537.442 212.833 538.471 212.833 538.471 212.833 538.471 213.648 539.137 213.667 539.136 213.667 539.136 214.499 538.862 214.5 538.862 214.5 538.862 214.759 538.859 215.333 539.238 215.333 539.238 215.333 539.238 215.998 539.257 216.167 539.255 216.167 539.255 216.233 539.255 216.851 539.849 217 539.845 217 539.845 217.216 539.842 217.833 540.007 217.833 540.007 217.833 540.007 218.666 540.011 218.667 540.011 218.667 540.011 219.499 540.764 219.5 540.764 219.5 540.764 220.332 542.866 220.333 542.866 220.333 542.866 221.135 543.828 221.167 543.739 221.167 543.736 221.952 543.447 222 543.45 222 543.45 222.02 543.451 222.675 543.196 222.833 543.39 222.833 543.39 223.268 543.453 223.667 529.9 223.667 529.9 223.667 529.9 224.5 529.755 224.5 529.755 224.5 529.755 224.748 529.725 225.333 529.744 225.333 529.744 225.747 529.745 226.166 521.312 226.167 521.312 226.167 521.312 226.864 521.192 227 521.218 227 521.218 227.334 521.228 227.833 518.693 227.833 518.693 227.833 518.693 228.399 515.304 228.667 515.392 228.667 515.392 228.679 515.409 229.499 507.386 229.5 507.386 229.5 507.386 229.897 507.385 230.262 508.15 230.333 508.13 230.333 508.13 230.87 507.707 231.167 507.974 231.167 507.974 231.711 507.994 232 507.975 232 507.975 232.764 507.875 232.833 507.876 232.833 507.876 233.346 507.814 233.666 508.949 233.667 508.949 233.667 508.949 233.767 509.038 234.407 503.311 234.5 503.349 234.5 503.349 235.127 503.377 235.333 503.353 235.333 503.353 235.596 503.346 236.166 504.256 236.167 504.256 236.167 504.256 236.95 504.458 237 504.424 237 504.425 237.12 504.491 237.328 503.97 237.833 504.443 237.833 504.443 237.943 504.436 238.667 505.805 238.667 505.805 239.025 505.914 239.5 505.892 239.5 505.892 240.258 506.17 240.333 505.884 240.333 505.884 240.333 505.884 241.167 501.831 241.167 501.831 241.167 501.831 242 501.829 242 501.829 242 501.829 242.169 501.829 242.833 503.33 242.833 503.33 242.833 503.33 243.666 503.71 243.667 503.71 243.667 503.71 243.763 503.71 244.429 503.685 244.5 503.686 244.5 503.686 245 503.248 245.333 503.996 245.333 503.996 245.333 503.996 245.389 504.017 246.01 502.635 246.167 502.671 246.167 502.671 246.597 502.682 246.999 502.48 247 502.48 247 502.48 247.064 502.478 247.491 503.091 247.833 503.088 247.833 503.088 248.194 503.098 248.525 502.978 248.667 503.002 248.667 503.002 249.499 504.459 249.5 504.459 249.5 504.459 250.333 504.699 250.333 504.699 250.333 504.699 250.447 504.7 251.166 504.692 251.167 504.692 251.167 504.692 251.285 504.689 251.999 504.77 252 504.77 252 504.77 252.071 504.773 252.832 491.201 252.833 491.201 252.833 491.201 253.289 491.196 253.585 492.139 253.667 492.01 253.667 492.009 254.301 491.855 254.499 492.413 254.5 492.413 254.5 492.414 255.024 492.516 255.333 492.311 255.333 492.311 255.524 492.301 256.117 494.141 256.167 493.946 256.167 493.946 256.849 491.481 257 491.651 257 491.651 257.628 492.987 257.833 488.478 257.833 488.478 257.833 488.478 257.848 488.169 258.666 489.124 258.667 489.124 258.667 489.124 259.5 491.126 259.5 491.126 259.5 491.126 259.581 491.135 260.333 491.092 260.333 491.092 260.333 491.092 261.166 484.217 261.167 484.217 261.167 484.217 261.398 483.196 262 483.75 262 483.75 262.833 484.752 262.833 484.752 262.833 484.752 263.666 486.738 263.667 486.738 263.667 486.738 263.766 486.603 264.403 488.407 264.5 487.812 264.5 487.812 264.928 485.701 265.333 485.706 265.333 485.706 265.734 487.38 266.166 483.798 266.167 483.798 266.167 483.798 266.277 477.43 267 479.167 267 479.167 267.4 479.34 267.833 479.147 267.833 479.147 267.833 479.147 267.923 479.139 268.666 480.809 268.667 480.809 268.667 480.809 268.829 480.813 269.499 480.322 269.5 480.322 269.5 480.322 269.524 480.322 269.979 481.594 270.333 480.638 270.333 480.638 271.166 478.37 271.167 478.37 271.167 478.369 271.999 478.144 272 478.144 272 478.143 272.833 478.018 272.833 478.018 272.864 478.018 273.611 484.049 273.667 483.993 273.667 483.993 273.948 475.579 274.5 475.683 274.5 475.683 274.563 475.684 275.271 475.613 275.333 475.642 275.333 475.642 275.342 475.645 276.166 475.165 276.167 475.165 276.167 475.165 276.99 474.424 277 474.577 277 474.577 277.833 476.28 277.833 476.28 277.833 476.28 278.666 477.765 278.667 477.765 278.667 477.765 278.782 477.768 279.499 477.233 279.5 477.233 279.5 477.233 280.17 477.214 280.333 477.252 280.333 477.252 280.333 477.252 281.166 477.268 281.167 477.268 281.167 477.268 281.999 477.926 282 477.926 282 477.926 282.2 477.935 282.833 472.173 282.833 472.173 282.833 472.173 283.209 472.17 283.666 472.574 283.667 472.574 283.667 472.574 284.111 472.553 284.499 473.511 284.5 473.511 284.5 473.511 285.001 473.229 285.333 492.129 285.333 492.129 285.333 492.129 285.653 492.18 286.167 492.18 286.167 492.18 286.409 492.175 286.999 494.742 287 494.742 287 494.742 287.832 495.172 287.833 495.172 287.833 495.172 288.666 496.059 288.667 496.059 288.667 496.059 288.916 496.05 289.432 496.479 289.5 496.423 289.5 496.423 289.535 496.405 290.333 496.863 290.333 496.863 291.017 497.6 291.167 497.42 291.167 497.42 292 496.323 292 496.323 292 496.323 292.656 492.354 292.833 492.912 292.833 492.912 293.379 493.773 293.667 493.336 293.667 493.336 294.5 493.053 294.5 493.053 294.5 493.053 295.023 493.049 295.333 494.881 295.333 494.881 295.333 494.881 295.682 495.184 296.113 485.639 296.167 485.858 296.167 485.858 296.99 486.211 297 486.206 297 486.206 297.659 486.15 297.833 486.387 297.833 486.387 297.833 486.387 298.666 486.484 298.667 486.484 298.667 486.484 299.499 486.597 299.5 486.597 299.5 486.597 300.333 486.623 300.333 486.623 300.333 486.623 301.061 494.735 301.167 494.543 301.167 494.543 301.328 494.534 301.999 495.134 302 495.134 302 495.134 302.612 496.991 302.833 496.674 302.833 496.674 303.131 496.629 303.666 498.279 303.667 498.279 303.667 498.279 304.413 499.41 304.5 499.387 304.5 499.387 304.554 499.379 305.332 499.844 305.333 499.844 305.333 499.845 306.167 500.241 306.167 500.241 306.401 500.242 307 500.21 307 500.21 307.833 500.199 307.833 500.199 308.667 498.255 308.667 498.255 308.667 498.255 308.934 499.216 309.5 477 309.5 477 309.5 477 310.333 476.601 310.333 476.601 310.333 476.601 310.841 476.482 311.166 476.615 311.167 476.615 311.167 476.615 311.874 476.629 312 476.629 312 476.629 312.833 466.829 312.833 466.829 312.833 466.829 313.128 466.901 313.607 465.17 313.667 465.181 313.667 465.181 313.72 465.187 314.451 460.868 314.5 461.177 314.5 461.177 314.996 461.97 315.333 461.456 315.333 461.456 316.166 459.952 316.167 459.952 316.167 459.952 316.68 451.771 317 453.68 317 453.68 317.833 454.529 317.833 454.529 317.833 454.529 318.206 454.539 318.666 454.487 318.667 454.487 318.667 454.487 319.135 454.67 319.499 454.165 319.5 454.165 319.5 454.165 319.578 454.156 320.332 455.54 320.333 455.54 320.333 455.54 320.609 455.478 321.166 456.44 321.167 456.44 321.167 456.44 321.393 456.444 321.893 453.041 322 453.231 322 453.232 322.832 454.4 322.833 454.4 322.833 454.4 323.345 454.694 323.667 454.671 323.667 454.671 324.349 454.838 324.5 454.583 324.5 454.583 324.617 454.523 324.985 455.024 325.333 454.812 325.333 454.812 326.167 455.355 326.167 455.355 326.167 455.355 326.725 455.583 327 455.553 327 455.553 327.463 455.55 327.592 456.851 327.833 456.195 327.833 456.195 328.666 453.975 328.667 453.975 328.667 453.975 328.71 453.975 329.5 459.544 329.5 459.544 329.5 459.544 330.202 459.768 330.333 459.758 330.333 459.758 331.051 459.731 331.166 459.761 331.167 459.761 331.167 459.761 331.386 459.761 331.999 460.081 332 460.081 332 460.081 332.833 461.2 332.833 461.2 332.833 461.2 332.919 461.2 333.559 461.168 333.667 461.177 333.667 461.177 334.499 461.508 334.5 461.508 334.5 461.508 335.333 461.586 335.333 461.586 335.333 461.586 335.388 461.671 336.166 460.997 336.167 460.997 336.167 460.997 336.254 460.997 336.999 460.998 337 460.998 337 460.998 337.123 460.998 337.832 461.906 337.833 461.906 337.833 461.906 338.347 462.067 338.667 462.064 338.667 462.064 338.906 462.064 339.499 462.717 339.5 462.717 339.5 462.717 339.708 462.721 340.18 462.328 340.333 462.372 340.333 462.372 340.736 462.396 341.167 458.882 341.167 458.882 342 458.837 342 458.837 342 458.837 342.71 458.837 342.833 458.86 342.833 458.86 342.833 458.86 343.329 458.871 343.666 458.401 343.667 458.401 343.667 458.401 343.695 458.322 344.183 462.341 344.5 462.253 344.5 462.253 345.333 460.472 345.333 460.472 345.333 460.472 345.826 460.401 346.166 461.788 346.167 461.788 346.167 461.788 346.499 461.861 347 461.323 347 461.323 347 461.323 347.755 461.318 347.833 462.071 347.833 462.071 347.833 462.071 348.247 462.791 348.666 459.569 348.667 459.569 348.667 459.569 349.499 458.608 349.5 458.608 349.5 458.608 350.333 458.544 350.333 458.544 350.333 458.544 350.703 458.531 351.166 460.467 351.167 460.467 351.167 460.467 351.691 460.49 351.999 460.349 352 460.349 352 460.349 352.004 460.348 352.832 462.848 352.833 462.848 352.833 462.848 353.666 463.801 353.667 463.801 353.667 463.801 354.499 466.229 354.5 466.229 354.5 466.229 355.332 467.526 355.333 467.526 355.333 467.526 356.166 467.529 356.167 467.529 356.167 467.529 356.205 467.529 356.999 467.116 357 467.116 357 467.109 357.524 463.816 357.833 463.819 357.833 463.819 358.328 465.021 358.667 465.02 358.667 465.02 359.313 465.172 359.5 460.637 359.5 460.637 359.5 460.637 359.816 460.524 360.333 461.525 360.333 461.525 360.333 461.525 361.166 461.634 361.167 461.634 361.167 461.634 361.593 461.634 361.978 455.363 362 455.382 362 455.382 362.833 455.474 362.833 455.474 362.833 455.474 363.666 455.589 363.667 455.589 363.667 455.589 364.5 456.045 364.5 456.045 364.5 456.045 364.918 456.058 365.333 455.88 365.333 455.88 365.333 455.88 365.866 455.785 366.166 456.084 366.167 456.084 366.167 456.084 366.807 456.105 366.999 456.045 367 456.045 367 456.045 367.057 456.04 367.833 456.317 367.833 456.317 367.833 456.317 367.955 456.308 368.666 456.674 368.667 456.674 368.667 456.674 368.913 456.699 369.499 456.632 369.5 456.632 369.5 456.632 370.332 448.78 370.333 448.78 370.333 448.78 370.573 448.778 371.166 450.662 371.167 450.662 371.167 450.662 371.831 450.677 371.999 450.661 372 450.661 372 450.661 372.617 450.643 372.832 451.01 372.833 451.01 372.833 451.011 373.465 451.076 373.666 448.035 373.667 448.035 373.667 447.993 374.5 447.385 374.5 447.385 375.333 447.237 375.333 447.237 375.539 446.975 376.167 447.01 376.167 447.01 376.772 447.069 377 439.476 377 439.476 377 439.476 377.833 434.724 377.833 434.724 377.833 434.724 378.666 434.622 378.667 434.622 378.667 434.622 379.5 432.609 379.5 432.609 379.5 432.609 380.333 432.451 380.333 432.451 380.333 432.451 380.477 432.451 381.166 433.477 381.167 433.477 381.167 433.477 382 435.891 382 435.891 382 435.891 382.201 435.892 382.668 430.411 382.833 430.439 382.833 430.439 383.666 430.088 383.667 430.088 383.667 430.088 383.76 430.087 384.499 430.317 384.5 430.317 384.5 430.317 385.333 432.266 385.333 432.266 385.333 432.266 385.646 432.275 386.166 432.174 386.167 432.174 386.167 432.174 386.561 432.164 386.999 433.672 387 433.672 387 433.672 387.832 434.621 387.833 434.621 387.833 434.621 388.666 435.452 388.667 435.452 388.667 435.452 389.499 437.255 389.5 437.255 389.5 437.255 389.675 437.366 390.332 432.423 390.333 432.423 390.333 432.423 390.8 432.409 391.167 433.472 391.167 433.472 392 434.789 392 434.789 392.833 435.974 392.833 435.974 392.833 435.974 393.241 437.032 393.667 436.833 393.667 436.833 394.256 434.956 394.5 436.675 394.5 436.675 395.333 439.169 395.333 439.169 395.333 439.169 395.912 438.441 396.166 442.297 396.167 442.297 396.167 442.297 397 443.944 397 443.944 397 443.944 397.833 444.534 397.833 444.534 397.833 444.534 398.151 444.522 398.666 445.616 398.667 445.616 398.667 445.616 399.41 446.003 399.5 445.928 399.5 445.928 400.095 445.748 400.333 445.766 400.333 445.766 401.166 446.083 401.167 446.083 401.167 446.083 401.999 446.142 402 446.142 402 446.142 402.517 446.164 402.833 443.132 402.833 443.132 402.833 443.132 402.97 443.086 403.666 444.565 403.667 444.565 403.667 444.565 404.131 444.608 404.499 444.308 404.5 444.308 404.5 444.308 405.332 444.152 405.333 444.152 405.333 444.152 405.344 444.152 405.681 444.234 406.167 444.233 406.167 444.233 406.873 444.063 406.999 444.561 407 444.561 407 444.563 407.832 445.265 407.833 445.265 407.833 445.265 408.057 445.282 408.667 445.204 408.667 445.204 408.745 445.204 409.5 446.788 409.5 446.788 410.333 454.375 410.333 454.375 410.333 454.375 410.716 454.589 411.167 454.55 411.167 454.55 411.19 454.55 412 455.127 412 455.127 412 455.127 412.091 455.147 412.767 455.064 412.833 455.066 412.833 455.066 413.666 455.08 413.667 455.08 413.667 455.08 413.959 455.081 414.5 454.899 414.5 454.899 414.5 454.899 415.228 454.75 415.333 455.35 415.333 455.35 415.333 455.35 415.55 456.038 416.167 455.833 416.167 455.833 416.664 456.712 416.999 448.415 417 448.415 417 448.415 417.552 448.372 417.833 448.47 417.833 448.47 417.833 448.47 418.101 448.467 418.666 450.55 418.667 450.55 418.667 450.55 419.499 450.589 419.5 450.589 419.5 450.589 419.527 450.59 420.016 448.525 420.333 448.662 420.333 448.662 421.166 448.85 421.167 448.85 421.167 448.85 421.962 449.045 422 449.042 422 449.042 422.132 449.035 422.832 449.641 422.833 449.641 422.833 449.641 423.666 450.635 423.667 450.635 423.667 450.635 424.499 451.042 424.5 451.042 424.5 451.042 425.167 451.04 425.333 451.062 425.333 451.062 425.966 450.814 426.167 451.071 426.167 451.071 426.311 451.099 427 451.053 427 451.053 427 451.053 427.27 451.05 427.833 451.05 427.833 451.05 428.495 451.83 428.667 451.787 428.667 451.787 429.061 452.133 429.5 447.353 429.5 447.353 429.5 447.353 430.333 447.125 430.333 447.125 430.333 447.125 430.436 447.124 431.14 449.594 431.167 449.552 431.167 449.552 431.715 449.288 432 449.308 432 449.308 432.112 449.316 432.833 444.724 432.833 444.724 432.833 444.724 433.666 437.035 433.667 437.035 433.667 437.035 434.499 436.991 434.5 436.991 434.5 436.991 435.316 437.099 435.333 436.955 435.333 436.955 435.333 436.955 436.166 434.705 436.167 434.705 436.167 434.705 436.999 434.696 437 434.696 437 434.696 437.721 434.695 437.833 434.695 437.833 434.695 437.905 434.695 438.666 433.996 438.667 433.996 438.667 433.996 438.881 433.989 439.499 434.116 439.5 434.116 439.5 434.116 439.784 434.148 440.332 433.973 440.333 433.973 440.333 433.973 440.391 433.973 441.166 435.195 441.167 435.195 441.167 435.195 441.296 435.203 442 432.391 442 432.391 442.832 429.096 442.833 429.097 442.833 429.097 443.667 430.411 443.667 430.411 443.667 430.411 444.5 431.789 444.5 431.789 444.5 431.789 444.946 431.795 445.333 431.734 445.333 431.734 445.333 431.734 446.166 428.741 446.167 428.741 446.167 428.741 446.927 428.75 447 428.173 447 428.173 447 428.173 447.833 425.452 447.833 425.452 447.833 425.452 447.863 425.452 448.666 430.117 448.667 430.117 448.667 430.117 449.5 430.621 449.5 430.621 449.5 430.621 450.311 430.929 450.333 430.924 450.333 430.924 450.867 431.36 451.166 429.545 451.167 429.545 451.167 429.545 451.999 429.515 452 429.515 452 429.515 452.833 429.511 452.833 429.511 452.833 429.511 452.943 429.51 453.194 429.722 453.667 429.645 453.667 429.645 454.005 429.641 454.499 430.93 454.5 430.93 454.5 430.93 455.088 430.947 455.333 430.938 455.333 430.938 455.4 430.937 456.166 432.931 456.167 432.931 456.167 432.931 456.195 432.937 456.999 432.659 457 432.659 457 432.659 457.832 432.613 457.833 432.613 457.833 432.613 458.666 432.176 458.667 432.176 458.667 432.176 459.5 431.484 459.5 431.484 460.333 431.436 460.333 431.436 460.562 431.127 461.167 431.429 461.167 431.429 461.487 431.152 462 432.749 462 432.749 462 432.749 462.833 432.935 462.833 432.935 462.833 432.935 463.352 433.003 463.566 432.683 463.667 432.715 463.667 432.715 464.055 434.458 464.5 427.555 464.5 427.555 464.5 427.555 464.968 427.533 465.333 428.177 465.333 428.177 465.333 428.177 465.515 428.225 466.092 427.944 466.167 427.956 466.167 427.956 467 428.697 467 428.697 467 428.697 467.833 428.75 467.833 428.75 467.833 428.75 468.666 430.738 468.667 430.738 468.667 430.738 469.499 431.671 469.5 431.671 469.5 431.671 470.322 431.814 470.333 431.777 470.333 431.777 470.92 429.259 471.167 430.761 471.167 430.761 471.579 430.333 471.812 434.8 472 434.701 472 434.701 472.279 434.672 472.832 434.709 472.833 434.709 472.833 434.709 473.363 434.712 473.666 434.701 473.667 434.701 473.667 434.701 474.499 430.122 474.5 430.122 474.5 430.121 474.571 430.06 475.332 433.485 475.333 433.485 475.333 433.485 475.69 433.536 476.167 432.91 476.167 432.91 476.834 427.677 477 429.06 477 429.06 477.765 429.958 477.833 429.702 477.833 429.702 478.627 428.216 478.667 428.506 478.667 428.506 479.5 429.615 479.5 429.615 479.5 429.615 480.333 429.666 480.333 429.666 480.333 429.666 481.166 429.71 481.167 429.71 481.167 429.71 482 429.924 482 429.924 482 429.924 482.833 430.222 482.833 430.222 482.833 430.222 483.202 430.233 483.667 430.233 483.667 430.233 484.049 430.229 484.37 430.882 484.5 430.452 484.5 430.452 484.691 427.105 485.333 428.697 485.333 428.697 485.876 428.693 486.166 428.937 486.167 428.937 486.167 428.937 486.734 429.106 487 429.104 487 429.104 487.122 429.121 487.833 420.53 487.833 420.53 487.833 420.53 488.666 417.191 488.667 417.191 488.667 417.191 488.821 416.958 489.499 418.851 489.5 418.851 489.5 418.851 489.692 419.047 490.332 418.569 490.333 418.569 490.333 418.569 491.026 418.564 491.166 419.126 491.167 419.126 491.167 419.13 491.171 419.146 491.999 417.823 492 417.823 492 417.823 492.768 408.814 492.833 409.189 492.833 409.189 493.667 409.839 493.667 409.839 493.871 409.84 494.5 409.822 494.5 409.822 494.5 409.822 495.333 409.809 495.333 409.809 495.333 409.809 496.166 404.999 496.167 404.999 496.167 404.999 496.514 404.992 496.977 405.208 497 405.068 497 405.068 497.323 402.505 497.833 402.938 497.833 402.938 498.317 402.958 498.666 402.863 498.667 402.863 498.667 402.863 499.326 398.449 499.5 398.462 499.5 398.462 499.842 399.61 500.333 397 500.333 397 500.333 397 500.768 396.718 501.166 397.026 501.167 397.026 501.167 397.026 501.999 397.035 502 397.035 502 397.035 502.833 397.747 502.833 397.747 502.833 397.747 503.556 398.285 503.667 398.276 503.667 398.276 504.499 392.411 504.5 392.411 504.5 392.411 504.804 392.264 505.332 393.364 505.333 393.364 505.333 393.364 505.431 393.201 505.947 394.384 506.167 394.346 506.167 394.346 506.824 394.131 506.999 395.594 507 395.594 507 395.594 507.832 395.955 507.833 395.955 507.833 395.955 508.666 395.973 508.667 395.973 508.667 395.973 509.231 395.973 509.499 395.899 509.5 395.899 509.5 395.899 509.767 395.614 510.333 396.833 510.333 396.833 511.167 399.049 511.167 399.049 511.381 399.046 511.627 399.376 512 399.231 512 399.231 512.833 400.184 512.833 400.184 512.833 400.184 513.666 400.533 513.667 400.533 513.667 400.533 514.5 400.549 514.5 400.549 514.5 400.549 514.893 400.473 515.333 400.921 515.333 400.921 515.333 400.921 516.166 401.392 516.167 401.392 516.167 401.392 516.486 401.405 517 398.777 517 398.777 517 398.777 517.833 398.721 517.833 398.721 517.833 398.721 517.996 398.572 518.667 398.682 518.667 398.682 519.247 398.57 519.499 398.765 519.5 398.765 519.5 398.765 520.082 396.504 520.333 403.522 520.333 403.522 520.333 403.522 520.424 403.838 521.166 395.866 521.167 395.866 521.167 395.866 521.999 388.898 522 388.898 522 388.898 522.262 388.93 522.832 379.014 522.833 379.014 522.833 379.014 523.299 379.089 523.666 372.495 523.667 372.495 523.667 372.495 524.499 372.205 524.5 372.205 524.5 372.205 525.332 371.733 525.333 371.733 525.333 371.733 526.166 370.706 526.167 370.706 526.167 370.706 526.723 371.023 527 365.854 527 365.854 527.79 365.779 527.833 365.904 527.833 365.904 528.667 366.157 528.667 366.157 528.667 366.157 529.104 365.996 529.5 366.307 529.5 366.307 529.5 366.307 530.333 366.328 530.333 366.328 530.333 366.328 530.408 366.327 530.708 366.403" stroke="#3333FF" stroke-width="3.3333" stroke-linejoin="round" stroke-miterlimit="10" fill="none" fill-rule="evenodd"/><text font-family="Arial,Arial_MSFontService,sans-serif" font-weight="400" font-size="19" transform="translate(192 226)">E</text><text font-family="Arial,Arial_MSFontService,sans-serif" font-weight="400" font-size="19" transform="translate(205 226)">:</text><text font-family="Arial,Arial_MSFontService,sans-serif" font-weight="400" font-size="19" transform="translate(210 226)">RS</text><text font-family="Arial,Arial_MSFontService,sans-serif" font-weight="400" font-size="19" transform="translate(237 226)">, </text><text font-family="Arial,Arial_MSFontService,sans-serif" font-weight="400" font-size="19" transform="translate(247 226)">I</text><text font-family="Arial,Arial_MSFontService,sans-serif" font-weight="400" font-size="19" transform="translate(253 226)">:</text><text font-family="Arial,Arial_MSFontService,sans-serif" font-weight="400" font-size="19" transform="translate(258 226)">RS</text><path d="M149 219 189 219" stroke="#FF5050" stroke-width="3.3333" stroke-linejoin="round" stroke-miterlimit="10" fill="none"/><text font-family="Arial,Arial_MSFontService,sans-serif" font-weight="400" font-size="19" transform="translate(334 226)">E</text><text font-family="Arial,Arial_MSFontService,sans-serif" font-weight="400" font-size="19" transform="translate(347 226)">:</text><text font-family="Arial,Arial_MSFontService,sans-serif" font-weight="400" font-size="19" transform="translate(352 226)">RS</text><text font-family="Arial,Arial_MSFontService,sans-serif" font-weight="400" font-size="19" transform="translate(379 226)">, </text><text font-family="Arial,Arial_MSFontService,sans-serif" font-weight="400" font-size="19" transform="translate(389 226)">I</text><text font-family="Arial,Arial_MSFontService,sans-serif" font-weight="400" font-size="19" transform="translate(395 226)">:</text><text font-family="Arial,Arial_MSFontService,sans-serif" font-weight="400" font-size="19" transform="translate(400 226)">FS</text><path d="M291 219 331 219" stroke="#6699FF" stroke-width="3.3333" stroke-linejoin="round" stroke-miterlimit="10" fill="none"/><text font-family="Arial,Arial_MSFontService,sans-serif" font-weight="400" font-size="19" transform="translate(474 226)">E</text><text font-family="Arial,Arial_MSFontService,sans-serif" font-weight="400" font-size="19" transform="translate(487 226)">:</text><text font-family="Arial,Arial_MSFontService,sans-serif" font-weight="400" font-size="19" transform="translate(492 226)">RS</text><text font-family="Arial,Arial_MSFontService,sans-serif" font-weight="400" font-size="19" transform="translate(519 226)">, </text><text font-family="Arial,Arial_MSFontService,sans-serif" font-weight="400" font-size="19" transform="translate(529 226)">I</text><text font-family="Arial,Arial_MSFontService,sans-serif" font-weight="400" font-size="19" transform="translate(535 226)">:</text><text font-family="Arial,Arial_MSFontService,sans-serif" font-weight="400" font-size="19" transform="translate(540 226)">AC</text><path d="M431 219 471 219" stroke="#3333FF" stroke-width="3.3333" stroke-linejoin="round" stroke-miterlimit="10" fill="none"/></g></svg>